SplineFontDB: 3.0
FontName: Kitab-Bold
FullName: Kitab Bold
FamilyName: Kitab
Weight: Bold
Copyright: Copyright (c) 1994-2015 by SIL International. All rights reserved.\nCopyright (c) 2018-2019 by Khaled Hosny. All rights reserved.
Version: 1.004
ItalicAngle: 0
UnderlinePosition: -64
UnderlineWidth: 9
Ascent: 1638
Descent: 410
InvalidEm: 0
sfntRevision: 0x00010106
LayerCount: 2
Layer: 0 1 "Back" 1
Layer: 1 1 "Fore" 0
XUID: [1021 357 1561146572 9283582]
StyleMap: 0x0020
FSType: 0
OS2Version: 3
OS2_WeightWidthSlopeOnly: 0
OS2_UseTypoMetrics: 0
CreationTime: 1440087096
ModificationTime: 1588546573
PfmFamily: 81
TTFWeight: 700
TTFWidth: 5
LineGap: 0
VLineGap: 0
Panose: 1 0 6 0 2 0 0 2 0 3
OS2TypoAscent: 2071
OS2TypoAOffset: 0
OS2TypoDescent: -1386
OS2TypoDOffset: 0
OS2TypoLinegap: 0
OS2WinAscent: 2692
OS2WinAOffset: 0
OS2WinDescent: 1802
OS2WinDOffset: 0
HheadAscent: 2071
HheadAOffset: 0
HheadDescent: -1386
HheadDOffset: 0
OS2SubXSize: 1113
OS2SubYSize: 1113
OS2SubXOff: 0
OS2SubYOff: 1560
OS2SupXSize: 1113
OS2SupYSize: 1113
OS2SupXOff: 0
OS2SupYOff: 1560
OS2StrikeYSize: 272
OS2StrikeYPos: 1363
OS2CapHeight: 1344
OS2XHeight: 889
OS2Vendor: 'SIL '
OS2CodePages: 00000041.00000000
OS2UnicodeRanges: 80002003.00000000.00000000.00000000
Lookup: 1 1 0 "'ccmp' Glyph Composition/Decomposition lookup 0" { "'ccmp' Glyph Composition/Decomposition lookup 0 subtable"  } ['ccmp' ('arab' <'KUR ' 'SND ' 'URD ' 'dflt' > 'latn' <'dflt' > ) ]
Lookup: 2 1 0 "'ccmp' Glyph Composition/Decomposition in Arabic lookup 1" { "'ccmp' Glyph Composition/Decomposition in Arabic lookup 1 subtable"  } ['ccmp' ('arab' <'KUR ' 'SND ' 'URD ' 'dflt' > ) ]
Lookup: 6 8 0 "'ccmp' Glyph Composition/Decomposition lookup 2" { "'ccmp' Glyph Composition/Decomposition lookup 2 subtable"  } ['ccmp' ('arab' <'KUR ' 'SND ' 'URD ' 'dflt' > 'latn' <'dflt' > ) ]

StartChar: .notdef
Encoding: 65536 -1 0
Width: 1475
GlyphClass: 2
Flags: W
LayerCount: 2
Fore
SplineSet
1044 1020 m 0,0,1
 1044 1016 1044 1016 1036.5 1003 c 128,-1,2
 1029 990 1029 990 1019.5 975.5 c 128,-1,3
 1010 961 1010 961 1001 949 c 128,-1,4
 992 937 992 937 989 937 c 256,5,6
 986 937 986 937 974 945 c 128,-1,7
 962 953 962 953 948.5 962.5 c 128,-1,8
 935 972 935 972 923.5 981 c 128,-1,9
 912 990 912 990 912 994 c 256,10,11
 912 998 912 998 920 1011 c 128,-1,12
 928 1024 928 1024 938 1039 c 128,-1,13
 948 1054 948 1054 957 1066 c 128,-1,14
 966 1078 966 1078 968 1078 c 0,15,16
 972 1078 972 1078 984 1069.5 c 128,-1,17
 996 1061 996 1061 1009.5 1051 c 128,-1,18
 1023 1041 1023 1041 1033.5 1031 c 128,-1,19
 1044 1021 1044 1021 1044 1020 c 0,0,1
1131 871 m 0,20,21
 1131 867 1131 867 1124 854 c 128,-1,22
 1117 841 1117 841 1107 826 c 128,-1,23
 1097 811 1097 811 1088 799.5 c 128,-1,24
 1079 788 1079 788 1075 788 c 0,25,26
 1072 788 1072 788 1062 795.5 c 128,-1,27
 1052 803 1052 803 1039 814 c 2,28,-1
 1005 840 l 2,29,30
 1002 843 1002 843 997 842 c 0,31,32
 996 842 996 842 990 840 c 2,33,-1
 967 806 l 2,34,35
 958 793 958 793 950 783 c 128,-1,36
 942 773 942 773 940 773 c 0,37,38
 937 773 937 773 924.5 781 c 128,-1,39
 912 789 912 789 898.5 799.5 c 128,-1,40
 885 810 885 810 874 819 c 128,-1,41
 863 828 863 828 863 831 c 0,42,43
 863 835 863 835 871 847.5 c 128,-1,44
 879 860 879 860 889 875 c 128,-1,45
 899 890 899 890 907.5 902 c 128,-1,46
 916 914 916 914 919 914 c 0,47,48
 923 914 923 914 934 906 c 128,-1,49
 945 898 945 898 958 888 c 2,50,-1
 989 862 l 2,51,52
 994 858 994 858 997 858 c 256,53,54
 1000 858 1000 858 1005 864 c 0,55,56
 1017 881 1017 881 1027 896 c 0,57,58
 1036 908 1036 908 1044 918 c 128,-1,59
 1052 928 1052 928 1054 928 c 0,60,61
 1057 928 1057 928 1069 919.5 c 128,-1,62
 1081 911 1081 911 1095 901.5 c 128,-1,63
 1109 892 1109 892 1120 882 c 128,-1,64
 1131 872 1131 872 1131 871 c 0,20,21
1258 582 m 0,65,66
 1258 556 1258 556 1251.5 523.5 c 128,-1,67
 1245 491 1245 491 1231.5 462.5 c 128,-1,68
 1218 434 1218 434 1198 414 c 128,-1,69
 1178 394 1178 394 1149 394 c 0,70,71
 1124 394 1124 394 1106 402.5 c 128,-1,72
 1088 411 1088 411 1073.5 422 c 128,-1,73
 1059 433 1059 433 1049.5 444.5 c 128,-1,74
 1040 456 1040 456 1032 463 c 1,75,76
 1022 446 1022 446 1006 424 c 128,-1,77
 990 402 990 402 970 382.5 c 128,-1,78
 950 363 950 363 926 349 c 128,-1,79
 902 335 902 335 873 335 c 2,80,-1
 871 335 l 1,81,82
 871 197 871 197 832 113 c 128,-1,83
 793 29 793 29 732 -17.5 c 128,-1,84
 671 -64 671 -64 595.5 -79.5 c 128,-1,85
 520 -95 520 -95 447 -95 c 0,86,87
 398 -95 398 -95 358 -78 c 128,-1,88
 318 -61 318 -61 291 -32.5 c 128,-1,89
 264 -4 264 -4 249 34.5 c 128,-1,90
 234 73 234 73 234 114 c 0,91,92
 234 154 234 154 247.5 196 c 128,-1,93
 261 238 261 238 278 271.5 c 128,-1,94
 295 305 295 305 310.5 326 c 128,-1,95
 326 347 326 347 330 347 c 0,96,97
 342 347 342 347 342 338 c 0,98,99
 342 333 342 333 333 317.5 c 128,-1,100
 324 302 324 302 312 279 c 128,-1,101
 300 256 300 256 291 226 c 128,-1,102
 282 196 282 196 282 161 c 0,103,104
 282 119 282 119 303.5 90.5 c 128,-1,105
 325 62 325 62 355.5 44.5 c 128,-1,106
 386 27 386 27 421 20 c 128,-1,107
 456 13 456 13 484 13 c 0,108,109
 520 13 520 13 558.5 17 c 128,-1,110
 597 21 597 21 632.5 28 c 128,-1,111
 668 35 668 35 698.5 45.5 c 128,-1,112
 729 56 729 56 749 70 c 0,113,114
 794 100 794 100 809.5 141.5 c 128,-1,115
 825 183 825 183 825 246 c 0,116,117
 825 286 825 286 818 314 c 128,-1,118
 811 342 811 342 803 361 c 128,-1,119
 795 380 795 380 788 391.5 c 128,-1,120
 781 403 781 403 781 409 c 0,121,122
 781 413 781 413 787 428 c 128,-1,123
 793 443 793 443 800.5 458.5 c 128,-1,124
 808 474 808 474 815.5 486.5 c 128,-1,125
 823 499 823 499 825 499 c 0,126,127
 846 469 846 469 857 433 c 1,128,129
 888 433 888 433 920.5 446.5 c 128,-1,130
 953 460 953 460 980 483 c 128,-1,131
 1007 506 1007 506 1025.5 535.5 c 128,-1,132
 1044 565 1044 565 1048 599 c 0,133,134
 1051 616 1051 616 1061 616 c 0,135,136
 1062 615 1062 615 1065 611 c 0,137,138
 1068 608 1068 608 1068 604.5 c 128,-1,139
 1068 601 1068 601 1071 595 c 0,140,141
 1075 568 1075 568 1090 551 c 128,-1,142
 1105 534 1105 534 1123 524.5 c 128,-1,143
 1141 515 1141 515 1158.5 511 c 128,-1,144
 1176 507 1176 507 1188 507 c 0,145,146
 1193 507 1193 507 1205.5 513.5 c 128,-1,147
 1218 520 1218 520 1218 526 c 0,148,149
 1218 531 1218 531 1212 538 c 128,-1,150
 1206 545 1206 545 1199 551.5 c 128,-1,151
 1192 558 1192 558 1186 562.5 c 128,-1,152
 1180 567 1180 567 1180 569 c 0,153,154
 1180 572 1180 572 1184 587.5 c 128,-1,155
 1188 603 1188 603 1194 621.5 c 128,-1,156
 1200 640 1200 640 1205 654.5 c 128,-1,157
 1210 669 1210 669 1214 669 c 0,158,159
 1222 669 1222 669 1229.5 659.5 c 128,-1,160
 1237 650 1237 650 1243.5 635.5 c 128,-1,161
 1250 621 1250 621 1254 606 c 128,-1,162
 1258 591 1258 591 1258 582 c 0,65,66
110 1295 m 1,163,-1
 110 -296 l 1,164,-1
 1365 -296 l 1,165,-1
 1365 1295 l 1,166,-1
 110 1295 l 1,163,-1
78 1327 m 1,167,-1
 1397 1327 l 1,168,-1
 1397 -329 l 1,169,-1
 78 -329 l 1,170,-1
 78 1327 l 1,167,-1
EndSplineSet
EndChar

StartChar: exclam
Encoding: 33 33 4
Width: 668
GlyphClass: 2
Flags: W
LayerCount: 2
Fore
SplineSet
482 1088 m 0,0,1
 482 1007 482 1007 466.5 917 c 128,-1,2
 451 827 451 827 433 724 c 0,3,4
 424 673 424 673 415 638 c 128,-1,5
 406 603 406 603 399.5 558 c 128,-1,6
 393 513 393 513 388 446.5 c 128,-1,7
 383 380 383 380 383 266 c 0,8,9
 383 256 383 256 369.5 251 c 128,-1,10
 356 246 356 246 335 246 c 0,11,12
 313 246 313 246 297.5 251 c 128,-1,13
 282 256 282 256 282 266 c 0,14,15
 282 341 282 341 280 396 c 128,-1,16
 278 451 278 451 275 490.5 c 128,-1,17
 272 530 272 530 267.5 559.5 c 128,-1,18
 263 589 263 589 257.5 614.5 c 128,-1,19
 252 640 252 640 246 664.5 c 128,-1,20
 240 689 240 689 235 721 c 0,21,22
 216 826 216 826 199.5 915.5 c 128,-1,23
 183 1005 183 1005 183 1088 c 0,24,25
 183 1120 183 1120 190.5 1154 c 128,-1,26
 198 1188 198 1188 215.5 1214.5 c 128,-1,27
 233 1241 233 1241 261.5 1258 c 128,-1,28
 290 1275 290 1275 333 1275 c 256,29,30
 376 1275 376 1275 405 1258 c 128,-1,31
 434 1241 434 1241 451 1214.5 c 128,-1,32
 468 1188 468 1188 475 1154 c 128,-1,33
 482 1120 482 1120 482 1088 c 0,0,1
473 47 m 256,34,35
 473 18 473 18 462 -7 c 128,-1,36
 451 -32 451 -32 433 -51.5 c 128,-1,37
 415 -71 415 -71 389 -82.5 c 128,-1,38
 363 -94 363 -94 334 -94 c 0,39,40
 304 -94 304 -94 278.5 -82.5 c 128,-1,41
 253 -71 253 -71 233.5 -51.5 c 128,-1,42
 214 -32 214 -32 203 -7 c 128,-1,43
 192 18 192 18 192 47 c 256,44,45
 192 76 192 76 203 101 c 128,-1,46
 214 126 214 126 233.5 145 c 128,-1,47
 253 164 253 164 278.5 175 c 128,-1,48
 304 186 304 186 334 186 c 0,49,50
 363 186 363 186 389 175 c 128,-1,51
 415 164 415 164 433 145 c 128,-1,52
 451 126 451 126 462 101 c 128,-1,53
 473 76 473 76 473 47 c 256,34,35
EndSplineSet
EndChar

StartChar: quotedbl
Encoding: 34 34 5
Width: 1108
GlyphClass: 2
Flags: W
LayerCount: 2
Fore
SplineSet
936 1213 m 0,0,1
 936 1203 936 1203 930.5 1175.5 c 128,-1,2
 925 1148 925 1148 917.5 1110 c 128,-1,3
 910 1072 910 1072 900 1027.5 c 128,-1,4
 890 983 890 983 880 938 c 0,5,6
 857 833 857 833 825 707 c 1,7,-1
 754 707 l 1,8,9
 723 833 723 833 699 938 c 0,10,11
 689 982 689 982 679 1027 c 128,-1,12
 669 1072 669 1072 661.5 1110 c 128,-1,13
 654 1148 654 1148 649.5 1175 c 128,-1,14
 645 1202 645 1202 645 1213 c 0,15,16
 645 1243 645 1243 656 1269.5 c 128,-1,17
 667 1296 667 1296 686.5 1315.5 c 128,-1,18
 706 1335 706 1335 732.5 1346 c 128,-1,19
 759 1357 759 1357 790 1357 c 0,20,21
 820 1357 820 1357 846.5 1346 c 128,-1,22
 873 1335 873 1335 892.5 1315.5 c 128,-1,23
 912 1296 912 1296 924 1269.5 c 128,-1,24
 936 1243 936 1243 936 1213 c 0,0,1
464 1213 m 0,25,26
 464 1203 464 1203 459 1175.5 c 128,-1,27
 454 1148 454 1148 446 1110 c 128,-1,28
 438 1072 438 1072 428.5 1027.5 c 128,-1,29
 419 983 419 983 408 938 c 0,30,31
 383 833 383 833 352 707 c 1,32,-1
 281 707 l 1,33,34
 250 833 250 833 226 938 c 0,35,36
 216 982 216 982 206 1027 c 128,-1,37
 196 1072 196 1072 188.5 1110 c 128,-1,38
 181 1148 181 1148 176.5 1175 c 128,-1,39
 172 1202 172 1202 172 1213 c 0,40,41
 172 1243 172 1243 183 1269.5 c 128,-1,42
 194 1296 194 1296 213.5 1315.5 c 128,-1,43
 233 1335 233 1335 259.5 1346 c 128,-1,44
 286 1357 286 1357 317 1357 c 0,45,46
 347 1357 347 1357 373.5 1346 c 128,-1,47
 400 1335 400 1335 420.5 1315.5 c 128,-1,48
 441 1296 441 1296 452.5 1269.5 c 128,-1,49
 464 1243 464 1243 464 1213 c 0,25,26
EndSplineSet
EndChar

StartChar: numbersign
Encoding: 35 35 6
Width: 1002
GlyphClass: 2
Flags: W
LayerCount: 2
Fore
SplineSet
720 389 m 1,0,-1
 637 -29 l 1,1,-1
 498 -29 l 1,2,-1
 582 389 l 1,3,-1
 309 389 l 1,4,-1
 222 -29 l 1,5,-1
 87 -29 l 1,6,-1
 170 389 l 1,7,-1
 39 389 l 1,8,-1
 39 524 l 1,9,-1
 199 524 l 1,10,-1
 251 799 l 1,11,-1
 39 799 l 1,12,-1
 39 936 l 1,13,-1
 279 936 l 1,14,-1
 365 1357 l 1,15,-1
 502 1357 l 1,16,-1
 417 936 l 1,17,-1
 693 936 l 1,18,-1
 776 1357 l 1,19,-1
 915 1357 l 1,20,-1
 829 936 l 1,21,-1
 963 936 l 1,22,-1
 963 799 l 1,23,-1
 802 799 l 1,24,-1
 747 524 l 1,25,-1
 963 524 l 1,26,-1
 963 389 l 1,27,-1
 720 389 l 1,0,-1
393 799 m 1,28,-1
 338 524 l 1,29,-1
 610 524 l 1,30,-1
 667 799 l 1,31,-1
 393 799 l 1,28,-1
EndSplineSet
EndChar

StartChar: dollar
Encoding: 36 36 7
Width: 1022
GlyphClass: 2
Flags: W
LayerCount: 2
Fore
SplineSet
958 356 m 0,0,1
 958 260 958 260 925.5 190 c 128,-1,2
 893 120 893 120 839.5 73 c 128,-1,3
 786 26 786 26 716.5 0.5 c 128,-1,4
 647 -25 647 -25 572 -30 c 1,5,-1
 572 -152 l 1,6,-1
 456 -152 l 1,7,-1
 456 -30 l 1,8,9
 368 -25 368 -25 280 -5.5 c 128,-1,10
 192 14 192 14 110 51 c 1,11,-1
 110 380 l 1,12,-1
 205 380 l 1,13,14
 210 311 210 311 234.5 255 c 128,-1,15
 259 199 259 199 294 158.5 c 128,-1,16
 329 118 329 118 371 93.5 c 128,-1,17
 413 69 413 69 456 64 c 1,18,-1
 456 555 l 1,19,20
 392 595 392 595 326.5 638 c 128,-1,21
 261 681 261 681 207 734.5 c 128,-1,22
 153 788 153 788 118.5 854 c 128,-1,23
 84 920 84 920 84 1007 c 0,24,25
 84 1080 84 1080 117.5 1141 c 128,-1,26
 151 1202 151 1202 203.5 1247 c 128,-1,27
 256 1292 256 1292 323 1319.5 c 128,-1,28
 390 1347 390 1347 456 1352 c 1,29,-1
 456 1443 l 1,30,-1
 572 1443 l 1,31,-1
 572 1352 l 1,32,33
 616 1349 616 1349 656.5 1341.5 c 128,-1,34
 697 1334 697 1334 736 1321.5 c 128,-1,35
 775 1309 775 1309 814 1294.5 c 128,-1,36
 853 1280 853 1280 894 1265 c 1,37,-1
 894 920 l 1,38,-1
 805 920 l 1,39,40
 799 986 799 986 780.5 1045.5 c 128,-1,41
 762 1105 762 1105 732 1150 c 128,-1,42
 702 1195 702 1195 661.5 1224 c 128,-1,43
 621 1253 621 1253 572 1260 c 1,44,-1
 572 840 l 1,45,46
 611 811 611 811 654.5 783.5 c 128,-1,47
 698 756 698 756 741 725 c 128,-1,48
 784 694 784 694 823 657.5 c 128,-1,49
 862 621 862 621 892.5 577 c 128,-1,50
 923 533 923 533 940.5 478.5 c 128,-1,51
 958 424 958 424 958 356 c 0,0,1
456 1260 m 1,52,53
 374 1248 374 1248 344.5 1202.5 c 128,-1,54
 315 1157 315 1157 315 1094 c 0,55,56
 315 1068 315 1068 324.5 1040.5 c 128,-1,57
 334 1013 334 1013 352 984 c 128,-1,58
 370 955 370 955 396 929 c 128,-1,59
 422 903 422 903 456 883 c 1,60,-1
 456 1260 l 1,52,53
725 282 m 0,61,62
 725 337 725 337 687.5 398 c 128,-1,63
 650 459 650 459 572 512 c 1,64,-1
 572 64 l 1,65,66
 607 67 607 67 635 85 c 128,-1,67
 663 103 663 103 683 132 c 128,-1,68
 703 161 703 161 714 199.5 c 128,-1,69
 725 238 725 238 725 282 c 0,61,62
EndSplineSet
EndChar

StartChar: percent
Encoding: 37 37 8
Width: 1697
GlyphClass: 2
Flags: W
LayerCount: 2
Fore
SplineSet
1612 489 m 0,0,1
 1612 434 1612 434 1597.5 374.5 c 128,-1,2
 1583 315 1583 315 1556 257 c 128,-1,3
 1529 199 1529 199 1489 147 c 128,-1,4
 1449 95 1449 95 1397 55.5 c 128,-1,5
 1345 16 1345 16 1282 -7.5 c 128,-1,6
 1219 -31 1219 -31 1145 -31 c 0,7,8
 1022 -31 1022 -31 951 38 c 128,-1,9
 880 107 880 107 880 259 c 0,10,11
 880 341 880 341 919 428.5 c 128,-1,12
 958 516 958 516 1023.5 589.5 c 128,-1,13
 1089 663 1089 663 1176 709.5 c 128,-1,14
 1263 756 1263 756 1360 756 c 0,15,16
 1439 756 1439 756 1488.5 731.5 c 128,-1,17
 1538 707 1538 707 1565 668 c 128,-1,18
 1592 629 1592 629 1602 581.5 c 128,-1,19
 1612 534 1612 534 1612 489 c 0,0,1
545 -29 m 1,20,-1
 359 -29 l 1,21,-1
 1094 1218 l 1,22,23
 1036 1192 1036 1192 993.5 1177 c 128,-1,24
 951 1162 951 1162 907 1162 c 0,25,26
 859 1162 859 1162 799 1182 c 1,27,28
 808 1157 808 1157 811.5 1128.5 c 128,-1,29
 815 1100 815 1100 815 1068 c 0,30,31
 815 981 815 981 781 889 c 128,-1,32
 747 797 747 797 687.5 721.5 c 128,-1,33
 628 646 628 646 544.5 597.5 c 128,-1,34
 461 549 461 549 363 549 c 0,35,36
 233 549 233 549 158.5 625 c 128,-1,37
 84 701 84 701 84 837 c 0,38,39
 84 937 84 937 125 1028 c 128,-1,40
 166 1119 166 1119 235 1187.5 c 128,-1,41
 304 1256 304 1256 392.5 1296 c 128,-1,42
 481 1336 481 1336 577 1336 c 0,43,44
 641 1336 641 1336 678.5 1320 c 128,-1,45
 716 1304 716 1304 746.5 1284.5 c 128,-1,46
 777 1265 777 1265 811 1248.5 c 128,-1,47
 845 1232 845 1232 899 1232 c 0,48,49
 983 1232 983 1232 1056.5 1264.5 c 128,-1,50
 1130 1297 1130 1297 1182 1363 c 1,51,-1
 1363 1363 l 1,52,-1
 545 -29 l 1,20,-1
1536 468 m 0,53,54
 1536 525 1536 525 1527 565.5 c 128,-1,55
 1518 606 1518 606 1501 631 c 128,-1,56
 1484 656 1484 656 1461 668 c 128,-1,57
 1438 680 1438 680 1409 680 c 0,58,59
 1382 680 1382 680 1347.5 660 c 128,-1,60
 1313 640 1313 640 1276.5 604.5 c 128,-1,61
 1240 569 1240 569 1205 521.5 c 128,-1,62
 1170 474 1170 474 1142.5 417.5 c 128,-1,63
 1115 361 1115 361 1098 299 c 128,-1,64
 1081 237 1081 237 1081 173 c 0,65,66
 1081 118 1081 118 1118.5 83.5 c 128,-1,67
 1156 49 1156 49 1222 49 c 0,68,69
 1254 49 1254 49 1290 68 c 128,-1,70
 1326 87 1326 87 1361 119 c 128,-1,71
 1396 151 1396 151 1428 193 c 128,-1,72
 1460 235 1460 235 1484 282 c 128,-1,73
 1508 329 1508 329 1522 376.5 c 128,-1,74
 1536 424 1536 424 1536 468 c 0,53,54
743 1046 m 0,75,76
 743 1103 743 1103 733.5 1143.5 c 128,-1,77
 724 1184 724 1184 707 1210 c 1,78,79
 693 1222 693 1222 682.5 1230.5 c 128,-1,80
 672 1239 672 1239 663 1245.5 c 128,-1,81
 654 1252 654 1252 645 1255 c 128,-1,82
 636 1258 636 1258 624 1258 c 0,83,84
 586 1258 586 1258 542.5 1233.5 c 128,-1,85
 499 1209 499 1209 456 1166 c 0,86,87
 422 1131 422 1131 391 1086.5 c 128,-1,88
 360 1042 360 1042 336.5 991 c 128,-1,89
 313 940 313 940 299.5 884 c 128,-1,90
 286 828 286 828 286 769 c 0,91,92
 286 713 286 713 324.5 671.5 c 128,-1,93
 363 630 363 630 429 630 c 0,94,95
 464 630 464 630 501 651 c 128,-1,96
 538 672 538 672 573 706 c 128,-1,97
 608 740 608 740 638.5 783.5 c 128,-1,98
 669 827 669 827 692.5 873 c 128,-1,99
 716 919 716 919 729.5 963.5 c 128,-1,100
 743 1008 743 1008 743 1046 c 0,75,76
EndSplineSet
EndChar

StartChar: ampersand
Encoding: 38 38 9
Width: 1667
GlyphClass: 2
Flags: W
LayerCount: 2
Fore
SplineSet
1587 246 m 1,0,1
 1573 195 1573 195 1550 146 c 128,-1,2
 1527 97 1527 97 1489 58 c 128,-1,3
 1451 19 1451 19 1394 -5 c 128,-1,4
 1337 -29 1337 -29 1257 -29 c 0,5,6
 1206 -29 1206 -29 1164 -17 c 128,-1,7
 1122 -5 1122 -5 1084 16.5 c 128,-1,8
 1046 38 1046 38 1011.5 66 c 128,-1,9
 977 94 977 94 942 127 c 1,10,11
 900 97 900 97 851 69.5 c 128,-1,12
 802 42 802 42 745.5 19.5 c 128,-1,13
 689 -3 689 -3 624.5 -16 c 128,-1,14
 560 -29 560 -29 490 -29 c 0,15,16
 395 -29 395 -29 319.5 -3.5 c 128,-1,17
 244 22 244 22 191 67.5 c 128,-1,18
 138 113 138 113 109.5 175 c 128,-1,19
 81 237 81 237 81 311 c 0,20,21
 81 395 81 395 121 465.5 c 128,-1,22
 161 536 161 536 223.5 591.5 c 128,-1,23
 286 647 286 647 360.5 689.5 c 128,-1,24
 435 732 435 732 506 760 c 1,25,26
 488 791 488 791 473 829 c 0,27,28
 460 861 460 861 450.5 905 c 128,-1,29
 441 949 441 949 441 998 c 0,30,31
 441 1076 441 1076 469.5 1142 c 128,-1,32
 498 1208 498 1208 549.5 1255 c 128,-1,33
 601 1302 601 1302 671.5 1329.5 c 128,-1,34
 742 1357 742 1357 827 1357 c 0,35,36
 897 1357 897 1357 953.5 1339 c 128,-1,37
 1010 1321 1010 1321 1049 1289.5 c 128,-1,38
 1088 1258 1088 1258 1109.5 1216.5 c 128,-1,39
 1131 1175 1131 1175 1131 1128 c 0,40,41
 1131 1058 1131 1058 1101.5 1000 c 128,-1,42
 1072 942 1072 942 1025.5 895.5 c 128,-1,43
 979 849 979 849 920.5 814.5 c 128,-1,44
 862 780 862 780 803 759 c 1,45,46
 839 698 839 698 866.5 655 c 128,-1,47
 894 612 894 612 922 575 c 128,-1,48
 950 538 950 538 984 499.5 c 128,-1,49
 1018 461 1018 461 1067 409 c 1,50,51
 1093 436 1093 436 1120.5 471 c 128,-1,52
 1148 506 1148 506 1170 541 c 128,-1,53
 1192 576 1192 576 1206.5 609 c 128,-1,54
 1221 642 1221 642 1221 669 c 0,55,56
 1221 711 1221 711 1200 745.5 c 128,-1,57
 1179 780 1179 780 1117 789 c 1,58,-1
 1117 854 l 1,59,-1
 1577 854 l 1,60,-1
 1577 789 l 1,61,62
 1563 788 1563 788 1546 785 c 128,-1,63
 1529 782 1529 782 1512.5 778.5 c 128,-1,64
 1496 775 1496 775 1481.5 769.5 c 128,-1,65
 1467 764 1467 764 1458 758 c 0,66,67
 1441 746 1441 746 1427 725 c 128,-1,68
 1413 704 1413 704 1399.5 678.5 c 128,-1,69
 1386 653 1386 653 1371 623.5 c 128,-1,70
 1356 594 1356 594 1339 565 c 0,71,72
 1309 516 1309 516 1265 456 c 128,-1,73
 1221 396 1221 396 1158 322 c 1,74,75
 1223 257 1223 257 1281 222.5 c 128,-1,76
 1339 188 1339 188 1391 188 c 0,77,78
 1408 188 1408 188 1424.5 192 c 128,-1,79
 1441 196 1441 196 1457.5 207 c 128,-1,80
 1474 218 1474 218 1490 238.5 c 128,-1,81
 1506 259 1506 259 1521 291 c 1,82,-1
 1587 246 l 1,0,1
927 1107 m 0,83,84
 927 1193 927 1193 886.5 1234.5 c 128,-1,85
 846 1276 846 1276 775 1276 c 0,86,87
 720 1276 720 1276 691 1237 c 128,-1,88
 662 1198 662 1198 662 1139 c 0,89,90
 662 1103 662 1103 673.5 1058.5 c 128,-1,91
 685 1014 685 1014 700.5 973 c 128,-1,92
 716 932 716 932 731.5 899 c 128,-1,93
 747 866 747 866 754 853 c 1,94,95
 775 862 775 862 804.5 886.5 c 128,-1,96
 834 911 834 911 861.5 945.5 c 128,-1,97
 889 980 889 980 908 1021.5 c 128,-1,98
 927 1063 927 1063 927 1107 c 0,83,84
847 216 m 1,99,100
 789 287 789 287 748 345.5 c 128,-1,101
 707 404 707 404 674.5 455.5 c 128,-1,102
 642 507 642 507 613.5 557 c 128,-1,103
 585 607 585 607 552 662 c 1,104,105
 516 648 516 648 482 619 c 128,-1,106
 448 590 448 590 421.5 552.5 c 128,-1,107
 395 515 395 515 379.5 470.5 c 128,-1,108
 364 426 364 426 364 380 c 0,109,110
 364 320 364 320 383.5 272 c 128,-1,111
 403 224 403 224 435 190 c 128,-1,112
 467 156 467 156 508 138 c 128,-1,113
 549 120 549 120 591 120 c 0,114,115
 643 120 643 120 689.5 134.5 c 128,-1,116
 736 149 736 149 771 168 c 0,117,118
 812 189 812 189 847 216 c 1,99,100
EndSplineSet
EndChar

StartChar: quotesingle
Encoding: 39 39 10
Width: 456
GlyphClass: 2
Flags: W
LayerCount: 2
Fore
SplineSet
374 1213 m 0,0,1
 374 1199 374 1199 367 1153 c 128,-1,2
 360 1107 360 1107 346 1049 c 2,3,-1
 269 707 l 1,4,-1
 186 707 l 1,5,-1
 113 1044 l 2,6,7
 100 1105 100 1105 91.5 1151.5 c 128,-1,8
 83 1198 83 1198 83 1213 c 0,9,10
 83 1243 83 1243 94 1269.5 c 128,-1,11
 105 1296 105 1296 124.5 1315.5 c 128,-1,12
 144 1335 144 1335 171 1346 c 128,-1,13
 198 1357 198 1357 229 1357 c 0,14,15
 259 1357 259 1357 285.5 1346 c 128,-1,16
 312 1335 312 1335 331.5 1315.5 c 128,-1,17
 351 1296 351 1296 362.5 1269.5 c 128,-1,18
 374 1243 374 1243 374 1213 c 0,0,1
EndSplineSet
EndChar

StartChar: parenleft
Encoding: 40 40 11
Width: 687
GlyphClass: 2
Flags: W
LayerCount: 2
Fore
SplineSet
641 -402 m 1,0,1
 554 -372 554 -372 475 -318.5 c 128,-1,2
 396 -265 396 -265 330 -192 c 0,3,4
 213 -65 213 -65 145 107 c 128,-1,5
 77 279 77 279 77 477 c 0,6,7
 77 576 77 576 95 669.5 c 128,-1,8
 113 763 113 763 147 849 c 128,-1,9
 181 935 181 935 229 1011.5 c 128,-1,10
 277 1088 277 1088 335 1152 c 0,11,12
 401 1222 401 1222 478 1274.5 c 128,-1,13
 555 1327 555 1327 641 1357 c 1,14,-1
 641 1315 l 1,15,16
 555 1266 555 1266 498.5 1192 c 128,-1,17
 442 1118 442 1118 408 1018 c 0,18,19
 370 908 370 908 356 773 c 128,-1,20
 342 638 342 638 342 477 c 0,21,22
 342 307 342 307 358 168 c 128,-1,23
 374 29 374 29 416 -82 c 0,24,25
 450 -172 450 -172 504.5 -240 c 128,-1,26
 559 -308 559 -308 641 -354 c 1,27,-1
 641 -402 l 1,28,-1
 641 -402 l 1,0,1
EndSplineSet
EndChar

StartChar: parenright
Encoding: 41 41 12
Width: 687
GlyphClass: 2
Flags: W
LayerCount: 2
Fore
SplineSet
77 -354 m 1,0,1
 159 -309 159 -309 213.5 -240.5 c 128,-1,2
 268 -172 268 -172 302 -82 c 0,3,4
 344 28 344 28 360 167.5 c 128,-1,5
 376 307 376 307 376 477 c 0,6,7
 376 638 376 638 361.5 772.5 c 128,-1,8
 347 907 347 907 309 1018 c 0,9,10
 275 1118 275 1118 218.5 1192 c 128,-1,11
 162 1266 162 1266 77 1315 c 1,12,-1
 77 1357 l 1,13,14
 163 1327 163 1327 239.5 1274.5 c 128,-1,15
 316 1222 316 1222 382 1152 c 0,16,17
 440 1088 440 1088 488.5 1011.5 c 128,-1,18
 537 935 537 935 570.5 849 c 128,-1,19
 604 763 604 763 622.5 669.5 c 128,-1,20
 641 576 641 576 641 477 c 0,21,22
 641 279 641 279 572.5 107 c 128,-1,23
 504 -65 504 -65 387 -192 c 0,24,25
 321 -265 321 -265 242.5 -318.5 c 128,-1,26
 164 -372 164 -372 77 -402 c 1,27,-1
 77 -354 l 1,0,1
EndSplineSet
EndChar

StartChar: asterisk
Encoding: 42 42 13
Width: 1017
GlyphClass: 2
Flags: W
LayerCount: 2
Fore
SplineSet
766 638 m 0,0,1
 785 638 785 638 800.5 626 c 128,-1,2
 816 614 816 614 816 591 c 0,3,4
 816 572 816 572 804 546.5 c 128,-1,5
 792 521 792 521 762 491 c 0,6,7
 741 469 741 469 704.5 443 c 128,-1,8
 668 417 668 417 630.5 394.5 c 128,-1,9
 593 372 593 372 561.5 356.5 c 128,-1,10
 530 341 530 341 521 341 c 0,11,12
 517 341 517 341 517 344 c 0,13,14
 517 353 517 353 533 384.5 c 128,-1,15
 549 416 549 416 571.5 453 c 128,-1,16
 594 490 594 490 620 526.5 c 128,-1,17
 646 563 646 563 667 584 c 0,18,19
 697 614 697 614 722.5 626 c 128,-1,20
 748 638 748 638 766 638 c 0,0,1
551 636 m 0,21,22
 551 609 551 609 549 562 c 128,-1,23
 547 515 547 515 540.5 469.5 c 128,-1,24
 534 424 534 424 521 390 c 128,-1,25
 508 356 508 356 486 356 c 0,26,27
 480 356 480 356 469 388 c 128,-1,28
 458 420 458 420 446 465 c 128,-1,29
 434 510 434 510 425.5 557 c 128,-1,30
 417 604 417 604 417 636 c 0,31,32
 417 702 417 702 438.5 731 c 128,-1,33
 460 760 460 760 486 760 c 256,34,35
 512 760 512 760 531.5 731 c 128,-1,36
 551 702 551 702 551 636 c 0,21,22
938 309 m 256,37,38
 938 283 938 283 907 263.5 c 128,-1,39
 876 244 876 244 814 244 c 0,40,41
 782 244 782 244 734 252 c 128,-1,42
 686 260 686 260 642 270.5 c 128,-1,43
 598 281 598 281 566 292 c 128,-1,44
 534 303 534 303 534 309 c 0,45,46
 534 314 534 314 566 325.5 c 128,-1,47
 598 337 598 337 642 348 c 128,-1,48
 686 359 686 359 733.5 366.5 c 128,-1,49
 781 374 781 374 814 374 c 0,50,51
 876 374 876 374 907 354.5 c 128,-1,52
 938 335 938 335 938 309 c 256,37,38
454 344 m 0,53,54
 454 340 454 340 451 341 c 0,55,56
 441 341 441 341 410.5 356.5 c 128,-1,57
 380 372 380 372 342 394.5 c 128,-1,58
 304 417 304 417 267 444 c 128,-1,59
 230 471 230 471 209 493 c 0,60,61
 179 522 179 522 167 547 c 128,-1,62
 155 572 155 572 155 591 c 256,63,64
 155 610 155 610 168.5 624 c 128,-1,65
 182 638 182 638 204 638 c 0,66,67
 223 638 223 638 249.5 626 c 128,-1,68
 276 614 276 614 305 584 c 0,69,70
 326 563 326 563 352 526.5 c 128,-1,71
 378 490 378 490 400 452.5 c 128,-1,72
 422 415 422 415 438 383.5 c 128,-1,73
 454 352 454 352 454 344 c 0,53,54
816 29 m 0,74,75
 816 8 816 8 802.5 -6.5 c 128,-1,76
 789 -21 789 -21 766 -21 c 0,77,78
 748 -21 748 -21 722.5 -8.5 c 128,-1,79
 697 4 697 4 667 34 c 0,80,81
 646 55 646 55 620 91 c 128,-1,82
 594 127 594 127 571.5 165 c 128,-1,83
 549 203 549 203 533 233.5 c 128,-1,84
 517 264 517 264 517 273 c 0,85,86
 517 277 517 277 521 277 c 0,87,88
 530 277 530 277 561.5 261.5 c 128,-1,89
 593 246 593 246 630.5 223 c 128,-1,90
 668 200 668 200 704.5 174 c 128,-1,91
 741 148 741 148 762 127 c 0,92,93
 792 97 792 97 804 72 c 128,-1,94
 816 47 816 47 816 29 c 0,74,75
439 309 m 0,95,96
 439 303 439 303 407.5 292 c 128,-1,97
 376 281 376 281 331 270.5 c 128,-1,98
 286 260 286 260 238 252 c 128,-1,99
 190 244 190 244 159 244 c 0,100,101
 93 244 93 244 63.5 263.5 c 128,-1,102
 34 283 34 283 34 309 c 256,103,104
 34 335 34 335 63 354.5 c 128,-1,105
 92 374 92 374 159 374 c 0,106,107
 190 374 190 374 238 366.5 c 128,-1,108
 286 359 286 359 331 348 c 128,-1,109
 376 337 376 337 407.5 325.5 c 128,-1,110
 439 314 439 314 439 309 c 0,95,96
551 -18 m 0,111,112
 551 -84 551 -84 531.5 -113.5 c 128,-1,113
 512 -143 512 -143 486 -143 c 256,114,115
 460 -143 460 -143 438.5 -113.5 c 128,-1,116
 417 -84 417 -84 417 -18 c 0,117,118
 417 13 417 13 425.5 60.5 c 128,-1,119
 434 108 434 108 446 153 c 128,-1,120
 458 198 458 198 469 229.5 c 128,-1,121
 480 261 480 261 486 261 c 0,122,123
 490 261 490 261 501 229.5 c 128,-1,124
 512 198 512 198 523 153 c 128,-1,125
 534 108 534 108 542.5 60.5 c 128,-1,126
 551 13 551 13 551 -18 c 0,111,112
451 277 m 0,127,128
 454 277 454 277 454 273 c 0,129,130
 454 265 454 265 438 234.5 c 128,-1,131
 422 204 422 204 400 166.5 c 128,-1,132
 378 129 378 129 352 92 c 128,-1,133
 326 55 326 55 305 34 c 0,134,135
 275 4 275 4 249.5 -8.5 c 128,-1,136
 224 -21 224 -21 204 -21 c 0,137,138
 186 -21 186 -21 170.5 -8.5 c 128,-1,139
 155 4 155 4 155 26 c 0,140,141
 155 45 155 45 167 70 c 128,-1,142
 179 95 179 95 209 125 c 0,143,144
 230 147 230 147 267 173.5 c 128,-1,145
 304 200 304 200 342 223 c 128,-1,146
 380 246 380 246 410.5 261.5 c 128,-1,147
 441 277 441 277 451 277 c 0,127,128
EndSplineSet
EndChar

StartChar: plus
Encoding: 43 43 14
Width: 1262
GlyphClass: 2
Flags: W
LayerCount: 2
Fore
SplineSet
697 507 m 1,0,-1
 697 0 l 1,1,-1
 565 0 l 1,2,-1
 565 507 l 1,3,-1
 52 507 l 1,4,-1
 52 640 l 1,5,-1
 565 640 l 1,6,-1
 565 1158 l 1,7,-1
 697 1158 l 1,8,-1
 697 640 l 1,9,-1
 1210 640 l 1,10,-1
 1210 507 l 1,11,-1
 697 507 l 1,0,-1
EndSplineSet
EndChar

StartChar: comma
Encoding: 44 44 15
Width: 521
GlyphClass: 2
Flags: W
LayerCount: 2
Fore
SplineSet
450 56 m 0,0,1
 450 -21 450 -21 426 -86 c 128,-1,2
 402 -151 402 -151 357.5 -203 c 128,-1,3
 313 -255 313 -255 251.5 -292.5 c 128,-1,4
 190 -330 190 -330 114 -352 c 1,5,-1
 114 -309 l 1,6,7
 178 -283 178 -283 220.5 -245.5 c 128,-1,8
 263 -208 263 -208 287 -167.5 c 128,-1,9
 311 -127 311 -127 320.5 -89.5 c 128,-1,10
 330 -52 330 -52 330 -26 c 0,11,12
 330 -16 330 -16 326 -3.5 c 128,-1,13
 322 9 322 9 309 9 c 0,14,15
 297 9 297 9 283 -2 c 128,-1,16
 269 -13 269 -13 239 -13 c 0,17,18
 205 -13 205 -13 176 -2 c 128,-1,19
 147 9 147 9 125 29 c 128,-1,20
 103 49 103 49 90 77 c 128,-1,21
 77 105 77 105 77 139 c 256,22,23
 77 173 77 173 90 202 c 128,-1,24
 103 231 103 231 125 253.5 c 128,-1,25
 147 276 147 276 176 288 c 128,-1,26
 205 300 205 300 239 300 c 0,27,28
 282 300 282 300 320.5 284.5 c 128,-1,29
 359 269 359 269 387.5 238.5 c 128,-1,30
 416 208 416 208 433 162.5 c 128,-1,31
 450 117 450 117 450 56 c 0,0,1
EndSplineSet
EndChar

StartChar: hyphen
Encoding: 45 45 16
Width: 687
GlyphClass: 2
Flags: W
LayerCount: 2
Fore
SplineSet
39 363 m 1,0,-1
 39 558 l 1,1,-1
 649 558 l 1,2,-1
 649 363 l 1,3,-1
 39 363 l 1,0,-1
EndSplineSet
EndChar

StartChar: period
Encoding: 46 46 17
Width: 900
GlyphClass: 2
Flags: W
LayerCount: 2
Fore
SplineSet
634 139 m 256,0,1
 634 105 634 105 621 76 c 128,-1,2
 608 47 608 47 586 25 c 128,-1,3
 564 3 564 3 534 -10 c 128,-1,4
 504 -23 504 -23 471 -23 c 0,5,6
 437 -23 437 -23 407.5 -10 c 128,-1,7
 378 3 378 3 356 25 c 128,-1,8
 334 47 334 47 321 76 c 128,-1,9
 308 105 308 105 308 139 c 256,10,11
 308 173 308 173 321 202 c 128,-1,12
 334 231 334 231 356 253.5 c 128,-1,13
 378 276 378 276 407.5 288 c 128,-1,14
 437 300 437 300 471 300 c 256,15,16
 505 300 505 300 534.5 288 c 128,-1,17
 564 276 564 276 586 253.5 c 128,-1,18
 608 231 608 231 621 202 c 128,-1,19
 634 173 634 173 634 139 c 256,0,1
EndSplineSet
EndChar

StartChar: slash
Encoding: 47 47 18
Width: 577
GlyphClass: 2
Flags: W
LayerCount: 2
Fore
SplineSet
135 -29 m 1,0,-1
 8 -29 l 1,1,-1
 446 1357 l 1,2,-1
 573 1357 l 1,3,-1
 135 -29 l 1,0,-1
EndSplineSet
EndChar

StartChar: zero
Encoding: 48 48 19
Width: 1022
GlyphClass: 2
Flags: W
LayerCount: 2
Fore
SplineSet
940 664 m 256,0,1
 940 585 940 585 930 502.5 c 128,-1,2
 920 420 920 420 898.5 343 c 128,-1,3
 877 266 877 266 843.5 198.5 c 128,-1,4
 810 131 810 131 762.5 80.5 c 128,-1,5
 715 30 715 30 652.5 0.5 c 128,-1,6
 590 -29 590 -29 512 -29 c 256,7,8
 434 -29 434 -29 371.5 0.5 c 128,-1,9
 309 30 309 30 261 80.5 c 128,-1,10
 213 131 213 131 179.5 198.5 c 128,-1,11
 146 266 146 266 124.5 343 c 128,-1,12
 103 420 103 420 93 502.5 c 128,-1,13
 83 585 83 585 83 664 c 256,14,15
 83 743 83 743 93 826 c 128,-1,16
 103 909 103 909 124.5 985.5 c 128,-1,17
 146 1062 146 1062 179.5 1129.5 c 128,-1,18
 213 1197 213 1197 261 1248 c 128,-1,19
 309 1299 309 1299 371 1328 c 128,-1,20
 433 1357 433 1357 512 1357 c 0,21,22
 590 1357 590 1357 652.5 1328 c 128,-1,23
 715 1299 715 1299 762.5 1248 c 128,-1,24
 810 1197 810 1197 843.5 1129.5 c 128,-1,25
 877 1062 877 1062 898.5 985.5 c 128,-1,26
 920 909 920 909 930 826 c 128,-1,27
 940 743 940 743 940 664 c 256,0,1
640 703 m 0,28,29
 640 807 640 807 634.5 907 c 128,-1,30
 629 1007 629 1007 615.5 1085 c 128,-1,31
 602 1163 602 1163 576.5 1211.5 c 128,-1,32
 551 1260 551 1260 512 1260 c 0,33,34
 486 1260 486 1260 465.5 1232 c 128,-1,35
 445 1204 445 1204 430 1157 c 128,-1,36
 415 1110 415 1110 405 1047 c 128,-1,37
 395 984 395 984 389 913 c 128,-1,38
 383 842 383 842 380.5 768 c 128,-1,39
 378 694 378 694 378 625 c 0,40,41
 378 521 378 521 384 421 c 128,-1,42
 390 321 390 321 405 243 c 128,-1,43
 420 165 420 165 446 117 c 128,-1,44
 472 69 472 69 512 69 c 0,45,46
 538 69 538 69 558 97 c 128,-1,47
 578 125 578 125 592 171.5 c 128,-1,48
 606 218 606 218 615 281 c 128,-1,49
 624 344 624 344 630 415 c 128,-1,50
 636 486 636 486 638 559.5 c 128,-1,51
 640 633 640 633 640 703 c 0,28,29
EndSplineSet
Substitution2: "Single Substitution lookup 47 subtable" zero.Small
Substitution2: "Single Substitution lookup 46 subtable" zero.Medium
EndChar

StartChar: one
Encoding: 49 49 20
Width: 1022
GlyphClass: 2
Flags: W
LayerCount: 2
Fore
SplineSet
162 0 m 1,0,-1
 162 78 l 1,1,2
 222 78 222 78 263.5 86 c 128,-1,3
 305 94 305 94 330.5 113.5 c 128,-1,4
 356 133 356 133 367 166 c 128,-1,5
 378 199 378 199 378 250 c 2,6,-1
 378 933 l 2,7,8
 378 965 378 965 377 994.5 c 128,-1,9
 376 1024 376 1024 366.5 1045.5 c 128,-1,10
 357 1067 357 1067 337.5 1080 c 128,-1,11
 318 1093 318 1093 282 1093 c 0,12,13
 260 1093 260 1093 230 1086 c 128,-1,14
 200 1079 200 1079 162 1061 c 1,15,-1
 133 1133 l 1,16,-1
 589 1357 l 1,17,-1
 667 1357 l 1,18,-1
 667 250 l 2,19,20
 667 199 667 199 674.5 166 c 128,-1,21
 682 133 682 133 703.5 113.5 c 128,-1,22
 725 94 725 94 763 86 c 128,-1,23
 801 78 801 78 860 78 c 1,24,-1
 860 0 l 1,25,-1
 162 0 l 1,0,-1
EndSplineSet
Substitution2: "Single Substitution lookup 47 subtable" one.Small
Substitution2: "Single Substitution lookup 46 subtable" one.Medium
EndChar

StartChar: two
Encoding: 50 50 21
Width: 1022
GlyphClass: 2
Flags: W
LayerCount: 2
Fore
SplineSet
829 0 m 1,0,-1
 71 0 l 1,1,-1
 71 78 l 1,2,3
 201 224 201 224 299.5 335 c 128,-1,4
 398 446 398 446 464 541 c 128,-1,5
 530 636 530 636 564 724 c 128,-1,6
 598 812 598 812 598 912 c 0,7,8
 598 961 598 961 581.5 1001 c 128,-1,9
 565 1041 565 1041 536.5 1068.5 c 128,-1,10
 508 1096 508 1096 470 1111 c 128,-1,11
 432 1126 432 1126 387 1126 c 0,12,13
 299 1126 299 1126 238.5 1079.5 c 128,-1,14
 178 1033 178 1033 146 932 c 1,15,-1
 66 932 l 1,16,17
 82 1015 82 1015 114 1092 c 128,-1,18
 146 1169 146 1169 196.5 1228 c 128,-1,19
 247 1287 247 1287 317 1322 c 128,-1,20
 387 1357 387 1357 481 1357 c 0,21,22
 567 1357 567 1357 638.5 1328.5 c 128,-1,23
 710 1300 710 1300 760.5 1252 c 128,-1,24
 811 1204 811 1204 839 1141 c 128,-1,25
 867 1078 867 1078 867 1009 c 0,26,27
 867 925 867 925 845.5 853.5 c 128,-1,28
 824 782 824 782 789 720 c 128,-1,29
 754 658 754 658 710 603.5 c 128,-1,30
 666 549 666 549 620 497 c 0,31,32
 556 424 556 424 488.5 368 c 128,-1,33
 421 312 421 312 363 256 c 1,34,-1
 604 256 l 2,35,36
 651 256 651 256 694.5 260.5 c 128,-1,37
 738 265 738 265 774.5 278.5 c 128,-1,38
 811 292 811 292 840.5 317.5 c 128,-1,39
 870 343 870 343 889 385 c 1,40,-1
 967 385 l 1,41,-1
 829 0 l 1,0,-1
EndSplineSet
Substitution2: "Single Substitution lookup 47 subtable" two.Small
Substitution2: "Single Substitution lookup 46 subtable" two.Medium
EndChar

StartChar: three
Encoding: 51 51 22
Width: 1022
GlyphClass: 2
Flags: W
LayerCount: 2
Fore
SplineSet
918 465 m 0,0,1
 918 357 918 357 877 267 c 128,-1,2
 836 177 836 177 762.5 111 c 128,-1,3
 689 45 689 45 589.5 8 c 128,-1,4
 490 -29 490 -29 373 -29 c 0,5,6
 322 -29 322 -29 267.5 -22.5 c 128,-1,7
 213 -16 213 -16 167 1 c 128,-1,8
 121 18 121 18 91.5 48 c 128,-1,9
 62 78 62 78 62 123 c 256,10,11
 62 168 62 168 89 203 c 128,-1,12
 116 238 116 238 172 238 c 0,13,14
 214 238 214 238 246 216.5 c 128,-1,15
 278 195 278 195 312.5 168.5 c 128,-1,16
 347 142 347 142 390 120.5 c 128,-1,17
 433 99 433 99 495 99 c 0,18,19
 573 99 573 99 621 146.5 c 128,-1,20
 669 194 669 194 669 272 c 0,21,22
 669 353 669 353 641.5 419 c 128,-1,23
 614 485 614 485 562.5 533.5 c 128,-1,24
 511 582 511 582 438 611.5 c 128,-1,25
 365 641 365 641 274 649 c 1,26,-1
 274 727 l 1,27,28
 336 732 336 732 393 748 c 128,-1,29
 450 764 450 764 493 792.5 c 128,-1,30
 536 821 536 821 562 863.5 c 128,-1,31
 588 906 588 906 588 962 c 0,32,33
 588 1004 588 1004 573 1040 c 128,-1,34
 558 1076 558 1076 531 1103 c 128,-1,35
 504 1130 504 1130 468.5 1145.5 c 128,-1,36
 433 1161 433 1161 391 1161 c 0,37,38
 356 1161 356 1161 323 1147 c 128,-1,39
 290 1133 290 1133 260.5 1110 c 128,-1,40
 231 1087 231 1087 205 1055.5 c 128,-1,41
 179 1024 179 1024 160 989 c 1,42,-1
 99 1015 l 1,43,44
 128 1077 128 1077 163.5 1139 c 128,-1,45
 199 1201 199 1201 248.5 1249 c 128,-1,46
 298 1297 298 1297 363.5 1327 c 128,-1,47
 429 1357 429 1357 517 1357 c 0,48,49
 579 1357 579 1357 640 1338 c 128,-1,50
 701 1319 701 1319 747.5 1283.5 c 128,-1,51
 794 1248 794 1248 823.5 1196.5 c 128,-1,52
 853 1145 853 1145 853 1080 c 0,53,54
 853 1035 853 1035 839 995 c 128,-1,55
 825 955 825 955 802 921.5 c 128,-1,56
 779 888 779 888 747.5 860.5 c 128,-1,57
 716 833 716 833 681 811 c 1,58,59
 728 790 728 790 770 760 c 128,-1,60
 812 730 812 730 845.5 688 c 128,-1,61
 879 646 879 646 898.5 590.5 c 128,-1,62
 918 535 918 535 918 465 c 0,0,1
EndSplineSet
Substitution2: "Single Substitution lookup 47 subtable" three.Small
Substitution2: "Single Substitution lookup 46 subtable" three.Medium
EndChar

StartChar: four
Encoding: 52 52 23
Width: 1022
GlyphClass: 2
Flags: W
LayerCount: 2
Fore
SplineSet
837 299 m 1,0,-1
 837 0 l 1,1,-1
 568 0 l 1,2,-1
 568 299 l 1,3,-1
 34 299 l 1,4,-1
 34 502 l 1,5,-1
 630 1357 l 1,6,-1
 837 1357 l 1,7,-1
 837 502 l 1,8,-1
 983 502 l 1,9,-1
 983 299 l 1,10,-1
 837 299 l 1,0,-1
568 1050 m 1,11,-1
 181 502 l 1,12,-1
 568 502 l 1,13,-1
 568 1050 l 1,11,-1
EndSplineSet
Substitution2: "Single Substitution lookup 47 subtable" four.Small
Substitution2: "Single Substitution lookup 46 subtable" four.Medium
EndChar

StartChar: five
Encoding: 53 53 24
Width: 1022
GlyphClass: 2
Flags: W
LayerCount: 2
Fore
SplineSet
866 1076 m 1,0,-1
 395 1076 l 1,1,-1
 343 944 l 1,2,3
 463 943 463 943 567 914.5 c 128,-1,4
 671 886 671 886 747 832.5 c 128,-1,5
 823 779 823 779 866.5 697.5 c 128,-1,6
 910 616 910 616 910 507 c 0,7,8
 910 394 910 394 863 296 c 128,-1,9
 816 198 816 198 739 125.5 c 128,-1,10
 662 53 662 53 561.5 12 c 128,-1,11
 461 -29 461 -29 356 -29 c 0,12,13
 305 -29 305 -29 252 -20.5 c 128,-1,14
 199 -12 199 -12 155.5 9.5 c 128,-1,15
 112 31 112 31 83.5 66 c 128,-1,16
 55 101 55 101 55 155 c 0,17,18
 55 174 55 174 62 194 c 128,-1,19
 69 214 69 214 83 230.5 c 128,-1,20
 97 247 97 247 118.5 257.5 c 128,-1,21
 140 268 140 268 170 268 c 0,22,23
 217 268 217 268 251.5 243 c 128,-1,24
 286 218 286 218 322.5 189 c 128,-1,25
 359 160 359 160 405 135 c 128,-1,26
 451 110 451 110 521 110 c 0,27,28
 555 110 555 110 587.5 131 c 128,-1,29
 620 152 620 152 644.5 183 c 128,-1,30
 669 214 669 214 684 250.5 c 128,-1,31
 699 287 699 287 699 318 c 0,32,33
 699 419 699 419 650.5 491 c 128,-1,34
 602 563 602 563 518.5 608.5 c 128,-1,35
 435 654 435 654 324 675.5 c 128,-1,36
 213 697 213 697 90 697 c 1,37,-1
 369 1328 l 1,38,-1
 966 1328 l 1,39,-1
 866 1076 l 1,0,-1
EndSplineSet
Substitution2: "Single Substitution lookup 47 subtable" five.Small
Substitution2: "Single Substitution lookup 46 subtable" five.Medium
EndChar

StartChar: six
Encoding: 54 54 25
Width: 1022
GlyphClass: 2
Flags: W
LayerCount: 2
Fore
SplineSet
950 1280 m 1,0,1
 819 1270 819 1270 724 1222.5 c 128,-1,2
 629 1175 629 1175 563 1106 c 128,-1,3
 497 1037 497 1037 457 954 c 128,-1,4
 417 871 417 871 398 790 c 1,5,6
 482 847 482 847 599 847 c 0,7,8
 682 847 682 847 746 814.5 c 128,-1,9
 810 782 810 782 854 728.5 c 128,-1,10
 898 675 898 675 921 604 c 128,-1,11
 944 533 944 533 944 458 c 0,12,13
 944 363 944 363 914.5 275 c 128,-1,14
 885 187 885 187 830 119.5 c 128,-1,15
 775 52 775 52 693.5 11.5 c 128,-1,16
 612 -29 612 -29 508 -29 c 0,17,18
 407 -29 407 -29 327 20 c 128,-1,19
 247 69 247 69 191 146.5 c 128,-1,20
 135 224 135 224 106 320 c 128,-1,21
 77 416 77 416 77 512 c 0,22,23
 77 622 77 622 103.5 727.5 c 128,-1,24
 130 833 130 833 180.5 927.5 c 128,-1,25
 231 1022 231 1022 305.5 1100.5 c 128,-1,26
 380 1179 380 1179 474 1236 c 128,-1,27
 568 1293 568 1293 680.5 1325 c 128,-1,28
 793 1357 793 1357 923 1357 c 2,29,-1
 950 1357 l 1,30,-1
 950 1280 l 1,0,1
667 335 m 0,31,32
 667 405 667 405 659 473.5 c 128,-1,33
 651 542 651 542 631.5 596 c 128,-1,34
 612 650 612 650 577.5 682.5 c 128,-1,35
 543 715 543 715 490 715 c 0,36,37
 472 715 472 715 454.5 710.5 c 128,-1,38
 437 706 437 706 421 699 c 0,39,40
 403 693 403 693 386 685 c 1,41,42
 383 645 383 645 382 610 c 0,43,44
 381 580 381 580 380.5 548.5 c 128,-1,45
 380 517 380 517 380 499 c 0,46,47
 380 381 380 381 394 297.5 c 128,-1,48
 408 214 408 214 431.5 162 c 128,-1,49
 455 110 455 110 487 86 c 128,-1,50
 519 62 519 62 554 62 c 0,51,52
 575 62 575 62 595 76 c 128,-1,53
 615 90 615 90 631 121.5 c 128,-1,54
 647 153 647 153 657 205 c 128,-1,55
 667 257 667 257 667 335 c 0,31,32
EndSplineSet
Substitution2: "Single Substitution lookup 47 subtable" six.Small
Substitution2: "Single Substitution lookup 46 subtable" six.Medium
EndChar

StartChar: seven
Encoding: 55 55 26
Width: 1022
GlyphClass: 2
Flags: W
LayerCount: 2
Fore
SplineSet
499 -29 m 1,0,-1
 346 -29 l 1,1,-1
 708 1070 l 1,2,-1
 411 1070 l 2,3,4
 343 1070 343 1070 303.5 1064 c 128,-1,5
 264 1058 264 1058 236.5 1040 c 128,-1,6
 209 1022 209 1022 187 987.5 c 128,-1,7
 165 953 165 953 131 896 c 1,8,-1
 57 918 l 1,9,-1
 225 1328 l 1,10,-1
 927 1328 l 1,11,-1
 927 1250 l 1,12,-1
 499 -29 l 1,0,-1
EndSplineSet
Substitution2: "Single Substitution lookup 47 subtable" seven.Small
Substitution2: "Single Substitution lookup 46 subtable" seven.Medium
EndChar

StartChar: eight
Encoding: 56 56 27
Width: 1022
GlyphClass: 2
Flags: W
LayerCount: 2
Fore
SplineSet
944 352 m 0,0,1
 944 268 944 268 910 198.5 c 128,-1,2
 876 129 876 129 816 78 c 128,-1,3
 756 27 756 27 673.5 -1 c 128,-1,4
 591 -29 591 -29 494 -29 c 0,5,6
 404 -29 404 -29 328 -6 c 128,-1,7
 252 17 252 17 197 60.5 c 128,-1,8
 142 104 142 104 110.5 166.5 c 128,-1,9
 79 229 79 229 79 307 c 0,10,11
 79 433 79 433 148 521.5 c 128,-1,12
 217 610 217 610 330 660 c 1,13,14
 277 703 277 703 234.5 741 c 128,-1,15
 192 779 192 779 163 819 c 128,-1,16
 134 859 134 859 118.5 906 c 128,-1,17
 103 953 103 953 103 1014 c 0,18,19
 103 1088 103 1088 134.5 1149.5 c 128,-1,20
 166 1211 166 1211 221.5 1256 c 128,-1,21
 277 1301 277 1301 351.5 1326.5 c 128,-1,22
 426 1352 426 1352 512 1352 c 0,23,24
 612 1352 612 1352 689 1328.5 c 128,-1,25
 766 1305 766 1305 817 1266 c 128,-1,26
 868 1227 868 1227 895 1177 c 128,-1,27
 922 1127 922 1127 922 1075 c 0,28,29
 922 963 922 963 860.5 888.5 c 128,-1,30
 799 814 799 814 701 760 c 1,31,32
 753 721 753 721 797.5 678.5 c 128,-1,33
 842 636 842 636 874.5 586.5 c 128,-1,34
 907 537 907 537 925.5 478.5 c 128,-1,35
 944 420 944 420 944 352 c 0,0,1
693 1080 m 0,36,37
 693 1123 693 1123 680 1161.5 c 128,-1,38
 667 1200 667 1200 644 1229 c 128,-1,39
 621 1258 621 1258 589.5 1275 c 128,-1,40
 558 1292 558 1292 521 1292 c 0,41,42
 487 1292 487 1292 459.5 1278.5 c 128,-1,43
 432 1265 432 1265 410.5 1241.5 c 128,-1,44
 389 1218 389 1218 377 1187.5 c 128,-1,45
 365 1157 365 1157 365 1124 c 0,46,47
 365 1066 365 1066 388.5 1020 c 128,-1,48
 412 974 412 974 446.5 937.5 c 128,-1,49
 481 901 481 901 520.5 873.5 c 128,-1,50
 560 846 560 846 594 828 c 1,51,52
 636 871 636 871 664.5 934.5 c 128,-1,53
 693 998 693 998 693 1080 c 0,36,37
678 248 m 0,54,55
 678 304 678 304 657.5 351 c 128,-1,56
 637 398 637 398 602 439.5 c 128,-1,57
 567 481 567 481 520.5 518.5 c 128,-1,58
 474 556 474 556 424 595 c 1,59,60
 397 572 397 572 378.5 537.5 c 128,-1,61
 360 503 360 503 349 464 c 128,-1,62
 338 425 338 425 333 384 c 128,-1,63
 328 343 328 343 328 307 c 0,64,65
 328 258 328 258 339 213.5 c 128,-1,66
 350 169 350 169 372.5 136 c 128,-1,67
 395 103 395 103 430 82.5 c 128,-1,68
 465 62 465 62 512 62 c 0,69,70
 550 62 550 62 581 79 c 128,-1,71
 612 96 612 96 633.5 122.5 c 128,-1,72
 655 149 655 149 666.5 182.5 c 128,-1,73
 678 216 678 216 678 248 c 0,54,55
EndSplineSet
Substitution2: "Single Substitution lookup 47 subtable" eight.Small
Substitution2: "Single Substitution lookup 46 subtable" eight.Medium
EndChar

StartChar: nine
Encoding: 57 57 28
Width: 1022
GlyphClass: 2
Flags: W
LayerCount: 2
Fore
SplineSet
959 816 m 0,0,1
 959 651 959 651 900 498.5 c 128,-1,2
 841 346 841 346 732 229 c 128,-1,3
 623 112 623 112 467.5 41.5 c 128,-1,4
 312 -29 312 -29 120 -29 c 2,5,-1
 87 -29 l 1,6,-1
 87 49 l 1,7,8
 214 57 214 57 307 100 c 128,-1,9
 400 143 400 143 466 210 c 128,-1,10
 532 277 532 277 573.5 361.5 c 128,-1,11
 615 446 615 446 640 538 c 1,12,13
 554 481 554 481 438 481 c 0,14,15
 355 481 355 481 290.5 513.5 c 128,-1,16
 226 546 226 546 182 600 c 128,-1,17
 138 654 138 654 115 724 c 128,-1,18
 92 794 92 794 92 871 c 0,19,20
 92 966 92 966 117.5 1053.5 c 128,-1,21
 143 1141 143 1141 196.5 1208.5 c 128,-1,22
 250 1276 250 1276 332.5 1316.5 c 128,-1,23
 415 1357 415 1357 529 1357 c 0,24,25
 630 1357 630 1357 710 1308.5 c 128,-1,26
 790 1260 790 1260 845.5 1182.5 c 128,-1,27
 901 1105 901 1105 930 1008.5 c 128,-1,28
 959 912 959 912 959 816 c 0,0,1
660 820 m 0,29,30
 660 933 660 933 646.5 1017 c 128,-1,31
 633 1101 633 1101 609 1156 c 128,-1,32
 585 1211 585 1211 552.5 1238.5 c 128,-1,33
 520 1266 520 1266 482 1266 c 0,34,35
 461 1266 461 1266 441 1252.5 c 128,-1,36
 421 1239 421 1239 405.5 1207 c 128,-1,37
 390 1175 390 1175 380 1123 c 128,-1,38
 370 1071 370 1071 370 993 c 0,39,40
 370 912 370 912 381.5 842.5 c 128,-1,41
 393 773 393 773 415.5 722.5 c 128,-1,42
 438 672 438 672 470.5 643 c 128,-1,43
 503 614 503 614 546 614 c 0,44,45
 563 614 563 614 581 617.5 c 128,-1,46
 599 621 599 621 615 628 c 0,47,48
 633 634 633 634 650 643 c 1,49,50
 653 677 653 677 655 711 c 0,51,52
 658 740 658 740 659 769 c 128,-1,53
 660 798 660 798 660 820 c 0,29,30
EndSplineSet
Substitution2: "Single Substitution lookup 47 subtable" nine.Small
Substitution2: "Single Substitution lookup 46 subtable" nine.Medium
EndChar

StartChar: colon
Encoding: 58 58 29
Width: 911
GlyphClass: 2
Flags: W
LayerCount: 2
Fore
SplineSet
619 780 m 256,0,1
 619 746 619 746 606 717 c 128,-1,2
 593 688 593 688 571 665.5 c 128,-1,3
 549 643 549 643 519 630 c 128,-1,4
 489 617 489 617 455 617 c 256,5,6
 421 617 421 617 392 630 c 128,-1,7
 363 643 363 643 340.5 665.5 c 128,-1,8
 318 688 318 688 305 717 c 128,-1,9
 292 746 292 746 292 780 c 256,10,11
 292 814 292 814 305 843 c 128,-1,12
 318 872 318 872 340.5 894 c 128,-1,13
 363 916 363 916 392 929 c 128,-1,14
 421 942 421 942 455 942 c 256,15,16
 489 942 489 942 519 929 c 128,-1,17
 549 916 549 916 571 894 c 128,-1,18
 593 872 593 872 606 843 c 128,-1,19
 619 814 619 814 619 780 c 256,0,1
619 139 m 256,20,21
 619 105 619 105 606 76 c 128,-1,22
 593 47 593 47 571 25 c 128,-1,23
 549 3 549 3 519 -10 c 128,-1,24
 489 -23 489 -23 455 -23 c 256,25,26
 421 -23 421 -23 392 -10 c 128,-1,27
 363 3 363 3 340.5 25 c 128,-1,28
 318 47 318 47 305 76 c 128,-1,29
 292 105 292 105 292 139 c 256,30,31
 292 173 292 173 305 202 c 128,-1,32
 318 231 318 231 340.5 253.5 c 128,-1,33
 363 276 363 276 392 288 c 128,-1,34
 421 300 421 300 455 300 c 256,35,36
 489 300 489 300 519 288 c 128,-1,37
 549 276 549 276 571 253.5 c 128,-1,38
 593 231 593 231 606 202 c 128,-1,39
 619 173 619 173 619 139 c 256,20,21
EndSplineSet
EndChar

StartChar: semicolon
Encoding: 59 59 30
Width: 600
GlyphClass: 2
Flags: W
LayerCount: 2
Fore
SplineSet
498 780 m 256,0,1
 498 746 498 746 485 717 c 128,-1,2
 472 688 472 688 450 665.5 c 128,-1,3
 428 643 428 643 398.5 630 c 128,-1,4
 369 617 369 617 335 617 c 256,5,6
 301 617 301 617 272 630 c 128,-1,7
 243 643 243 643 221 665.5 c 128,-1,8
 199 688 199 688 186 717 c 128,-1,9
 173 746 173 746 173 780 c 256,10,11
 173 814 173 814 186 843 c 128,-1,12
 199 872 199 872 221 894 c 128,-1,13
 243 916 243 916 272.5 929 c 128,-1,14
 302 942 302 942 335 942 c 0,15,16
 369 942 369 942 398.5 929 c 128,-1,17
 428 916 428 916 450 894 c 128,-1,18
 472 872 472 872 485 843 c 128,-1,19
 498 814 498 814 498 780 c 256,0,1
523 56 m 0,20,21
 523 -21 523 -21 498.5 -86 c 128,-1,22
 474 -151 474 -151 430 -203 c 128,-1,23
 386 -255 386 -255 324.5 -292.5 c 128,-1,24
 263 -330 263 -330 187 -352 c 1,25,-1
 187 -309 l 1,26,27
 251 -283 251 -283 293 -245.5 c 128,-1,28
 335 -208 335 -208 359 -167.5 c 128,-1,29
 383 -127 383 -127 393 -89.5 c 128,-1,30
 403 -52 403 -52 403 -26 c 0,31,32
 403 -16 403 -16 399 -3.5 c 128,-1,33
 395 9 395 9 382 9 c 0,34,35
 370 9 370 9 356 -2 c 128,-1,36
 342 -13 342 -13 312 -13 c 0,37,38
 278 -13 278 -13 249 -2 c 128,-1,39
 220 9 220 9 197.5 29 c 128,-1,40
 175 49 175 49 162 77 c 128,-1,41
 149 105 149 105 149 139 c 256,42,43
 149 173 149 173 162 202 c 128,-1,44
 175 231 175 231 197.5 253.5 c 128,-1,45
 220 276 220 276 249 288 c 128,-1,46
 278 300 278 300 312 300 c 0,47,48
 355 300 355 300 393.5 284.5 c 128,-1,49
 432 269 432 269 460.5 238.5 c 128,-1,50
 489 208 489 208 506 162.5 c 128,-1,51
 523 117 523 117 523 56 c 0,20,21
EndSplineSet
EndChar

StartChar: less
Encoding: 60 60 31
Width: 1886
GlyphClass: 2
Flags: W
LayerCount: 2
Fore
SplineSet
364 519 m 1,0,-1
 364 640 l 1,1,-1
 1522 1084 l 1,2,-1
 1522 963 l 1,3,-1
 486 580 l 1,4,-1
 1522 195 l 1,5,-1
 1522 74 l 1,6,-1
 364 519 l 1,0,-1
EndSplineSet
EndChar

StartChar: equal
Encoding: 61 61 32
Width: 1185
GlyphClass: 2
Flags: W
LayerCount: 2
Fore
SplineSet
47 695 m 1,0,-1
 47 815 l 1,1,-1
 1133 815 l 1,2,-1
 1133 695 l 1,3,-1
 47 695 l 1,0,-1
47 344 m 1,4,-1
 47 464 l 1,5,-1
 1133 464 l 1,6,-1
 1133 344 l 1,7,-1
 47 344 l 1,4,-1
EndSplineSet
EndChar

StartChar: greater
Encoding: 62 62 33
Width: 1930
GlyphClass: 2
Flags: W
LayerCount: 2
Fore
SplineSet
386 75 m 1,0,-1
 386 195 l 1,1,-1
 1421 578 l 1,2,-1
 386 963 l 1,3,-1
 386 1083 l 1,4,-1
 1544 640 l 1,5,-1
 1544 520 l 1,6,-1
 386 75 l 1,0,-1
EndSplineSet
EndChar

StartChar: question
Encoding: 63 63 34
Width: 935
GlyphClass: 2
Flags: W
LayerCount: 2
Fore
SplineSet
857 1046 m 0,0,1
 857 988 857 988 829.5 933.5 c 128,-1,2
 802 879 802 879 760.5 826 c 128,-1,3
 719 773 719 773 671 721 c 128,-1,4
 623 669 623 669 581 616.5 c 128,-1,5
 539 564 539 564 512 509 c 128,-1,6
 485 454 485 454 485 395 c 1,7,-1
 407 395 l 1,8,9
 407 442 407 442 413 484 c 128,-1,10
 419 526 419 526 431 568 c 128,-1,11
 443 610 443 610 462 654 c 128,-1,12
 481 698 481 698 507 751 c 0,13,14
 547 833 547 833 562 900.5 c 128,-1,15
 577 968 577 968 577 1036 c 0,16,17
 577 1267 577 1267 413 1267 c 0,18,19
 390 1267 390 1267 367 1261.5 c 128,-1,20
 344 1256 344 1256 326.5 1246 c 128,-1,21
 309 1236 309 1236 299 1222.5 c 128,-1,22
 289 1209 289 1209 289 1192 c 0,23,24
 289 1178 289 1178 298 1156.5 c 128,-1,25
 307 1135 307 1135 318.5 1109.5 c 128,-1,26
 330 1084 330 1084 339 1056.5 c 128,-1,27
 348 1029 348 1029 348 1003 c 0,28,29
 348 958 348 958 319.5 925 c 128,-1,30
 291 892 291 892 242 892 c 0,31,32
 174 892 174 892 132.5 933.5 c 128,-1,33
 91 975 91 975 91 1040 c 0,34,35
 91 1092 91 1092 111 1148 c 128,-1,36
 131 1204 131 1204 177.5 1250.5 c 128,-1,37
 224 1297 224 1297 299 1327 c 128,-1,38
 374 1357 374 1357 484 1357 c 0,39,40
 561 1357 561 1357 629 1339 c 128,-1,41
 697 1321 697 1321 747.5 1282.5 c 128,-1,42
 798 1244 798 1244 827.5 1185.5 c 128,-1,43
 857 1127 857 1127 857 1046 c 0,0,1
594 120 m 0,44,45
 594 90 594 90 581.5 62.5 c 128,-1,46
 569 35 569 35 549 15 c 128,-1,47
 529 -5 529 -5 501.5 -17 c 128,-1,48
 474 -29 474 -29 443 -29 c 256,49,50
 412 -29 412 -29 385.5 -17 c 128,-1,51
 359 -5 359 -5 338.5 15 c 128,-1,52
 318 35 318 35 306.5 62.5 c 128,-1,53
 295 90 295 90 295 120 c 0,54,55
 295 151 295 151 306.5 178 c 128,-1,56
 318 205 318 205 338.5 226 c 128,-1,57
 359 247 359 247 385.5 258.5 c 128,-1,58
 412 270 412 270 443 270 c 256,59,60
 474 270 474 270 501.5 258.5 c 128,-1,61
 529 247 529 247 549 226 c 128,-1,62
 569 205 569 205 581.5 178 c 128,-1,63
 594 151 594 151 594 120 c 0,44,45
EndSplineSet
EndChar

StartChar: at
Encoding: 64 64 35
Width: 1866
GlyphClass: 2
Flags: W
LayerCount: 2
Fore
SplineSet
1822 162 m 1,0,1
 1770 27 1770 27 1686.5 -83.5 c 128,-1,2
 1603 -194 1603 -194 1491.5 -272 c 128,-1,3
 1380 -350 1380 -350 1245 -392 c 128,-1,4
 1110 -434 1110 -434 955 -434 c 0,5,6
 776 -434 776 -434 618.5 -373.5 c 128,-1,7
 461 -313 461 -313 344 -200.5 c 128,-1,8
 227 -88 227 -88 159 70.5 c 128,-1,9
 91 229 91 229 91 425 c 0,10,11
 91 619 91 619 156.5 789 c 128,-1,12
 222 959 222 959 343.5 1085 c 128,-1,13
 465 1211 465 1211 640 1284 c 128,-1,14
 815 1357 815 1357 1033 1357 c 0,15,16
 1207 1357 1207 1357 1340 1306.5 c 128,-1,17
 1473 1256 1473 1256 1562.5 1167 c 128,-1,18
 1652 1078 1652 1078 1697.5 955.5 c 128,-1,19
 1743 833 1743 833 1743 689 c 0,20,21
 1743 554 1743 554 1700 429 c 128,-1,22
 1657 304 1657 304 1579 208.5 c 128,-1,23
 1501 113 1501 113 1393.5 56.5 c 128,-1,24
 1286 0 1286 0 1156 0 c 0,25,26
 1114 0 1114 0 1077.5 9.5 c 128,-1,27
 1041 19 1041 19 1014 40 c 128,-1,28
 987 61 987 61 971 95 c 128,-1,29
 955 129 955 129 955 177 c 0,30,31
 955 206 955 206 962.5 239 c 128,-1,32
 970 272 970 272 980 309 c 1,33,34
 945 252 945 252 908.5 197 c 128,-1,35
 872 142 872 142 831 98.5 c 128,-1,36
 790 55 790 55 742 27.5 c 128,-1,37
 694 0 694 0 636 0 c 0,38,39
 593 0 593 0 562.5 19.5 c 128,-1,40
 532 39 532 39 513 70 c 128,-1,41
 494 101 494 101 485 141 c 128,-1,42
 476 181 476 181 476 220 c 0,43,44
 476 304 476 304 498 390.5 c 128,-1,45
 520 477 520 477 557.5 557 c 128,-1,46
 595 637 595 637 646 708 c 128,-1,47
 697 779 697 779 753.5 831 c 128,-1,48
 810 883 810 883 869.5 913.5 c 128,-1,49
 929 944 929 944 987 944 c 0,50,51
 1031 944 1031 944 1057 925.5 c 128,-1,52
 1083 907 1083 907 1097 882.5 c 128,-1,53
 1111 858 1111 858 1115.5 833 c 128,-1,54
 1120 808 1120 808 1122 795 c 1,55,-1
 1158 907 l 1,56,-1
 1399 929 l 1,57,58
 1357 789 1357 789 1324.5 683 c 128,-1,59
 1292 577 1292 577 1268.5 498.5 c 128,-1,60
 1245 420 1245 420 1229 364.5 c 128,-1,61
 1213 309 1213 309 1203 269.5 c 128,-1,62
 1193 230 1193 230 1189 201.5 c 128,-1,63
 1185 173 1185 173 1185 149 c 0,64,65
 1185 120 1185 120 1206 95 c 128,-1,66
 1227 70 1227 70 1269 70 c 0,67,68
 1290 70 1290 70 1319.5 80.5 c 128,-1,69
 1349 91 1349 91 1384 112 c 128,-1,70
 1419 133 1419 133 1456 164 c 128,-1,71
 1493 195 1493 195 1529 237 c 0,72,73
 1561 276 1561 276 1590.5 324 c 128,-1,74
 1620 372 1620 372 1641 428.5 c 128,-1,75
 1662 485 1662 485 1674.5 550.5 c 128,-1,76
 1687 616 1687 616 1687 691 c 0,77,78
 1687 818 1687 818 1642 929 c 128,-1,79
 1597 1040 1597 1040 1516 1121 c 128,-1,80
 1435 1202 1435 1202 1320.5 1249 c 128,-1,81
 1206 1296 1206 1296 1066 1296 c 0,82,83
 865 1296 865 1296 703 1222 c 128,-1,84
 541 1148 541 1148 427 1022 c 128,-1,85
 313 896 313 896 252 730 c 128,-1,86
 191 564 191 564 191 380 c 0,87,88
 191 206 191 206 253 65.5 c 128,-1,89
 315 -75 315 -75 420 -173.5 c 128,-1,90
 525 -272 525 -272 666 -325 c 128,-1,91
 807 -378 807 -378 966 -378 c 0,92,93
 1106 -378 1106 -378 1232 -338.5 c 128,-1,94
 1358 -299 1358 -299 1461.5 -227.5 c 128,-1,95
 1565 -156 1565 -156 1642.5 -56.5 c 128,-1,96
 1720 43 1720 43 1763 162 c 1,97,-1
 1822 162 l 1,0,1
1078 740 m 0,98,99
 1078 762 1078 762 1074.5 785 c 128,-1,100
 1071 808 1071 808 1063 827.5 c 128,-1,101
 1055 847 1055 847 1042 860 c 128,-1,102
 1029 873 1029 873 1010 873 c 0,103,104
 975 873 975 873 940.5 839 c 128,-1,105
 906 805 906 805 875 749.5 c 128,-1,106
 844 694 844 694 817 626 c 128,-1,107
 790 558 790 558 770.5 490 c 128,-1,108
 751 422 751 422 740 363.5 c 128,-1,109
 729 305 729 305 729 269 c 0,110,111
 729 255 729 255 732.5 239.5 c 128,-1,112
 736 224 736 224 742.5 211 c 128,-1,113
 749 198 749 198 758.5 190 c 128,-1,114
 768 182 768 182 780 182 c 0,115,116
 806 182 806 182 838.5 206.5 c 128,-1,117
 871 231 871 231 904 274 c 128,-1,118
 937 317 937 317 968.5 373 c 128,-1,119
 1000 429 1000 429 1024 490.5 c 128,-1,120
 1048 552 1048 552 1063 617 c 128,-1,121
 1078 682 1078 682 1078 740 c 0,98,99
EndSplineSet
EndChar

StartChar: A
Encoding: 65 65 36
Width: 1450
GlyphClass: 2
Flags: W
LayerCount: 2
Fore
SplineSet
773 0 m 1,0,-1
 773 78 l 1,1,2
 860 78 860 78 894.5 92.5 c 128,-1,3
 929 107 929 107 929 140 c 0,4,5
 929 148 929 148 926.5 163 c 128,-1,6
 924 178 924 178 914.5 207.5 c 128,-1,7
 905 237 905 237 886.5 284 c 128,-1,8
 868 331 868 331 836 404 c 1,9,-1
 411 404 l 1,10,11
 389 349 389 349 372 304 c 0,12,13
 358 265 358 265 345.5 229.5 c 128,-1,14
 333 194 333 194 333 183 c 0,15,16
 333 134 333 134 375 109 c 128,-1,17
 417 84 417 84 510 78 c 1,18,-1
 510 0 l 1,19,-1
 16 0 l 1,20,-1
 16 78 l 1,21,22
 50 84 50 84 76.5 94 c 128,-1,23
 103 104 103 104 127 125.5 c 128,-1,24
 151 147 151 147 173 184 c 128,-1,25
 195 221 195 221 220 279 c 2,26,-1
 663 1357 l 1,27,-1
 741 1357 l 1,28,-1
 1234 235 l 2,29,30
 1253 191 1253 191 1277.5 162 c 128,-1,31
 1302 133 1302 133 1329.5 114 c 128,-1,32
 1357 95 1357 95 1385 87 c 128,-1,33
 1413 79 1413 79 1439 78 c 1,34,-1
 1439 0 l 1,35,-1
 773 0 l 1,0,-1
610 910 m 1,36,-1
 452 519 l 1,37,-1
 785 519 l 1,38,-1
 610 910 l 1,36,-1
EndSplineSet
EndChar

StartChar: B
Encoding: 66 66 37
Width: 1340
GlyphClass: 2
Flags: W
LayerCount: 2
Fore
SplineSet
1269 363 m 0,0,1
 1269 273 1269 273 1226.5 205.5 c 128,-1,2
 1184 138 1184 138 1114.5 91.5 c 128,-1,3
 1045 45 1045 45 955.5 22.5 c 128,-1,4
 866 0 866 0 772 0 c 2,5,-1
 40 0 l 1,6,-1
 40 78 l 1,7,8
 100 78 100 78 137 87.5 c 128,-1,9
 174 97 174 97 194 118.5 c 128,-1,10
 214 140 214 140 221.5 176 c 128,-1,11
 229 212 229 212 229 263 c 2,12,-1
 229 1066 l 2,13,14
 229 1117 229 1117 221.5 1152.5 c 128,-1,15
 214 1188 214 1188 194 1209.5 c 128,-1,16
 174 1231 174 1231 137 1240.5 c 128,-1,17
 100 1250 100 1250 40 1250 c 1,18,-1
 40 1328 l 1,19,-1
 781 1328 l 2,20,21
 894 1328 894 1328 974.5 1298.5 c 128,-1,22
 1055 1269 1055 1269 1106 1223.5 c 128,-1,23
 1157 1178 1157 1178 1181 1123 c 128,-1,24
 1205 1068 1205 1068 1205 1018 c 0,25,26
 1205 967 1205 967 1195 921.5 c 128,-1,27
 1185 876 1185 876 1152 837 c 128,-1,28
 1119 798 1119 798 1057.5 765 c 128,-1,29
 996 732 996 732 890 706 c 1,30,31
 1090 666 1090 666 1179.5 579.5 c 128,-1,32
 1269 493 1269 493 1269 363 c 0,0,1
877 993 m 0,33,34
 877 1048 877 1048 863.5 1089 c 128,-1,35
 850 1130 850 1130 817.5 1157 c 128,-1,36
 785 1184 785 1184 732.5 1197.5 c 128,-1,37
 680 1211 680 1211 601 1211 c 0,38,39
 589 1211 589 1211 578 1210 c 128,-1,40
 567 1209 567 1209 558 1208 c 0,41,42
 548 1207 548 1207 537 1205 c 1,43,-1
 537 749 l 1,44,45
 547 748 547 748 558 747 c 0,46,47
 567 746 567 746 578 746 c 128,-1,48
 589 746 589 746 601 746 c 0,49,50
 741 746 741 746 809 813 c 128,-1,51
 877 880 877 880 877 993 c 0,33,34
923 354 m 0,52,53
 923 503 923 503 838 571.5 c 128,-1,54
 753 640 753 640 601 640 c 0,55,56
 589 640 589 640 578 639 c 128,-1,57
 567 638 567 638 558 637 c 0,58,59
 548 636 548 636 537 636 c 1,60,-1
 537 231 l 2,61,62
 537 161 537 161 563.5 138.5 c 128,-1,63
 590 116 590 116 645 116 c 0,64,65
 692 116 692 116 740.5 125 c 128,-1,66
 789 134 789 134 830 160 c 128,-1,67
 871 186 871 186 897 232.5 c 128,-1,68
 923 279 923 279 923 354 c 0,52,53
EndSplineSet
EndChar

StartChar: C
Encoding: 67 67 38
Width: 1450
GlyphClass: 2
Flags: W
LayerCount: 2
Fore
SplineSet
1373 322 m 1,0,1
 1342 270 1342 270 1295 208.5 c 128,-1,2
 1248 147 1248 147 1178.5 94.5 c 128,-1,3
 1109 42 1109 42 1014 6.5 c 128,-1,4
 919 -29 919 -29 794 -29 c 0,5,6
 616 -29 616 -29 484 26.5 c 128,-1,7
 352 82 352 82 265 175 c 128,-1,8
 178 268 178 268 135 388 c 128,-1,9
 92 508 92 508 92 638 c 0,10,11
 92 725 92 725 111.5 812 c 128,-1,12
 131 899 131 899 169 978.5 c 128,-1,13
 207 1058 207 1058 264.5 1127.5 c 128,-1,14
 322 1197 322 1197 397.5 1248 c 128,-1,15
 473 1299 473 1299 568 1328 c 128,-1,16
 663 1357 663 1357 776 1357 c 0,17,18
 851 1357 851 1357 913.5 1342 c 128,-1,19
 976 1327 976 1327 1023.5 1309 c 128,-1,20
 1071 1291 1071 1291 1103 1276 c 128,-1,21
 1135 1261 1135 1261 1149 1261 c 0,22,23
 1170 1261 1170 1261 1181.5 1268.5 c 128,-1,24
 1193 1276 1193 1276 1200.5 1290 c 128,-1,25
 1208 1304 1208 1304 1212.5 1322 c 128,-1,26
 1217 1340 1217 1340 1223 1360 c 1,27,-1
 1299 1360 l 1,28,-1
 1328 847 l 1,29,-1
 1250 847 l 1,30,31
 1228 941 1228 941 1184 1015 c 128,-1,32
 1140 1089 1140 1089 1082 1140 c 128,-1,33
 1024 1191 1024 1191 956.5 1218 c 128,-1,34
 889 1245 889 1245 823 1245 c 0,35,36
 722 1245 722 1245 647.5 1197.5 c 128,-1,37
 573 1150 573 1150 525 1067.5 c 128,-1,38
 477 985 477 985 453.5 874.5 c 128,-1,39
 430 764 430 764 430 638 c 256,40,41
 430 512 430 512 461.5 410 c 128,-1,42
 493 308 493 308 549.5 236.5 c 128,-1,43
 606 165 606 165 684.5 126.5 c 128,-1,44
 763 88 763 88 859 88 c 0,45,46
 937 88 937 88 1003.5 114 c 128,-1,47
 1070 140 1070 140 1125 181 c 128,-1,48
 1180 222 1180 222 1223.5 274 c 128,-1,49
 1267 326 1267 326 1301 378 c 1,50,-1
 1373 322 l 1,0,1
EndSplineSet
EndChar

StartChar: D
Encoding: 68 68 39
Width: 1436
GlyphClass: 2
Flags: W
LayerCount: 2
Fore
SplineSet
1354 664 m 0,0,1
 1354 522 1354 522 1309.5 400.5 c 128,-1,2
 1265 279 1265 279 1179.5 190 c 128,-1,3
 1094 101 1094 101 970.5 50.5 c 128,-1,4
 847 0 847 0 691 0 c 2,5,-1
 27 0 l 1,6,-1
 27 78 l 1,7,8
 87 78 87 78 124 87.5 c 128,-1,9
 161 97 161 97 181 118.5 c 128,-1,10
 201 140 201 140 207.5 176 c 128,-1,11
 214 212 214 212 214 263 c 2,12,-1
 214 1066 l 2,13,14
 214 1117 214 1117 207.5 1152.5 c 128,-1,15
 201 1188 201 1188 181 1209.5 c 128,-1,16
 161 1231 161 1231 124 1240.5 c 128,-1,17
 87 1250 87 1250 27 1250 c 1,18,-1
 27 1328 l 1,19,-1
 691 1328 l 2,20,21
 847 1328 847 1328 970.5 1275.5 c 128,-1,22
 1094 1223 1094 1223 1179.5 1132.5 c 128,-1,23
 1265 1042 1265 1042 1309.5 921 c 128,-1,24
 1354 800 1354 800 1354 664 c 0,0,1
1001 664 m 0,25,26
 1001 759 1001 759 982.5 856.5 c 128,-1,27
 964 954 964 954 918 1033.5 c 128,-1,28
 872 1113 872 1113 794.5 1163 c 128,-1,29
 717 1213 717 1213 601 1213 c 0,30,31
 583 1213 583 1213 569 1212 c 128,-1,32
 555 1211 555 1211 545 1210 c 0,33,34
 533 1209 533 1209 524 1208 c 1,35,-1
 524 133 l 1,36,37
 541 123 541 123 574 118 c 128,-1,38
 607 113 607 113 649 113 c 0,39,40
 752 113 752 113 819 162 c 128,-1,41
 886 211 886 211 926.5 289.5 c 128,-1,42
 967 368 967 368 984 466.5 c 128,-1,43
 1001 565 1001 565 1001 664 c 0,25,26
EndSplineSet
EndChar

StartChar: E
Encoding: 69 69 40
Width: 1319
GlyphClass: 2
Flags: W
LayerCount: 2
Fore
SplineSet
1091 0 m 1,0,-1
 43 0 l 1,1,-1
 43 78 l 1,2,3
 105 78 105 78 142 87.5 c 128,-1,4
 179 97 179 97 198.5 121.5 c 128,-1,5
 218 146 218 146 224.5 186 c 128,-1,6
 231 226 231 226 231 287 c 2,7,-1
 231 1045 l 2,8,9
 231 1107 231 1107 226 1147 c 128,-1,10
 221 1187 221 1187 201.5 1210.5 c 128,-1,11
 182 1234 182 1234 144.5 1243 c 128,-1,12
 107 1252 107 1252 43 1252 c 1,13,-1
 43 1328 l 1,14,-1
 1104 1328 l 1,15,-1
 1119 971 l 1,16,-1
 1044 971 l 1,17,18
 1027 1035 1027 1035 1012 1081 c 128,-1,19
 997 1127 997 1127 971.5 1156 c 128,-1,20
 946 1185 946 1185 902.5 1199 c 128,-1,21
 859 1213 859 1213 785 1213 c 2,22,-1
 537 1213 l 1,23,-1
 537 733 l 1,24,-1
 656 733 l 2,25,26
 717 733 717 733 754.5 747.5 c 128,-1,27
 792 762 792 762 814.5 790.5 c 128,-1,28
 837 819 837 819 848 862 c 128,-1,29
 859 905 859 905 867 963 c 1,30,-1
 945 963 l 1,31,-1
 945 408 l 1,32,-1
 867 408 l 1,33,34
 859 466 859 466 848 506.5 c 128,-1,35
 837 547 837 547 815 572.5 c 128,-1,36
 793 598 793 598 756 609 c 128,-1,37
 719 620 719 620 656 620 c 2,38,-1
 537 620 l 1,39,-1
 537 274 l 2,40,41
 537 235 537 235 539 205 c 128,-1,42
 541 175 541 175 552 154.5 c 128,-1,43
 563 134 563 134 585 123 c 128,-1,44
 607 112 607 112 649 112 c 2,45,-1
 754 112 l 2,46,47
 841 112 841 112 898 128 c 128,-1,48
 955 144 955 144 997 177.5 c 128,-1,49
 1039 211 1039 211 1072.5 263 c 128,-1,50
 1106 315 1106 315 1146 385 c 1,51,-1
 1227 385 l 1,52,-1
 1091 0 l 1,0,-1
EndSplineSet
EndChar

StartChar: F
Encoding: 70 70 41
Width: 1220
GlyphClass: 2
Flags: W
LayerCount: 2
Fore
SplineSet
1042 971 m 1,0,1
 1025 1035 1025 1035 1011 1081 c 128,-1,2
 997 1127 997 1127 971 1156 c 128,-1,3
 945 1185 945 1185 901.5 1199 c 128,-1,4
 858 1213 858 1213 784 1213 c 2,5,-1
 537 1213 l 1,6,-1
 537 733 l 1,7,-1
 659 733 l 2,8,9
 719 733 719 733 756 747.5 c 128,-1,10
 793 762 793 762 815 790.5 c 128,-1,11
 837 819 837 819 848 862 c 128,-1,12
 859 905 859 905 867 963 c 1,13,-1
 945 963 l 1,14,-1
 945 408 l 1,15,-1
 866 408 l 1,16,17
 858 466 858 466 847.5 506.5 c 128,-1,18
 837 547 837 547 815.5 572.5 c 128,-1,19
 794 598 794 598 757 609 c 128,-1,20
 720 620 720 620 659 620 c 2,21,-1
 537 620 l 1,22,-1
 537 263 l 2,23,24
 537 215 537 215 543 179.5 c 128,-1,25
 549 144 549 144 568.5 122 c 128,-1,26
 588 100 588 100 625.5 89 c 128,-1,27
 663 78 663 78 727 78 c 1,28,-1
 727 0 l 1,29,-1
 40 0 l 1,30,-1
 40 78 l 1,31,32
 100 78 100 78 137 87.5 c 128,-1,33
 174 97 174 97 194 118.5 c 128,-1,34
 214 140 214 140 221.5 176 c 128,-1,35
 229 212 229 212 229 263 c 2,36,-1
 229 1066 l 2,37,38
 229 1117 229 1117 221.5 1152.5 c 128,-1,39
 214 1188 214 1188 194 1209.5 c 128,-1,40
 174 1231 174 1231 137 1240.5 c 128,-1,41
 100 1250 100 1250 40 1250 c 1,42,-1
 40 1328 l 1,43,-1
 1105 1328 l 1,44,-1
 1119 971 l 1,45,-1
 1042 971 l 1,0,1
EndSplineSet
EndChar

StartChar: G
Encoding: 71 71 42
Width: 1562
GlyphClass: 2
Flags: W
LayerCount: 2
Fore
SplineSet
1535 649 m 1,0,1
 1484 649 1484 649 1453 639 c 128,-1,2
 1422 629 1422 629 1405 607.5 c 128,-1,3
 1388 586 1388 586 1383 550.5 c 128,-1,4
 1378 515 1378 515 1378 464 c 2,5,-1
 1378 110 l 1,6,7
 1255 36 1255 36 1113.5 3.5 c 128,-1,8
 972 -29 972 -29 799 -29 c 0,9,10
 614 -29 614 -29 478 30.5 c 128,-1,11
 342 90 342 90 252 187.5 c 128,-1,12
 162 285 162 285 118.5 409.5 c 128,-1,13
 75 534 75 534 75 664 c 256,14,15
 75 794 75 794 125 919 c 128,-1,16
 175 1044 175 1044 269.5 1141.5 c 128,-1,17
 364 1239 364 1239 500 1298 c 128,-1,18
 636 1357 636 1357 807 1357 c 0,19,20
 886 1357 886 1357 952 1342 c 128,-1,21
 1018 1327 1018 1327 1069 1309 c 128,-1,22
 1120 1291 1120 1291 1157.5 1276 c 128,-1,23
 1195 1261 1195 1261 1218 1261 c 0,24,25
 1232 1261 1232 1261 1240.5 1273.5 c 128,-1,26
 1249 1286 1249 1286 1253 1302 c 128,-1,27
 1257 1318 1257 1318 1259 1334 c 128,-1,28
 1261 1350 1261 1350 1263 1360 c 1,29,-1
 1339 1360 l 1,30,-1
 1378 881 l 1,31,-1
 1301 881 l 1,32,33
 1278 969 1278 969 1233.5 1039 c 128,-1,34
 1189 1109 1189 1109 1131.5 1156.5 c 128,-1,35
 1074 1204 1074 1204 1006 1229 c 128,-1,36
 938 1254 938 1254 867 1254 c 0,37,38
 751 1254 751 1254 668.5 1209.5 c 128,-1,39
 586 1165 586 1165 532 1085.5 c 128,-1,40
 478 1006 478 1006 453 898 c 128,-1,41
 428 790 428 790 428 664 c 0,42,43
 428 552 428 552 446 446.5 c 128,-1,44
 464 341 464 341 511 257.5 c 128,-1,45
 558 174 558 174 640.5 124 c 128,-1,46
 723 74 723 74 851 74 c 0,47,48
 920 74 920 74 971 85.5 c 128,-1,49
 1022 97 1022 97 1070 131 c 1,50,-1
 1070 464 l 2,51,52
 1070 515 1070 515 1062.5 550.5 c 128,-1,53
 1055 586 1055 586 1036.5 607.5 c 128,-1,54
 1018 629 1018 629 984.5 639 c 128,-1,55
 951 649 951 649 899 649 c 1,56,-1
 899 727 l 1,57,-1
 1535 727 l 1,58,-1
 1535 649 l 1,0,1
EndSplineSet
EndChar

StartChar: H
Encoding: 72 72 43
Width: 1559
GlyphClass: 2
Flags: W
LayerCount: 2
Fore
SplineSet
840 0 m 1,0,-1
 840 78 l 1,1,2
 900 78 900 78 937 87.5 c 128,-1,3
 974 97 974 97 994.5 118.5 c 128,-1,4
 1015 140 1015 140 1021.5 176 c 128,-1,5
 1028 212 1028 212 1028 263 c 2,6,-1
 1028 601 l 1,7,-1
 534 601 l 1,8,-1
 534 263 l 2,9,10
 534 212 534 212 540.5 176 c 128,-1,11
 547 140 547 140 568 118.5 c 128,-1,12
 589 97 589 97 625.5 87.5 c 128,-1,13
 662 78 662 78 723 78 c 1,14,-1
 723 0 l 1,15,-1
 39 0 l 1,16,-1
 39 78 l 1,17,18
 99 78 99 78 136 87.5 c 128,-1,19
 173 97 173 97 193 118.5 c 128,-1,20
 213 140 213 140 219.5 176 c 128,-1,21
 226 212 226 212 226 263 c 2,22,-1
 226 1066 l 2,23,24
 226 1117 226 1117 219.5 1152.5 c 128,-1,25
 213 1188 213 1188 193 1209.5 c 128,-1,26
 173 1231 173 1231 136 1240.5 c 128,-1,27
 99 1250 99 1250 39 1250 c 1,28,-1
 39 1328 l 1,29,-1
 723 1328 l 1,30,-1
 723 1250 l 1,31,32
 662 1250 662 1250 625.5 1240.5 c 128,-1,33
 589 1231 589 1231 568 1209.5 c 128,-1,34
 547 1188 547 1188 540.5 1152.5 c 128,-1,35
 534 1117 534 1117 534 1066 c 2,36,-1
 534 724 l 1,37,-1
 1028 724 l 1,38,-1
 1028 1066 l 2,39,40
 1028 1117 1028 1117 1021.5 1152.5 c 128,-1,41
 1015 1188 1015 1188 994.5 1209.5 c 128,-1,42
 974 1231 974 1231 936.5 1240.5 c 128,-1,43
 899 1250 899 1250 840 1250 c 1,44,-1
 840 1328 l 1,45,-1
 1523 1328 l 1,46,-1
 1523 1250 l 1,47,48
 1463 1250 1463 1250 1426 1240.5 c 128,-1,49
 1389 1231 1389 1231 1369 1209.5 c 128,-1,50
 1349 1188 1349 1188 1342.5 1152.5 c 128,-1,51
 1336 1117 1336 1117 1336 1066 c 2,52,-1
 1336 263 l 2,53,54
 1336 212 1336 212 1342.5 176 c 128,-1,55
 1349 140 1349 140 1369 118.5 c 128,-1,56
 1389 97 1389 97 1426.5 87.5 c 128,-1,57
 1464 78 1464 78 1523 78 c 1,58,-1
 1523 0 l 1,59,-1
 840 0 l 1,0,-1
EndSplineSet
EndChar

StartChar: I
Encoding: 73 73 44
Width: 764
GlyphClass: 2
Flags: W
LayerCount: 2
Fore
SplineSet
40 0 m 1,0,-1
 40 78 l 1,1,2
 100 78 100 78 137 86 c 128,-1,3
 174 94 174 94 194 113.5 c 128,-1,4
 214 133 214 133 221.5 166 c 128,-1,5
 229 199 229 199 229 250 c 2,6,-1
 229 1066 l 2,7,8
 229 1117 229 1117 221.5 1152.5 c 128,-1,9
 214 1188 214 1188 194 1209.5 c 128,-1,10
 174 1231 174 1231 137 1240.5 c 128,-1,11
 100 1250 100 1250 40 1250 c 1,12,-1
 40 1328 l 1,13,-1
 724 1328 l 1,14,-1
 724 1250 l 1,15,16
 664 1250 664 1250 627 1240.5 c 128,-1,17
 590 1231 590 1231 570 1209.5 c 128,-1,18
 550 1188 550 1188 543.5 1152.5 c 128,-1,19
 537 1117 537 1117 537 1066 c 2,20,-1
 537 250 l 2,21,22
 537 199 537 199 543.5 166 c 128,-1,23
 550 133 550 133 570 113.5 c 128,-1,24
 590 94 590 94 627 86 c 128,-1,25
 664 78 664 78 724 78 c 1,26,-1
 724 0 l 1,27,-1
 40 0 l 1,0,-1
EndSplineSet
EndChar

StartChar: J
Encoding: 74 74 45
Width: 1003
GlyphClass: 2
Flags: W
LayerCount: 2
Fore
SplineSet
993 1250 m 1,0,1
 932 1250 932 1250 895.5 1240.5 c 128,-1,2
 859 1231 859 1231 838.5 1209.5 c 128,-1,3
 818 1188 818 1188 811.5 1152.5 c 128,-1,4
 805 1117 805 1117 805 1066 c 2,5,-1
 805 530 l 2,6,7
 805 371 805 371 763 265 c 128,-1,8
 721 159 721 159 656 93 c 128,-1,9
 591 27 591 27 512 -1 c 128,-1,10
 433 -29 433 -29 359 -29 c 256,11,12
 285 -29 285 -29 227.5 -12 c 128,-1,13
 170 5 170 5 130 35.5 c 128,-1,14
 90 66 90 66 69 106.5 c 128,-1,15
 48 147 48 147 48 194 c 0,16,17
 48 259 48 259 82.5 296 c 128,-1,18
 117 333 117 333 166 333 c 0,19,20
 217 333 217 333 245.5 314 c 128,-1,21
 274 295 274 295 289.5 266 c 128,-1,22
 305 237 305 237 313 203.5 c 128,-1,23
 321 170 321 170 331 141 c 128,-1,24
 341 112 341 112 357 93 c 128,-1,25
 373 74 373 74 406 74 c 0,26,27
 449 74 449 74 473 127.5 c 128,-1,28
 497 181 497 181 497 269 c 2,29,-1
 497 1066 l 2,30,31
 497 1117 497 1117 487.5 1152.5 c 128,-1,32
 478 1188 478 1188 455.5 1209.5 c 128,-1,33
 433 1231 433 1231 394 1240.5 c 128,-1,34
 355 1250 355 1250 295 1250 c 1,35,-1
 295 1328 l 1,36,-1
 993 1328 l 1,37,-1
 993 1250 l 1,0,1
EndSplineSet
EndChar

StartChar: K
Encoding: 75 75 46
Width: 1558
GlyphClass: 2
Flags: W
LayerCount: 2
Fore
SplineSet
851 0 m 1,0,-1
 851 78 l 1,1,2
 906 78 906 78 930.5 94 c 128,-1,3
 955 110 955 110 955 136 c 0,4,5
 955 153 955 153 949.5 173.5 c 128,-1,6
 944 194 944 194 925 216 c 2,7,-1
 572 590 l 1,8,-1
 537 560 l 1,9,-1
 537 263 l 2,10,11
 537 212 537 212 543.5 176 c 128,-1,12
 550 140 550 140 567.5 118.5 c 128,-1,13
 585 97 585 97 616 87.5 c 128,-1,14
 647 78 647 78 698 78 c 1,15,-1
 698 0 l 1,16,-1
 40 0 l 1,17,-1
 40 78 l 1,18,19
 100 78 100 78 137 87.5 c 128,-1,20
 174 97 174 97 194 118.5 c 128,-1,21
 214 140 214 140 221.5 176 c 128,-1,22
 229 212 229 212 229 263 c 2,23,-1
 229 1066 l 2,24,25
 229 1117 229 1117 221.5 1152.5 c 128,-1,26
 214 1188 214 1188 194 1209.5 c 128,-1,27
 174 1231 174 1231 137 1240.5 c 128,-1,28
 100 1250 100 1250 40 1250 c 1,29,-1
 40 1328 l 1,30,-1
 691 1328 l 1,31,-1
 691 1250 l 1,32,33
 642 1250 642 1250 612 1240.5 c 128,-1,34
 582 1231 582 1231 565.5 1209.5 c 128,-1,35
 549 1188 549 1188 543 1152.5 c 128,-1,36
 537 1117 537 1117 537 1066 c 2,37,-1
 537 754 l 1,38,39
 658 862 658 862 753 953 c 0,40,41
 793 992 793 992 832 1030 c 128,-1,42
 871 1068 871 1068 901 1101.5 c 128,-1,43
 931 1135 931 1135 949.5 1159 c 128,-1,44
 968 1183 968 1183 968 1193 c 0,45,46
 968 1232 968 1232 937.5 1241 c 128,-1,47
 907 1250 907 1250 841 1250 c 1,48,-1
 841 1328 l 1,49,-1
 1396 1328 l 1,50,-1
 1396 1250 l 1,51,52
 1352 1250 1352 1250 1320.5 1245.5 c 128,-1,53
 1289 1241 1289 1241 1264.5 1231.5 c 128,-1,54
 1240 1222 1240 1222 1217.5 1205.5 c 128,-1,55
 1195 1189 1195 1189 1166 1167 c 1,56,-1
 781 772 l 1,57,-1
 1293 239 l 2,58,59
 1337 192 1337 192 1379 161 c 128,-1,60
 1421 130 1421 130 1458 112 c 128,-1,61
 1495 94 1495 94 1526.5 86 c 128,-1,62
 1558 78 1558 78 1583 78 c 1,63,-1
 1583 0 l 1,64,-1
 851 0 l 1,0,-1
EndSplineSet
EndChar

StartChar: L
Encoding: 76 76 47
Width: 1319
GlyphClass: 2
Flags: W
LayerCount: 2
Fore
SplineSet
1149 0 m 1,0,-1
 39 0 l 1,1,-1
 39 78 l 1,2,3
 99 78 99 78 136 87.5 c 128,-1,4
 173 97 173 97 193 118.5 c 128,-1,5
 213 140 213 140 219.5 176 c 128,-1,6
 226 212 226 212 226 263 c 2,7,-1
 226 1066 l 2,8,9
 226 1117 226 1117 219.5 1152.5 c 128,-1,10
 213 1188 213 1188 193 1209.5 c 128,-1,11
 173 1231 173 1231 136 1240.5 c 128,-1,12
 99 1250 99 1250 39 1250 c 1,13,-1
 39 1328 l 1,14,-1
 737 1328 l 1,15,-1
 737 1250 l 1,16,17
 677 1250 677 1250 638 1240.5 c 128,-1,18
 599 1231 599 1231 575.5 1209.5 c 128,-1,19
 552 1188 552 1188 543 1152.5 c 128,-1,20
 534 1117 534 1117 534 1066 c 2,21,-1
 534 263 l 2,22,23
 534 219 534 219 540 190 c 128,-1,24
 546 161 546 161 568 145 c 128,-1,25
 590 129 590 129 633.5 122.5 c 128,-1,26
 677 116 677 116 751 116 c 2,27,-1
 854 116 l 2,28,29
 906 116 906 116 953.5 131.5 c 128,-1,30
 1001 147 1001 147 1045 186.5 c 128,-1,31
 1089 226 1089 226 1130.5 293.5 c 128,-1,32
 1172 361 1172 361 1213 465 c 1,33,-1
 1291 465 l 1,34,-1
 1149 0 l 1,0,-1
EndSplineSet
EndChar

StartChar: M
Encoding: 77 77 48
Width: 1886
GlyphClass: 2
Flags: W
LayerCount: 2
Fore
SplineSet
1139 0 m 1,0,-1
 1139 78 l 1,1,2
 1199 78 1199 78 1239.5 84 c 128,-1,3
 1280 90 1280 90 1305 106.5 c 128,-1,4
 1330 123 1330 123 1341 154.5 c 128,-1,5
 1352 186 1352 186 1352 237 c 2,6,-1
 1352 1091 l 1,7,-1
 868 0 l 1,8,-1
 806 0 l 1,9,-1
 326 1124 l 1,10,-1
 326 237 l 2,11,12
 326 182 326 182 338.5 150 c 128,-1,13
 351 118 351 118 375 102.5 c 128,-1,14
 399 87 399 87 435.5 82.5 c 128,-1,15
 472 78 472 78 520 78 c 1,16,-1
 520 0 l 1,17,-1
 14 0 l 1,18,-1
 14 78 l 1,19,20
 61 78 61 78 96 82.5 c 128,-1,21
 131 87 131 87 154.5 102.5 c 128,-1,22
 178 118 178 118 190.5 150 c 128,-1,23
 203 182 203 182 203 237 c 2,24,-1
 203 1079 l 2,25,26
 203 1130 203 1130 200.5 1163 c 128,-1,27
 198 1196 198 1196 182 1215.5 c 128,-1,28
 166 1235 166 1235 133 1242.5 c 128,-1,29
 100 1250 100 1250 40 1250 c 1,30,-1
 40 1328 l 1,31,-1
 576 1328 l 1,32,-1
 932 454 l 1,33,-1
 1330 1328 l 1,34,-1
 1850 1328 l 1,35,-1
 1850 1250 l 1,36,37
 1790 1250 1790 1250 1753 1242.5 c 128,-1,38
 1716 1235 1716 1235 1695 1215.5 c 128,-1,39
 1674 1196 1674 1196 1667 1163 c 128,-1,40
 1660 1130 1660 1130 1660 1079 c 2,41,-1
 1660 237 l 2,42,43
 1660 186 1660 186 1667 154.5 c 128,-1,44
 1674 123 1674 123 1695 106.5 c 128,-1,45
 1716 90 1716 90 1753 84 c 128,-1,46
 1790 78 1790 78 1850 78 c 1,47,-1
 1850 0 l 1,48,-1
 1139 0 l 1,0,-1
EndSplineSet
EndChar

StartChar: N
Encoding: 78 78 49
Width: 1403
GlyphClass: 2
Flags: W
LayerCount: 2
Fore
SplineSet
1367 1250 m 1,0,1
 1320 1250 1320 1250 1291 1244.5 c 128,-1,2
 1262 1239 1262 1239 1246 1223.5 c 128,-1,3
 1230 1208 1230 1208 1223.5 1180 c 128,-1,4
 1217 1152 1217 1152 1217 1107 c 2,5,-1
 1217 -21 l 1,6,-1
 1102 -21 l 1,7,-1
 326 983 l 1,8,-1
 326 221 l 2,9,10
 326 176 326 176 336 148 c 128,-1,11
 346 120 346 120 366.5 104 c 128,-1,12
 387 88 387 88 421 83 c 128,-1,13
 455 78 455 78 504 78 c 1,14,-1
 504 0 l 1,15,-1
 32 0 l 1,16,-1
 32 78 l 1,17,18
 79 78 79 78 111 83 c 128,-1,19
 143 88 143 88 164 104 c 128,-1,20
 185 120 185 120 194 147.5 c 128,-1,21
 203 175 203 175 203 221 c 2,22,-1
 203 1140 l 1,23,24
 173 1179 173 1179 154.5 1201 c 128,-1,25
 136 1223 136 1223 120 1234 c 128,-1,26
 104 1245 104 1245 84.5 1248.5 c 128,-1,27
 65 1252 65 1252 32 1252 c 1,28,-1
 32 1328 l 1,29,-1
 469 1328 l 1,30,-1
 1093 520 l 1,31,-1
 1093 1107 l 2,32,33
 1093 1151 1093 1151 1085.5 1179.5 c 128,-1,34
 1078 1208 1078 1208 1059.5 1223.5 c 128,-1,35
 1041 1239 1041 1239 1008.5 1244.5 c 128,-1,36
 976 1250 976 1250 928 1250 c 1,37,-1
 928 1328 l 1,38,-1
 1367 1328 l 1,39,-1
 1367 1250 l 1,40,-1
 1367 1250 l 1,0,1
EndSplineSet
EndChar

StartChar: O
Encoding: 79 79 50
Width: 1554
GlyphClass: 2
Flags: W
LayerCount: 2
Fore
SplineSet
1483 664 m 0,0,1
 1483 525 1483 525 1434.5 399 c 128,-1,2
 1386 273 1386 273 1295 177.5 c 128,-1,3
 1204 82 1204 82 1073 25.5 c 128,-1,4
 942 -31 942 -31 779 -31 c 0,5,6
 615 -31 615 -31 483.5 25 c 128,-1,7
 352 81 352 81 260.5 175.5 c 128,-1,8
 169 270 169 270 120 397 c 128,-1,9
 71 524 71 524 71 664 c 0,10,11
 71 808 71 808 124 935 c 128,-1,12
 177 1062 177 1062 271 1155.5 c 128,-1,13
 365 1249 365 1249 494.5 1303 c 128,-1,14
 624 1357 624 1357 776 1357 c 0,15,16
 940 1357 940 1357 1071 1302 c 128,-1,17
 1202 1247 1202 1247 1294 1152 c 128,-1,18
 1386 1057 1386 1057 1434.5 931.5 c 128,-1,19
 1483 806 1483 806 1483 664 c 0,0,1
1130 658 m 0,20,21
 1130 724 1130 724 1122.5 794 c 128,-1,22
 1115 864 1115 864 1099.5 931 c 128,-1,23
 1084 998 1084 998 1057.5 1057.5 c 128,-1,24
 1031 1117 1031 1117 991 1161.5 c 128,-1,25
 951 1206 951 1206 898 1232 c 128,-1,26
 845 1258 845 1258 776 1258 c 256,27,28
 707 1258 707 1258 654 1232 c 128,-1,29
 601 1206 601 1206 562 1162 c 128,-1,30
 523 1118 523 1118 497 1059.5 c 128,-1,31
 471 1001 471 1001 454.5 936 c 128,-1,32
 438 871 438 871 431.5 802.5 c 128,-1,33
 425 734 425 734 425 672 c 0,34,35
 425 615 425 615 431.5 547.5 c 128,-1,36
 438 480 438 480 454.5 413 c 128,-1,37
 471 346 471 346 497 284 c 128,-1,38
 523 222 523 222 562 174.5 c 128,-1,39
 601 127 601 127 653.5 98.5 c 128,-1,40
 706 70 706 70 776 70 c 0,41,42
 880 70 880 70 948 126.5 c 128,-1,43
 1016 183 1016 183 1056.5 270 c 128,-1,44
 1097 357 1097 357 1113.5 460.5 c 128,-1,45
 1130 564 1130 564 1130 658 c 0,20,21
EndSplineSet
MultipleSubs2: "Multiple Substitution lookup 39 subtable" O p e n T y p e
Ligature2: "Ligature Substitution lookup 38 subtable" U n k n o w n
EndChar

StartChar: P
Encoding: 80 80 51
Width: 1220
GlyphClass: 2
Flags: W
LayerCount: 2
Fore
SplineSet
1161 967 m 0,0,1
 1161 890 1161 890 1131.5 820.5 c 128,-1,2
 1102 751 1102 751 1038 698 c 128,-1,3
 974 645 974 645 872.5 613.5 c 128,-1,4
 771 582 771 582 627 582 c 0,5,6
 609 582 609 582 593 583 c 128,-1,7
 577 584 577 584 564 585 c 0,8,9
 550 586 550 586 537 588 c 1,10,-1
 537 238 l 2,11,12
 537 190 537 190 544 159.5 c 128,-1,13
 551 129 551 129 570.5 110.5 c 128,-1,14
 590 92 590 92 626 85 c 128,-1,15
 662 78 662 78 720 78 c 1,16,-1
 720 0 l 1,17,-1
 47 0 l 1,18,-1
 47 78 l 1,19,20
 107 78 107 78 142.5 85 c 128,-1,21
 178 92 178 92 197.5 111 c 128,-1,22
 217 130 217 130 223 163 c 128,-1,23
 229 196 229 196 229 247 c 2,24,-1
 229 1107 l 2,25,26
 229 1154 229 1154 223 1182 c 128,-1,27
 217 1210 217 1210 197.5 1225 c 128,-1,28
 178 1240 178 1240 142.5 1245 c 128,-1,29
 107 1250 107 1250 47 1250 c 1,30,-1
 47 1328 l 1,31,-1
 681 1328 l 2,32,33
 794 1328 794 1328 883 1302 c 128,-1,34
 972 1276 972 1276 1034 1229.5 c 128,-1,35
 1096 1183 1096 1183 1128.5 1116 c 128,-1,36
 1161 1049 1161 1049 1161 967 c 0,0,1
834 967 m 0,37,38
 834 1022 834 1022 822.5 1067.5 c 128,-1,39
 811 1113 811 1113 782.5 1145.5 c 128,-1,40
 754 1178 754 1178 705 1195.5 c 128,-1,41
 656 1213 656 1213 581 1213 c 0,42,43
 573 1213 573 1213 565.5 1212 c 128,-1,44
 558 1211 558 1211 551 1210 c 0,45,46
 543 1209 543 1209 537 1208 c 1,47,-1
 537 701 l 1,48,49
 545 700 545 700 551 698 c 0,50,51
 557 697 557 697 564.5 696 c 128,-1,52
 572 695 572 695 581 695 c 0,53,54
 655 695 655 695 704.5 716.5 c 128,-1,55
 754 738 754 738 782.5 774.5 c 128,-1,56
 811 811 811 811 822.5 860.5 c 128,-1,57
 834 910 834 910 834 967 c 0,37,38
EndSplineSet
EndChar

StartChar: Q
Encoding: 81 81 52
Width: 1554
GlyphClass: 2
Flags: W
LayerCount: 2
Fore
SplineSet
1483 664 m 0,0,1
 1483 547 1483 547 1441.5 437.5 c 128,-1,2
 1400 328 1400 328 1330 237.5 c 128,-1,3
 1260 147 1260 147 1169 82 c 128,-1,4
 1078 17 1078 17 979 -9 c 1,5,6
 1017 -71 1017 -71 1063.5 -127 c 128,-1,7
 1110 -183 1110 -183 1170.5 -228 c 128,-1,8
 1231 -273 1231 -273 1306.5 -303 c 128,-1,9
 1382 -333 1382 -333 1478 -343 c 1,10,-1
 1478 -421 l 1,11,12
 1327 -421 1327 -421 1191 -390 c 128,-1,13
 1055 -359 1055 -359 939 -304.5 c 128,-1,14
 823 -250 823 -250 728.5 -173.5 c 128,-1,15
 634 -97 634 -97 565 -8 c 1,16,17
 461 23 461 23 371 85 c 128,-1,18
 281 147 281 147 214.5 233.5 c 128,-1,19
 148 320 148 320 109.5 428.5 c 128,-1,20
 71 537 71 537 71 664 c 0,21,22
 71 808 71 808 122 935 c 128,-1,23
 173 1062 173 1062 266 1155.5 c 128,-1,24
 359 1249 359 1249 488 1303 c 128,-1,25
 617 1357 617 1357 776 1357 c 0,26,27
 937 1357 937 1357 1067.5 1303 c 128,-1,28
 1198 1249 1198 1249 1290.5 1155.5 c 128,-1,29
 1383 1062 1383 1062 1433 935 c 128,-1,30
 1483 808 1483 808 1483 664 c 0,0,1
1130 664 m 256,31,32
 1130 734 1130 734 1124.5 805 c 128,-1,33
 1119 876 1119 876 1105 941.5 c 128,-1,34
 1091 1007 1091 1007 1065.5 1065 c 128,-1,35
 1040 1123 1040 1123 1001 1166 c 128,-1,36
 962 1209 962 1209 906.5 1233.5 c 128,-1,37
 851 1258 851 1258 776 1258 c 0,38,39
 669 1258 669 1258 601 1204 c 128,-1,40
 533 1150 533 1150 494 1065 c 128,-1,41
 455 980 455 980 440 874 c 128,-1,42
 425 768 425 768 425 664 c 256,43,44
 425 560 425 560 442 454 c 128,-1,45
 459 348 459 348 500 263 c 128,-1,46
 541 178 541 178 608.5 124 c 128,-1,47
 676 70 676 70 776 70 c 0,48,49
 844 70 844 70 896.5 95 c 128,-1,50
 949 120 949 120 988 162.5 c 128,-1,51
 1027 205 1027 205 1054 263 c 128,-1,52
 1081 321 1081 321 1098 386.5 c 128,-1,53
 1115 452 1115 452 1122.5 523 c 128,-1,54
 1130 594 1130 594 1130 664 c 256,31,32
EndSplineSet
EndChar

StartChar: R
Encoding: 82 82 53
Width: 1444
GlyphClass: 2
Flags: W
LayerCount: 2
Fore
SplineSet
1016 0 m 1,0,-1
 585 601 l 1,1,2
 577 598 577 598 558 598 c 0,3,4
 550 598 550 598 541.5 598.5 c 128,-1,5
 533 599 533 599 526 599 c 1,6,-1
 526 251 l 2,7,8
 526 203 526 203 533.5 169.5 c 128,-1,9
 541 136 541 136 561 116 c 128,-1,10
 581 96 581 96 617 87 c 128,-1,11
 653 78 653 78 711 78 c 1,12,-1
 711 0 l 1,13,-1
 36 0 l 1,14,-1
 36 78 l 1,15,16
 96 78 96 78 132.5 87 c 128,-1,17
 169 96 169 96 188 117.5 c 128,-1,18
 207 139 207 139 212.5 174 c 128,-1,19
 218 209 218 209 218 260 c 2,20,-1
 218 1094 l 2,21,22
 218 1141 218 1141 212.5 1171 c 128,-1,23
 207 1201 207 1201 188 1218.5 c 128,-1,24
 169 1236 169 1236 132.5 1243 c 128,-1,25
 96 1250 96 1250 36 1250 c 1,26,-1
 36 1328 l 1,27,-1
 588 1328 l 2,28,29
 701 1328 701 1328 809.5 1318.5 c 128,-1,30
 918 1309 918 1309 1002.5 1274 c 128,-1,31
 1087 1239 1087 1239 1138 1170.5 c 128,-1,32
 1189 1102 1189 1102 1189 987 c 0,33,34
 1189 908 1189 908 1169 846.5 c 128,-1,35
 1149 785 1149 785 1114 741 c 128,-1,36
 1079 697 1079 697 1031 669.5 c 128,-1,37
 983 642 983 642 927 630 c 1,38,-1
 1214 290 l 2,39,40
 1261 234 1261 234 1301 194.5 c 128,-1,41
 1341 155 1341 155 1379 129.5 c 128,-1,42
 1417 104 1417 104 1455 91.5 c 128,-1,43
 1493 79 1493 79 1539 78 c 1,44,-1
 1539 0 l 1,45,-1
 1016 0 l 1,0,-1
867 967 m 0,46,47
 867 1012 867 1012 859 1056.5 c 128,-1,48
 851 1101 851 1101 826 1135.5 c 128,-1,49
 801 1170 801 1170 751.5 1191.5 c 128,-1,50
 702 1213 702 1213 619 1213 c 0,51,52
 594 1213 594 1213 577 1212 c 128,-1,53
 560 1211 560 1211 549 1210 c 0,54,55
 535 1209 535 1209 526 1208 c 1,56,-1
 526 715 l 1,57,58
 540 712 540 712 572 710 c 128,-1,59
 604 708 604 708 634 708 c 0,60,61
 678 708 678 708 720.5 726.5 c 128,-1,62
 763 745 763 745 795.5 778.5 c 128,-1,63
 828 812 828 812 847.5 860.5 c 128,-1,64
 867 909 867 909 867 967 c 0,46,47
EndSplineSet
EndChar

StartChar: S
Encoding: 83 83 54
Width: 1116
GlyphClass: 2
Flags: W
LayerCount: 2
Fore
SplineSet
1037 376 m 0,0,1
 1037 286 1037 286 1000.5 211 c 128,-1,2
 964 136 964 136 902 83 c 128,-1,3
 840 30 840 30 754.5 0.5 c 128,-1,4
 669 -29 669 -29 572 -29 c 0,5,6
 498 -29 498 -29 453 -17 c 128,-1,7
 408 -5 408 -5 377 10 c 128,-1,8
 346 25 346 25 322 36.5 c 128,-1,9
 298 48 298 48 265 48 c 0,10,11
 229 48 229 48 206 26.5 c 128,-1,12
 183 5 183 5 165 -29 c 1,13,-1
 92 -29 l 1,14,-1
 92 472 l 1,15,-1
 169 472 l 1,16,17
 177 403 177 403 205.5 330 c 128,-1,18
 234 257 234 257 284.5 197.5 c 128,-1,19
 335 138 335 138 408 100 c 128,-1,20
 481 62 481 62 577 62 c 0,21,22
 620 62 620 62 660.5 74.5 c 128,-1,23
 701 87 701 87 731.5 111 c 128,-1,24
 762 135 762 135 780 169.5 c 128,-1,25
 798 204 798 204 798 247 c 0,26,27
 798 305 798 305 768 350.5 c 128,-1,28
 738 396 738 396 689.5 434.5 c 128,-1,29
 641 473 641 473 578.5 507.5 c 128,-1,30
 516 542 516 542 451.5 576.5 c 128,-1,31
 387 611 387 611 325 650 c 128,-1,32
 263 689 263 689 214 736.5 c 128,-1,33
 165 784 165 784 135 843.5 c 128,-1,34
 105 903 105 903 105 980 c 0,35,36
 105 1063 105 1063 135.5 1132 c 128,-1,37
 166 1201 166 1201 221.5 1251 c 128,-1,38
 277 1301 277 1301 353 1329 c 128,-1,39
 429 1357 429 1357 521 1357 c 0,40,41
 585 1357 585 1357 632.5 1343.5 c 128,-1,42
 680 1330 680 1330 716.5 1313 c 128,-1,43
 753 1296 753 1296 781.5 1282.5 c 128,-1,44
 810 1269 810 1269 837 1269 c 0,45,46
 863 1269 863 1269 876 1295 c 128,-1,47
 889 1321 889 1321 896 1357 c 1,48,-1
 971 1357 l 1,49,-1
 971 863 l 1,50,-1
 889 863 l 1,51,52
 880 954 880 954 846 1028 c 128,-1,53
 812 1102 812 1102 763 1154 c 128,-1,54
 714 1206 714 1206 652 1234 c 128,-1,55
 590 1262 590 1262 526 1262 c 0,56,57
 487 1262 487 1262 451.5 1249.5 c 128,-1,58
 416 1237 416 1237 388.5 1214 c 128,-1,59
 361 1191 361 1191 345.5 1158.5 c 128,-1,60
 330 1126 330 1126 330 1087 c 0,61,62
 330 1036 330 1036 360.5 995 c 128,-1,63
 391 954 391 954 440.5 918.5 c 128,-1,64
 490 883 490 883 553.5 851 c 128,-1,65
 617 819 617 819 683.5 784 c 128,-1,66
 750 749 750 749 813.5 710 c 128,-1,67
 877 671 877 671 926.5 623 c 128,-1,68
 976 575 976 575 1006.5 514.5 c 128,-1,69
 1037 454 1037 454 1037 376 c 0,0,1
EndSplineSet
EndChar

StartChar: T
Encoding: 84 84 55
Width: 1337
GlyphClass: 2
Flags: W
LayerCount: 2
Fore
SplineSet
1201 931 m 1,0,1
 1187 1077 1187 1077 1116.5 1145 c 128,-1,2
 1046 1213 1046 1213 906 1213 c 2,3,-1
 821 1213 l 1,4,-1
 821 250 l 2,5,6
 821 199 821 199 828.5 166 c 128,-1,7
 836 133 836 133 857.5 113.5 c 128,-1,8
 879 94 879 94 916 86 c 128,-1,9
 953 78 953 78 1014 78 c 1,10,-1
 1014 0 l 1,11,-1
 322 0 l 1,12,-1
 322 78 l 1,13,14
 382 78 382 78 420 86 c 128,-1,15
 458 94 458 94 478.5 113.5 c 128,-1,16
 499 133 499 133 506 166 c 128,-1,17
 513 199 513 199 513 250 c 2,18,-1
 513 1213 l 1,19,-1
 416 1213 l 2,20,21
 347 1213 347 1213 295.5 1198 c 128,-1,22
 244 1183 244 1183 208 1150 c 128,-1,23
 172 1117 172 1117 151.5 1063 c 128,-1,24
 131 1009 131 1009 125 931 c 1,25,-1
 45 931 l 1,26,-1
 58 1328 l 1,27,-1
 1266 1328 l 1,28,-1
 1279 931 l 1,29,-1
 1201 931 l 1,0,1
EndSplineSet
EndChar

StartChar: U
Encoding: 85 85 56
Width: 1450
GlyphClass: 2
Flags: W
LayerCount: 2
Fore
SplineSet
1419 1250 m 1,0,1
 1364 1250 1364 1250 1328 1242 c 128,-1,2
 1292 1234 1292 1234 1270.5 1215 c 128,-1,3
 1249 1196 1249 1196 1240.5 1165.5 c 128,-1,4
 1232 1135 1232 1135 1232 1092 c 2,5,-1
 1232 529 l 2,6,7
 1232 411 1232 411 1205.5 309 c 128,-1,8
 1179 207 1179 207 1118.5 132 c 128,-1,9
 1058 57 1058 57 960 14 c 128,-1,10
 862 -29 862 -29 719 -29 c 0,11,12
 545 -29 545 -29 438 11.5 c 128,-1,13
 331 52 331 52 273.5 129.5 c 128,-1,14
 216 207 216 207 196.5 318.5 c 128,-1,15
 177 430 177 430 177 573 c 2,16,-1
 177 1079 l 2,17,18
 177 1130 177 1130 171 1163 c 128,-1,19
 165 1196 165 1196 146 1215.5 c 128,-1,20
 127 1235 127 1235 91.5 1242.5 c 128,-1,21
 56 1250 56 1250 -4 1250 c 1,22,-1
 -4 1328 l 1,23,-1
 677 1328 l 1,24,-1
 677 1250 l 1,25,26
 617 1250 617 1250 579.5 1242.5 c 128,-1,27
 542 1235 542 1235 521 1215.5 c 128,-1,28
 500 1196 500 1196 492.5 1163 c 128,-1,29
 485 1130 485 1130 485 1079 c 2,30,-1
 485 495 l 2,31,32
 485 386 485 386 501 309.5 c 128,-1,33
 517 233 517 233 551 184.5 c 128,-1,34
 585 136 585 136 637 115 c 128,-1,35
 689 94 689 94 759 94 c 0,36,37
 837 94 837 94 899 115 c 128,-1,38
 961 136 961 136 1006 186 c 0,39,40
 1061 244 1061 244 1085 335 c 128,-1,41
 1109 426 1109 426 1109 567 c 2,42,-1
 1109 1092 l 2,43,44
 1109 1143 1109 1143 1101 1174 c 128,-1,45
 1093 1205 1093 1205 1071.5 1222 c 128,-1,46
 1050 1239 1050 1239 1013 1244.5 c 128,-1,47
 976 1250 976 1250 916 1250 c 1,48,-1
 916 1328 l 1,49,-1
 1419 1328 l 1,50,-1
 1419 1250 l 1,0,1
EndSplineSet
EndChar

StartChar: V
Encoding: 86 86 57
Width: 1450
GlyphClass: 2
Flags: W
LayerCount: 2
Fore
SplineSet
1430 1250 m 1,0,1
 1388 1240 1388 1240 1358 1227 c 128,-1,2
 1328 1214 1328 1214 1306 1194 c 128,-1,3
 1284 1174 1284 1174 1267 1146 c 128,-1,4
 1250 1118 1250 1118 1235 1080 c 2,5,-1
 785 -29 l 1,6,-1
 688 -29 l 1,7,-1
 183 1094 l 2,8,9
 165 1137 165 1137 149.5 1164 c 128,-1,10
 134 1191 134 1191 114.5 1207 c 128,-1,11
 95 1223 95 1223 67.5 1233 c 128,-1,12
 40 1243 40 1243 -4 1250 c 1,13,-1
 -4 1328 l 1,14,-1
 653 1328 l 1,15,-1
 653 1250 l 1,16,17
 608 1250 608 1250 576.5 1246.5 c 128,-1,18
 545 1243 545 1243 526 1235 c 128,-1,19
 507 1227 507 1227 499 1215.5 c 128,-1,20
 491 1204 491 1204 491 1188 c 0,21,22
 491 1180 491 1180 495 1164.5 c 128,-1,23
 499 1149 499 1149 505 1131.5 c 128,-1,24
 511 1114 511 1114 518 1096.5 c 128,-1,25
 525 1079 525 1079 530 1067 c 2,26,-1
 828 409 l 1,27,-1
 1075 1014 l 2,28,29
 1087 1044 1087 1044 1095.5 1076.5 c 128,-1,30
 1104 1109 1104 1109 1104 1131 c 0,31,32
 1104 1160 1104 1160 1087.5 1181 c 128,-1,33
 1071 1202 1071 1202 1047 1217 c 128,-1,34
 1023 1232 1023 1232 994.5 1240 c 128,-1,35
 966 1248 966 1248 942 1250 c 1,36,-1
 942 1328 l 1,37,-1
 1430 1328 l 1,38,-1
 1430 1250 l 1,39,-1
 1430 1250 l 1,0,1
EndSplineSet
EndChar

StartChar: W
Encoding: 87 87 58
Width: 2040
GlyphClass: 2
Flags: W
LayerCount: 2
Fore
SplineSet
2020 1250 m 1,0,1
 1990 1250 1990 1250 1967.5 1241 c 128,-1,2
 1945 1232 1945 1232 1925.5 1208.5 c 128,-1,3
 1906 1185 1906 1185 1887.5 1146 c 128,-1,4
 1869 1107 1869 1107 1846 1049 c 2,5,-1
 1422 -29 l 1,6,-1
 1343 -29 l 1,7,-1
 1029 764 l 1,8,-1
 694 -29 l 1,9,-1
 615 -29 l 1,10,-1
 203 1052 l 2,11,12
 181 1108 181 1108 164.5 1145.5 c 128,-1,13
 148 1183 148 1183 127.5 1206.5 c 128,-1,14
 107 1230 107 1230 76 1240 c 128,-1,15
 45 1250 45 1250 -4 1250 c 1,16,-1
 -4 1328 l 1,17,-1
 653 1328 l 1,18,-1
 653 1250 l 1,19,20
 622 1250 622 1250 594.5 1245.5 c 128,-1,21
 567 1241 567 1241 546 1232 c 128,-1,22
 525 1223 525 1223 512.5 1209 c 128,-1,23
 500 1195 500 1195 500 1175 c 0,24,25
 500 1156 500 1156 505.5 1130 c 128,-1,26
 511 1104 511 1104 524 1072 c 2,27,-1
 759 452 l 1,28,-1
 964 931 l 1,29,30
 932 1019 932 1019 907.5 1080 c 128,-1,31
 883 1141 883 1141 857.5 1179 c 128,-1,32
 832 1217 832 1217 800.5 1233.5 c 128,-1,33
 769 1250 769 1250 725 1250 c 1,34,-1
 725 1328 l 1,35,-1
 1383 1328 l 1,36,-1
 1383 1250 l 1,37,38
 1345 1250 1345 1250 1312 1247 c 128,-1,39
 1279 1244 1279 1244 1255 1237.5 c 128,-1,40
 1231 1231 1231 1231 1216.5 1218.5 c 128,-1,41
 1202 1206 1202 1206 1202 1189 c 0,42,43
 1202 1162 1202 1162 1221 1114 c 2,44,-1
 1471 471 l 1,45,-1
 1698 998 l 2,46,47
 1706 1017 1706 1017 1715 1041.5 c 128,-1,48
 1724 1066 1724 1066 1732 1090 c 128,-1,49
 1740 1114 1740 1114 1745.5 1135.5 c 128,-1,50
 1751 1157 1751 1157 1751 1169 c 0,51,52
 1751 1221 1751 1221 1721 1235.5 c 128,-1,53
 1691 1250 1691 1250 1638 1250 c 1,54,-1
 1638 1328 l 1,55,-1
 2020 1328 l 1,56,-1
 2020 1250 l 1,0,1
EndSplineSet
EndChar

StartChar: X
Encoding: 88 88 59
Width: 1450
GlyphClass: 2
Flags: W
LayerCount: 2
Fore
SplineSet
747 0 m 1,0,-1
 747 78 l 1,1,2
 811 78 811 78 841.5 99 c 128,-1,3
 872 120 872 120 872 151 c 0,4,5
 872 168 872 168 856.5 201 c 128,-1,6
 841 234 841 234 813.5 279 c 128,-1,7
 786 324 786 324 748.5 378.5 c 128,-1,8
 711 433 711 433 667 491 c 1,9,-1
 513 315 l 2,10,11
 487 285 487 285 470.5 262.5 c 128,-1,12
 454 240 454 240 444.5 222.5 c 128,-1,13
 435 205 435 205 432 190 c 128,-1,14
 429 175 429 175 429 159 c 0,15,16
 429 146 429 146 435.5 131.5 c 128,-1,17
 442 117 442 117 459 105.5 c 128,-1,18
 476 94 476 94 504.5 86 c 128,-1,19
 533 78 533 78 576 78 c 1,20,-1
 576 0 l 1,21,-1
 0 0 l 1,22,-1
 0 78 l 1,23,24
 47 86 47 86 86.5 96.5 c 128,-1,25
 126 107 126 107 162 125 c 128,-1,26
 198 143 198 143 230.5 170.5 c 128,-1,27
 263 198 263 198 294 238 c 2,28,-1
 586 614 l 1,29,30
 504 734 504 734 439 828.5 c 128,-1,31
 374 923 374 923 329 989 c 0,32,33
 276 1067 276 1067 233 1127 c 0,34,35
 206 1167 206 1167 179.5 1191 c 128,-1,36
 153 1215 153 1215 130 1228 c 128,-1,37
 107 1241 107 1241 84.5 1245.5 c 128,-1,38
 62 1250 62 1250 43 1250 c 1,39,-1
 43 1328 l 1,40,-1
 728 1328 l 1,41,-1
 728 1250 l 1,42,43
 658 1250 658 1250 626 1236.5 c 128,-1,44
 594 1223 594 1223 594 1193 c 0,45,46
 594 1187 594 1187 594 1182.5 c 128,-1,47
 594 1178 594 1178 599 1167 c 128,-1,48
 604 1156 604 1156 616 1135.5 c 128,-1,49
 628 1115 628 1115 651.5 1078 c 128,-1,50
 675 1041 675 1041 712 984 c 128,-1,51
 749 927 749 927 805 842 c 1,52,53
 891 947 891 947 940.5 1009 c 128,-1,54
 990 1071 990 1071 1015 1105 c 128,-1,55
 1040 1139 1040 1139 1046.5 1152.5 c 128,-1,56
 1053 1166 1053 1166 1053 1176 c 0,57,58
 1053 1193 1053 1193 1040 1207.5 c 128,-1,59
 1027 1222 1027 1222 1005.5 1231 c 128,-1,60
 984 1240 984 1240 955.5 1245 c 128,-1,61
 927 1250 927 1250 894 1250 c 1,62,-1
 894 1328 l 1,63,-1
 1396 1328 l 1,64,-1
 1396 1250 l 1,65,66
 1357 1250 1357 1250 1328 1240.5 c 128,-1,67
 1299 1231 1299 1231 1273 1210 c 128,-1,68
 1247 1189 1247 1189 1220 1158.5 c 128,-1,69
 1193 1128 1193 1128 1159 1087 c 2,70,-1
 886 750 l 1,71,-1
 1271 201 l 2,72,73
 1285 180 1285 180 1306.5 158 c 128,-1,74
 1328 136 1328 136 1357 118.5 c 128,-1,75
 1386 101 1386 101 1422 89.5 c 128,-1,76
 1458 78 1458 78 1501 78 c 1,77,-1
 1501 0 l 1,78,-1
 747 0 l 1,0,-1
EndSplineSet
EndChar

StartChar: Y
Encoding: 89 89 60
Width: 1450
GlyphClass: 2
Flags: W
LayerCount: 2
Fore
SplineSet
1426 1250 m 1,0,1
 1392 1250 1392 1250 1364.5 1244.5 c 128,-1,2
 1337 1239 1337 1239 1308 1215.5 c 128,-1,3
 1279 1192 1279 1192 1245 1146.5 c 128,-1,4
 1211 1101 1211 1101 1165 1022 c 2,5,-1
 879 537 l 1,6,-1
 879 250 l 2,7,8
 879 199 879 199 890 166 c 128,-1,9
 901 133 901 133 926 113.5 c 128,-1,10
 951 94 951 94 993 86 c 128,-1,11
 1035 78 1035 78 1094 78 c 1,12,-1
 1094 0 l 1,13,-1
 350 0 l 1,14,-1
 350 78 l 1,15,16
 410 78 410 78 451.5 86 c 128,-1,17
 493 94 493 94 519.5 113.5 c 128,-1,18
 546 133 546 133 557.5 166 c 128,-1,19
 569 199 569 199 569 250 c 2,20,-1
 569 485 l 1,21,-1
 235 1049 l 2,22,23
 201 1105 201 1105 175 1144 c 128,-1,24
 149 1183 149 1183 124.5 1206.5 c 128,-1,25
 100 1230 100 1230 74.5 1240 c 128,-1,26
 49 1250 49 1250 17 1250 c 1,27,-1
 17 1328 l 1,28,-1
 654 1328 l 1,29,-1
 654 1250 l 1,30,31
 584 1250 584 1250 547 1238.5 c 128,-1,32
 510 1227 510 1227 510 1197 c 0,33,34
 510 1181 510 1181 525.5 1148 c 128,-1,35
 541 1115 541 1115 576.5 1054.5 c 128,-1,36
 612 994 612 994 671 902 c 128,-1,37
 730 810 730 810 818 676 c 1,38,-1
 1053 1076 l 2,39,40
 1074 1110 1074 1110 1083.5 1140.5 c 128,-1,41
 1093 1171 1093 1171 1093 1195 c 0,42,43
 1093 1221 1093 1221 1064.5 1235.5 c 128,-1,44
 1036 1250 1036 1250 966 1250 c 1,45,-1
 966 1328 l 1,46,-1
 1426 1328 l 1,47,-1
 1426 1250 l 1,48,-1
 1426 1250 l 1,0,1
EndSplineSet
EndChar

StartChar: Z
Encoding: 90 90 61
Width: 1340
GlyphClass: 2
Flags: W
LayerCount: 2
Fore
SplineSet
1200 0 m 1,0,-1
 45 0 l 1,1,-1
 45 78 l 1,2,-1
 807 1213 l 1,3,-1
 546 1213 l 2,4,5
 413 1213 413 1213 335 1139 c 128,-1,6
 257 1065 257 1065 227 901 c 1,7,-1
 149 901 l 1,8,-1
 181 1328 l 1,9,-1
 1249 1328 l 1,10,-1
 439 116 l 1,11,-1
 677 116 l 2,12,13
 781 116 781 116 864.5 131.5 c 128,-1,14
 948 147 948 147 1011.5 188.5 c 128,-1,15
 1075 230 1075 230 1118.5 304 c 128,-1,16
 1162 378 1162 378 1187 495 c 1,17,-1
 1263 482 l 1,18,-1
 1200 0 l 1,0,-1
EndSplineSet
EndChar

StartChar: bracketleft
Encoding: 91 91 62
Width: 687
GlyphClass: 2
Flags: W
LayerCount: 2
Fore
SplineSet
558 -315 m 1,0,-1
 160 -261 l 1,1,-1
 160 1361 l 1,2,-1
 558 1413 l 1,3,-1
 576 1310 l 1,4,-1
 381 1273 l 1,5,-1
 381 -170 l 1,6,-1
 576 -211 l 1,7,-1
 558 -315 l 1,0,-1
EndSplineSet
EndChar

StartChar: backslash
Encoding: 92 92 63
Width: 577
GlyphClass: 2
Flags: W
LayerCount: 2
Fore
SplineSet
448 -29 m 1,0,-1
 12 1357 l 1,1,-1
 136 1357 l 1,2,-1
 573 -29 l 1,3,-1
 448 -29 l 1,0,-1
EndSplineSet
EndChar

StartChar: bracketright
Encoding: 93 93 64
Width: 687
GlyphClass: 2
Flags: W
LayerCount: 2
Fore
SplineSet
121 -211 m 1,0,-1
 316 -170 l 1,1,-1
 316 1273 l 1,2,-1
 121 1310 l 1,3,-1
 139 1413 l 1,4,-1
 537 1361 l 1,5,-1
 537 -261 l 1,6,-1
 139 -315 l 1,7,-1
 121 -211 l 1,0,-1
EndSplineSet
EndChar

StartChar: asciicircum
Encoding: 94 94 65
Width: 1930
GlyphClass: 2
Flags: W
LayerCount: 2
Fore
SplineSet
1325 19 m 1,0,-1
 966 992 l 1,1,-1
 607 19 l 1,2,-1
 448 19 l 1,3,-1
 906 1217 l 1,4,-1
 1024 1217 l 1,5,-1
 1483 19 l 1,6,-1
 1325 19 l 1,0,-1
EndSplineSet
EndChar

StartChar: underscore
Encoding: 95 95 66
Width: 1082
GlyphClass: 2
Flags: W
LayerCount: 2
Fore
SplineSet
0 -283 m 1,0,-1
 0 -142 l 1,1,-1
 1083 -142 l 1,2,-1
 1083 -283 l 1,3,-1
 0 -283 l 1,0,-1
EndSplineSet
EndChar

StartChar: grave
Encoding: 96 96 67
Width: 687
GlyphClass: 2
Flags: W
LayerCount: 2
Fore
SplineSet
393 1041 m 1,0,-1
 114 1205 l 2,1,2
 65 1235 65 1235 41 1262 c 128,-1,3
 17 1289 17 1289 17 1323 c 0,4,5
 17 1366 17 1366 42.5 1396 c 128,-1,6
 68 1426 68 1426 112 1426 c 0,7,8
 151 1426 151 1426 188 1407 c 128,-1,9
 225 1388 225 1388 259 1349 c 2,10,-1
 520 1041 l 1,11,-1
 393 1041 l 1,0,-1
EndSplineSet
EndChar

StartChar: a
Encoding: 97 97 68
Width: 995
GlyphClass: 2
Flags: W
LayerCount: 2
Fore
SplineSet
996 130 m 1,0,1
 983 114 983 114 954 89.5 c 128,-1,2
 925 65 925 65 887 41 c 128,-1,3
 849 17 849 17 802.5 -0.5 c 128,-1,4
 756 -18 756 -18 708 -18 c 0,5,6
 677 -18 677 -18 650 -7 c 128,-1,7
 623 4 623 4 602.5 23 c 128,-1,8
 582 42 582 42 570.5 66 c 128,-1,9
 559 90 559 90 559 117 c 1,10,11
 527 90 527 90 495 65 c 128,-1,12
 463 40 463 40 429 21.5 c 128,-1,13
 395 3 395 3 358 -7.5 c 128,-1,14
 321 -18 321 -18 279 -18 c 0,15,16
 179 -18 179 -18 125 43 c 128,-1,17
 71 104 71 104 71 213 c 0,18,19
 71 287 71 287 122.5 347 c 128,-1,20
 174 407 174 407 249 453.5 c 128,-1,21
 324 500 324 500 408.5 535.5 c 128,-1,22
 493 571 493 571 559 594 c 1,23,-1
 559 630 l 2,24,25
 559 675 559 675 552 714 c 128,-1,26
 545 753 545 753 530.5 780.5 c 128,-1,27
 516 808 516 808 493.5 824 c 128,-1,28
 471 840 471 840 439 840 c 0,29,30
 388 840 388 840 366 810.5 c 128,-1,31
 344 781 344 781 344 698 c 0,32,33
 344 676 344 676 337.5 652 c 128,-1,34
 331 628 331 628 316.5 608.5 c 128,-1,35
 302 589 302 589 277 576 c 128,-1,36
 252 563 252 563 214 563 c 0,37,38
 159 563 159 563 126.5 595.5 c 128,-1,39
 94 628 94 628 94 685 c 256,40,41
 94 742 94 742 129.5 787 c 128,-1,42
 165 832 165 832 219.5 862.5 c 128,-1,43
 274 893 274 893 338.5 908.5 c 128,-1,44
 403 924 403 924 460 924 c 0,45,46
 564 924 564 924 637 908 c 128,-1,47
 710 892 710 892 755.5 855 c 128,-1,48
 801 818 801 818 821 759.5 c 128,-1,49
 841 701 841 701 841 617 c 2,50,-1
 841 351 l 2,51,52
 841 313 841 313 841.5 273 c 128,-1,53
 842 233 842 233 846 207 c 0,54,55
 849 189 849 189 858 174 c 128,-1,56
 867 159 867 159 889 159 c 0,57,58
 899 159 899 159 915 166.5 c 128,-1,59
 931 174 931 174 946.5 184.5 c 128,-1,60
 962 195 962 195 975.5 206 c 128,-1,61
 989 217 989 217 996 225 c 1,62,-1
 996 130 l 1,0,1
559 500 m 1,63,64
 497 473 497 473 456 444 c 128,-1,65
 415 415 415 415 391 385 c 128,-1,66
 367 355 367 355 357 323 c 128,-1,67
 347 291 347 291 347 259 c 0,68,69
 347 217 347 217 368 186 c 128,-1,70
 389 155 389 155 428 155 c 0,71,72
 460 155 460 155 494.5 178 c 128,-1,73
 529 201 529 201 559 234 c 1,74,-1
 559 500 l 1,63,64
EndSplineSet
EndChar

StartChar: b
Encoding: 98 98 69
Width: 1112
GlyphClass: 2
Flags: W
LayerCount: 2
Fore
SplineSet
1057 524 m 0,0,1
 1057 414 1057 414 1018.5 313 c 128,-1,2
 980 212 980 212 913 136 c 128,-1,3
 846 60 846 60 755 15 c 128,-1,4
 664 -30 664 -30 559 -30 c 0,5,6
 502 -30 502 -30 446 -17 c 128,-1,7
 390 -4 390 -4 337.5 17 c 128,-1,8
 285 38 285 38 238.5 63 c 128,-1,9
 192 88 192 88 157 114 c 1,10,-1
 157 1092 l 2,11,12
 157 1170 157 1170 145.5 1197 c 128,-1,13
 134 1224 134 1224 103 1224 c 0,14,15
 85 1224 85 1224 60 1220.5 c 128,-1,16
 35 1217 35 1217 18 1210 c 1,17,-1
 -5 1283 l 1,18,-1
 359 1392 l 1,19,-1
 437 1392 l 1,20,-1
 437 742 l 1,21,22
 507 839 507 839 582.5 881.5 c 128,-1,23
 658 924 658 924 730 924 c 0,24,25
 796 924 796 924 855.5 896 c 128,-1,26
 915 868 915 868 960 815.5 c 128,-1,27
 1005 763 1005 763 1031 689 c 128,-1,28
 1057 615 1057 615 1057 524 c 0,0,1
593 71 m 0,29,30
 644 71 644 71 677 102.5 c 128,-1,31
 710 134 710 134 730.5 184 c 128,-1,32
 751 234 751 234 759.5 297 c 128,-1,33
 768 360 768 360 768 425 c 0,34,35
 768 483 768 483 759.5 538 c 128,-1,36
 751 593 751 593 731.5 635 c 128,-1,37
 712 677 712 677 680.5 702.5 c 128,-1,38
 649 728 649 728 603 728 c 0,39,40
 568 728 568 728 521 700.5 c 128,-1,41
 474 673 474 673 437 625 c 1,42,-1
 437 170 l 1,43,44
 468 123 468 123 509.5 97 c 128,-1,45
 551 71 551 71 593 71 c 0,29,30
EndSplineSet
EndChar

StartChar: c
Encoding: 99 99 70
Width: 933
GlyphClass: 2
Flags: W
LayerCount: 2
Fore
SplineSet
875 331 m 1,0,1
 861 263 861 263 831.5 198.5 c 128,-1,2
 802 134 802 134 754.5 83 c 128,-1,3
 707 32 707 32 641.5 1 c 128,-1,4
 576 -30 576 -30 490 -30 c 0,5,6
 399 -30 399 -30 325 4.5 c 128,-1,7
 251 39 251 39 198.5 99 c 128,-1,8
 146 159 146 159 117 240 c 128,-1,9
 88 321 88 321 88 413 c 0,10,11
 88 530 88 530 123.5 624.5 c 128,-1,12
 159 719 159 719 216.5 785 c 128,-1,13
 274 851 274 851 349 887.5 c 128,-1,14
 424 924 424 924 504 924 c 0,15,16
 599 924 599 924 665.5 899.5 c 128,-1,17
 732 875 732 875 773.5 839 c 128,-1,18
 815 803 815 803 834.5 761.5 c 128,-1,19
 854 720 854 720 854 686 c 0,20,21
 854 631 854 631 824.5 597.5 c 128,-1,22
 795 564 795 564 736 564 c 0,23,24
 687 564 687 564 660.5 583.5 c 128,-1,25
 634 603 634 603 621 632.5 c 128,-1,26
 608 662 608 662 600.5 696 c 128,-1,27
 593 730 593 730 579 759.5 c 128,-1,28
 565 789 565 789 539 808.5 c 128,-1,29
 513 828 513 828 463 828 c 0,30,31
 392 828 392 828 352 771 c 128,-1,32
 312 714 312 714 312 603 c 0,33,34
 312 513 312 513 334 436 c 128,-1,35
 356 359 356 359 395 301.5 c 128,-1,36
 434 244 434 244 488.5 211.5 c 128,-1,37
 543 179 543 179 608 179 c 0,38,39
 631 179 631 179 658.5 185 c 128,-1,40
 686 191 686 191 713.5 210 c 128,-1,41
 741 229 741 229 767.5 264 c 128,-1,42
 794 299 794 299 818 356 c 1,43,-1
 875 331 l 1,0,1
EndSplineSet
EndChar

StartChar: d
Encoding: 100 100 71
Width: 1106
GlyphClass: 2
Flags: W
LayerCount: 2
Fore
SplineSet
763 -30 m 1,0,-1
 685 -30 l 1,1,-1
 685 88 l 1,2,3
 624 27 624 27 563 -1.5 c 128,-1,4
 502 -30 502 -30 424 -30 c 0,5,6
 359 -30 359 -30 293 -2 c 128,-1,7
 227 26 227 26 174 82.5 c 128,-1,8
 121 139 121 139 87 224 c 128,-1,9
 53 309 53 309 53 422 c 0,10,11
 53 536 53 536 91 629.5 c 128,-1,12
 129 723 129 723 190 788 c 128,-1,13
 251 853 251 853 327 888.5 c 128,-1,14
 403 924 403 924 481 924 c 0,15,16
 537 924 537 924 588.5 906 c 128,-1,17
 640 888 640 888 685 846 c 1,18,-1
 685 1093 l 2,19,20
 685 1170 685 1170 673.5 1197 c 128,-1,21
 662 1224 662 1224 630 1224 c 0,22,23
 612 1224 612 1224 587.5 1220.5 c 128,-1,24
 563 1217 563 1217 546 1210 c 1,25,-1
 523 1283 l 1,26,-1
 886 1392 l 1,27,-1
 964 1392 l 1,28,-1
 964 270 l 2,29,30
 964 193 964 193 976 165.5 c 128,-1,31
 988 138 988 138 1019 138 c 0,32,33
 1035 138 1035 138 1060 142 c 128,-1,34
 1085 146 1085 146 1104 152 c 1,35,-1
 1127 79 l 1,36,-1
 763 -30 l 1,0,-1
685 620 m 2,37,38
 685 664 685 664 669.5 703 c 128,-1,39
 654 742 654 742 629 771.5 c 128,-1,40
 604 801 604 801 571.5 817.5 c 128,-1,41
 539 834 539 834 507 834 c 256,42,43
 475 834 475 834 444 817.5 c 128,-1,44
 413 801 413 801 390 763 c 128,-1,45
 367 725 367 725 352.5 663.5 c 128,-1,46
 338 602 338 602 338 511 c 0,47,48
 338 414 338 414 355 340 c 128,-1,49
 372 266 372 266 399 217 c 128,-1,50
 426 168 426 168 461.5 143 c 128,-1,51
 497 118 497 118 534 118 c 0,52,53
 577 118 577 118 614 148 c 128,-1,54
 651 178 651 178 685 216 c 1,55,-1
 685 620 l 2,37,38
EndSplineSet
EndChar

StartChar: e
Encoding: 101 101 72
Width: 920
GlyphClass: 2
Flags: W
LayerCount: 2
Fore
SplineSet
853 331 m 1,0,1
 839 263 839 263 809.5 198.5 c 128,-1,2
 780 134 780 134 733 83 c 128,-1,3
 686 32 686 32 621 1 c 128,-1,4
 556 -30 556 -30 471 -30 c 0,5,6
 375 -30 375 -30 299.5 4.5 c 128,-1,7
 224 39 224 39 172 102.5 c 128,-1,8
 120 166 120 166 93 254 c 128,-1,9
 66 342 66 342 66 450 c 0,10,11
 66 559 66 559 104.5 647.5 c 128,-1,12
 143 736 143 736 204.5 797.5 c 128,-1,13
 266 859 266 859 344 892 c 128,-1,14
 422 925 422 925 503 925 c 0,15,16
 573 925 573 925 637 904 c 128,-1,17
 701 883 701 883 749 835.5 c 128,-1,18
 797 788 797 788 825 712.5 c 128,-1,19
 853 637 853 637 853 530 c 1,20,-1
 291 530 l 1,21,22
 291 468 291 468 310.5 405 c 128,-1,23
 330 342 330 342 368.5 292 c 128,-1,24
 407 242 407 242 461.5 210.5 c 128,-1,25
 516 179 516 179 586 179 c 0,26,27
 651 179 651 179 703 218 c 128,-1,28
 755 257 755 257 795 356 c 1,29,-1
 853 331 l 1,0,1
590 615 m 1,30,31
 590 645 590 645 582.5 682 c 128,-1,32
 575 719 575 719 556 751.5 c 128,-1,33
 537 784 537 784 506.5 806 c 128,-1,34
 476 828 476 828 430 828 c 0,35,36
 404 828 404 828 379 813 c 128,-1,37
 354 798 354 798 333.5 770 c 128,-1,38
 313 742 313 742 301.5 702.5 c 128,-1,39
 290 663 290 663 290 615 c 1,40,-1
 590 615 l 1,30,31
EndSplineSet
EndChar

StartChar: f
Encoding: 102 102 73
Width: 712
GlyphClass: 2
Flags: W
LayerCount: 2
Fore
SplineSet
937 1221 m 0,0,1
 937 1199 937 1199 928 1178.5 c 128,-1,2
 919 1158 919 1158 903.5 1141 c 128,-1,3
 888 1124 888 1124 866 1114.5 c 128,-1,4
 844 1105 844 1105 816 1105 c 0,5,6
 781 1105 781 1105 756.5 1118.5 c 128,-1,7
 732 1132 732 1132 713.5 1151.5 c 128,-1,8
 695 1171 695 1171 680.5 1195 c 128,-1,9
 666 1219 666 1219 650 1238.5 c 128,-1,10
 634 1258 634 1258 615.5 1272 c 128,-1,11
 597 1286 597 1286 569 1286 c 0,12,13
 540 1286 540 1286 525.5 1263.5 c 128,-1,14
 511 1241 511 1241 504 1206 c 128,-1,15
 497 1171 497 1171 495.5 1127.5 c 128,-1,16
 494 1084 494 1084 494 1040 c 2,17,-1
 494 897 l 1,18,-1
 720 897 l 1,19,-1
 720 786 l 1,20,-1
 494 786 l 1,21,-1
 494 217 l 2,22,23
 494 172 494 172 507 144.5 c 128,-1,24
 520 117 520 117 541.5 102.5 c 128,-1,25
 563 88 563 88 591.5 83 c 128,-1,26
 620 78 620 78 651 78 c 1,27,-1
 651 0 l 1,28,-1
 74 0 l 1,29,-1
 74 78 l 1,30,31
 144 78 144 78 179 106.5 c 128,-1,32
 214 135 214 135 214 217 c 2,33,-1
 214 786 l 1,34,-1
 35 786 l 1,35,-1
 35 897 l 1,36,-1
 214 897 l 1,37,-1
 214 903 l 2,38,39
 214 941 214 941 224.5 992.5 c 128,-1,40
 235 1044 235 1044 256.5 1098.5 c 128,-1,41
 278 1153 278 1153 313 1205.5 c 128,-1,42
 348 1258 348 1258 397 1299.5 c 128,-1,43
 446 1341 446 1341 511 1366.5 c 128,-1,44
 576 1392 576 1392 658 1392 c 0,45,46
 728 1392 728 1392 780 1377.5 c 128,-1,47
 832 1363 832 1363 867 1339 c 128,-1,48
 902 1315 902 1315 919.5 1284 c 128,-1,49
 937 1253 937 1253 937 1221 c 0,0,1
EndSplineSet
EndChar

StartChar: g
Encoding: 103 103 74
Width: 1061
GlyphClass: 2
Flags: W
LayerCount: 2
Fore
SplineSet
1037 805 m 0,0,1
 1037 774 1037 774 1025.5 757.5 c 128,-1,2
 1014 741 1014 741 981 741 c 0,3,4
 968 741 968 741 951.5 741.5 c 128,-1,5
 935 742 935 742 917 742.5 c 128,-1,6
 899 743 899 743 883.5 744.5 c 128,-1,7
 868 746 868 746 859 746 c 1,8,9
 884 719 884 719 895.5 680 c 128,-1,10
 907 641 907 641 907 603 c 0,11,12
 907 547 907 547 883.5 490.5 c 128,-1,13
 860 434 860 434 813.5 389 c 128,-1,14
 767 344 767 344 697 315.5 c 128,-1,15
 627 287 627 287 533 287 c 0,16,17
 498 287 498 287 462 291.5 c 128,-1,18
 426 296 426 296 393 303 c 1,19,20
 367 282 367 282 344.5 259.5 c 128,-1,21
 322 237 322 237 322 213 c 0,22,23
 322 191 322 191 352 182.5 c 128,-1,24
 382 174 382 174 431 172 c 128,-1,25
 480 170 480 170 541.5 171 c 128,-1,26
 603 172 603 172 668 168 c 128,-1,27
 733 164 733 164 795 151.5 c 128,-1,28
 857 139 857 139 905.5 111.5 c 128,-1,29
 954 84 954 84 984 37.5 c 128,-1,30
 1014 -9 1014 -9 1014 -82 c 0,31,32
 1014 -142 1014 -142 988.5 -191 c 128,-1,33
 963 -240 963 -240 921 -280 c 128,-1,34
 879 -320 879 -320 824 -348.5 c 128,-1,35
 769 -377 769 -377 711 -396.5 c 128,-1,36
 653 -416 653 -416 593.5 -425 c 128,-1,37
 534 -434 534 -434 485 -434 c 0,38,39
 393 -434 393 -434 313 -420 c 128,-1,40
 233 -406 233 -406 173.5 -380.5 c 128,-1,41
 114 -355 114 -355 79.5 -319 c 128,-1,42
 45 -283 45 -283 45 -240 c 0,43,44
 45 -191 45 -191 88 -140.5 c 128,-1,45
 131 -90 131 -90 233 -31 c 1,46,47
 181 -17 181 -17 151 18 c 128,-1,48
 121 53 121 53 121 91 c 0,49,50
 121 117 121 117 136 147 c 128,-1,51
 151 177 151 177 175 208.5 c 128,-1,52
 199 240 199 240 231 271.5 c 128,-1,53
 263 303 263 303 296 331 c 1,54,55
 266 344 266 344 235.5 369.5 c 128,-1,56
 205 395 205 395 181 430 c 128,-1,57
 157 465 157 465 141.5 508 c 128,-1,58
 126 551 126 551 126 599 c 0,59,60
 126 674 126 674 155.5 734.5 c 128,-1,61
 185 795 185 795 237 837 c 128,-1,62
 289 879 289 879 359 901.5 c 128,-1,63
 429 924 429 924 510 924 c 0,64,65
 567 924 567 924 610 913 c 128,-1,66
 653 902 653 902 690.5 889 c 128,-1,67
 728 876 728 876 765.5 865 c 128,-1,68
 803 854 803 854 850 854 c 0,69,70
 863 854 863 854 882 855.5 c 128,-1,71
 901 857 901 857 921 857.5 c 128,-1,72
 941 858 941 858 960.5 859 c 128,-1,73
 980 860 980 860 993 860 c 0,74,75
 1019 860 1019 860 1028 848.5 c 128,-1,76
 1037 837 1037 837 1037 805 c 0,0,1
662 567 m 0,77,78
 662 603 662 603 655.5 652.5 c 128,-1,79
 649 702 649 702 632 747 c 128,-1,80
 615 792 615 792 585 823 c 128,-1,81
 555 854 555 854 507 854 c 0,82,83
 468 854 468 854 442 834.5 c 128,-1,84
 416 815 416 815 401 784.5 c 128,-1,85
 386 754 386 754 380 716 c 128,-1,86
 374 678 374 678 374 642 c 0,87,88
 374 595 374 595 380.5 545 c 128,-1,89
 387 495 387 495 404.5 453.5 c 128,-1,90
 422 412 422 412 453 385.5 c 128,-1,91
 484 359 484 359 533 359 c 0,92,93
 572 359 572 359 596.5 379 c 128,-1,94
 621 399 621 399 636 429.5 c 128,-1,95
 651 460 651 460 656.5 496.5 c 128,-1,96
 662 533 662 533 662 567 c 0,77,78
890 -146 m 0,97,98
 890 -116 890 -116 865.5 -99 c 128,-1,99
 841 -82 841 -82 807 -74 c 0,100,101
 769 -65 769 -65 707 -60.5 c 128,-1,102
 645 -56 645 -56 576.5 -53.5 c 128,-1,103
 508 -51 508 -51 442.5 -49 c 128,-1,104
 377 -47 377 -47 331 -44 c 1,105,106
 304 -76 304 -76 294.5 -102.5 c 128,-1,107
 285 -129 285 -129 285 -147 c 0,108,109
 285 -182 285 -182 318 -204.5 c 128,-1,110
 351 -227 351 -227 399.5 -239.5 c 128,-1,111
 448 -252 448 -252 503 -257.5 c 128,-1,112
 558 -263 558 -263 599 -263 c 0,113,114
 643 -263 643 -263 694 -257 c 128,-1,115
 745 -251 745 -251 788.5 -237.5 c 128,-1,116
 832 -224 832 -224 861 -202 c 128,-1,117
 890 -180 890 -180 890 -146 c 0,97,98
EndSplineSet
EndChar

StartChar: h
Encoding: 104 104 75
Width: 1130
GlyphClass: 2
Flags: W
LayerCount: 2
Fore
SplineSet
636 0 m 1,0,-1
 636 78 l 1,1,2
 667 78 667 78 687.5 81 c 128,-1,3
 708 84 708 84 720.5 98 c 128,-1,4
 733 112 733 112 738 140 c 128,-1,5
 743 168 743 168 743 216 c 2,6,-1
 743 569 l 2,7,8
 743 666 743 666 718.5 708.5 c 128,-1,9
 694 751 694 751 632 751 c 0,10,11
 611 751 611 751 588 740.5 c 128,-1,12
 565 730 565 730 541 712.5 c 128,-1,13
 517 695 517 695 494 672.5 c 128,-1,14
 471 650 471 650 448 627 c 1,15,-1
 448 217 l 2,16,17
 448 172 448 172 453.5 144.5 c 128,-1,18
 459 117 459 117 470.5 102.5 c 128,-1,19
 482 88 482 88 503 83 c 128,-1,20
 524 78 524 78 555 78 c 1,21,-1
 555 0 l 1,22,-1
 57 0 l 1,23,-1
 57 78 l 1,24,25
 92 78 92 78 114 84.5 c 128,-1,26
 136 91 136 91 148 106.5 c 128,-1,27
 160 122 160 122 164.5 148.5 c 128,-1,28
 169 175 169 175 169 217 c 2,29,-1
 169 1092 l 2,30,31
 169 1169 169 1169 154 1196.5 c 128,-1,32
 139 1224 139 1224 110 1224 c 0,33,34
 92 1224 92 1224 75 1220.5 c 128,-1,35
 58 1217 58 1217 40 1210 c 1,36,-1
 6 1276 l 1,37,-1
 370 1392 l 1,38,-1
 448 1392 l 1,39,-1
 448 737 l 1,40,41
 491 776 491 776 527.5 810 c 128,-1,42
 564 844 564 844 602 869 c 128,-1,43
 640 894 640 894 682.5 909 c 128,-1,44
 725 924 725 924 782 924 c 0,45,46
 853 924 853 924 900.5 894 c 128,-1,47
 948 864 948 864 975 815.5 c 128,-1,48
 1002 767 1002 767 1012.5 706.5 c 128,-1,49
 1023 646 1023 646 1023 586 c 2,50,-1
 1023 217 l 2,51,52
 1023 174 1023 174 1027.5 147 c 128,-1,53
 1032 120 1032 120 1043.5 104 c 128,-1,54
 1055 88 1055 88 1074.5 83 c 128,-1,55
 1094 78 1094 78 1124 78 c 1,56,-1
 1124 0 l 1,57,-1
 636 0 l 1,0,-1
EndSplineSet
EndChar

StartChar: i
Encoding: 105 105 76
Width: 630
GlyphClass: 2
Flags: W
LayerCount: 2
Fore
SplineSet
506 1253 m 0,0,1
 506 1219 506 1219 493.5 1189 c 128,-1,2
 481 1159 481 1159 459.5 1137 c 128,-1,3
 438 1115 438 1115 409.5 1102 c 128,-1,4
 381 1089 381 1089 347 1089 c 256,5,6
 313 1089 313 1089 284 1101.5 c 128,-1,7
 255 1114 255 1114 233 1135.5 c 128,-1,8
 211 1157 211 1157 198 1187.5 c 128,-1,9
 185 1218 185 1218 185 1253 c 0,10,11
 185 1287 185 1287 198 1316 c 128,-1,12
 211 1345 211 1345 233 1366 c 128,-1,13
 255 1387 255 1387 284 1398.5 c 128,-1,14
 313 1410 313 1410 347 1410 c 0,15,16
 378 1410 378 1410 407.5 1398 c 128,-1,17
 437 1386 437 1386 458.5 1364.5 c 128,-1,18
 480 1343 480 1343 493 1314 c 128,-1,19
 506 1285 506 1285 506 1253 c 0,0,1
100 0 m 1,20,-1
 100 78 l 1,21,22
 135 78 135 78 156.5 84 c 128,-1,23
 178 90 178 90 189.5 105 c 128,-1,24
 201 120 201 120 206 147 c 128,-1,25
 211 174 211 174 211 217 c 2,26,-1
 211 624 l 2,27,28
 211 702 211 702 199 729 c 128,-1,29
 187 756 187 756 156 756 c 0,30,31
 139 756 139 756 114.5 752.5 c 128,-1,32
 90 749 90 749 71 742 c 1,33,-1
 48 815 l 1,34,-1
 412 924 l 1,35,-1
 490 924 l 1,36,-1
 490 216 l 2,37,38
 490 173 490 173 495 146.5 c 128,-1,39
 500 120 500 120 512.5 104 c 128,-1,40
 525 88 525 88 546 83 c 128,-1,41
 567 78 567 78 598 78 c 1,42,-1
 598 0 l 1,43,-1
 100 0 l 1,20,-1
EndSplineSet
EndChar

StartChar: j
Encoding: 106 106 77
Width: 677
GlyphClass: 2
Flags: W
LayerCount: 2
Fore
SplineSet
523 1254 m 0,0,1
 523 1220 523 1220 510 1189.5 c 128,-1,2
 497 1159 497 1159 474 1137 c 128,-1,3
 451 1115 451 1115 421 1102 c 128,-1,4
 391 1089 391 1089 357 1089 c 0,5,6
 288 1089 288 1089 243 1135.5 c 128,-1,7
 198 1182 198 1182 198 1254 c 0,8,9
 198 1286 198 1286 211 1315 c 128,-1,10
 224 1344 224 1344 246 1365.5 c 128,-1,11
 268 1387 268 1387 296.5 1399.5 c 128,-1,12
 325 1412 325 1412 357 1412 c 256,13,14
 389 1412 389 1412 419.5 1399.5 c 128,-1,15
 450 1387 450 1387 472.5 1365.5 c 128,-1,16
 495 1344 495 1344 509 1315 c 128,-1,17
 523 1286 523 1286 523 1254 c 0,0,1
503 109 m 2,18,19
 503 -7 503 -7 470.5 -106 c 128,-1,20
 438 -205 438 -205 377.5 -278 c 128,-1,21
 317 -351 317 -351 230 -392.5 c 128,-1,22
 143 -434 143 -434 34 -434 c 0,23,24
 -67 -434 -67 -434 -124 -394.5 c 128,-1,25
 -181 -355 -181 -355 -181 -289 c 0,26,27
 -181 -268 -181 -268 -171.5 -247 c 128,-1,28
 -162 -226 -162 -226 -146.5 -209 c 128,-1,29
 -131 -192 -131 -192 -109 -182.5 c 128,-1,30
 -87 -173 -87 -173 -60 -173 c 0,31,32
 -25 -173 -25 -173 -1.5 -184.5 c 128,-1,33
 22 -196 22 -196 38.5 -213 c 128,-1,34
 55 -230 55 -230 66.5 -250 c 128,-1,35
 78 -270 78 -270 89 -287 c 128,-1,36
 100 -304 100 -304 113.5 -316 c 128,-1,37
 127 -328 127 -328 148 -328 c 0,38,39
 177 -328 177 -328 192 -305.5 c 128,-1,40
 207 -283 207 -283 214 -248 c 128,-1,41
 221 -213 221 -213 222.5 -169 c 128,-1,42
 224 -125 224 -125 224 -81 c 2,43,-1
 224 624 l 2,44,45
 224 702 224 702 212 729 c 128,-1,46
 200 756 200 756 169 756 c 0,47,48
 152 756 152 756 126.5 752.5 c 128,-1,49
 101 749 101 749 84 742 c 1,50,-1
 61 815 l 1,51,-1
 425 924 l 1,52,-1
 503 924 l 1,53,-1
 503 109 l 2,18,19
EndSplineSet
EndChar

StartChar: k
Encoding: 107 107 78
Width: 1141
GlyphClass: 2
Flags: W
LayerCount: 2
Fore
SplineSet
617 0 m 1,0,-1
 617 78 l 1,1,2
 646 78 646 78 667 84 c 128,-1,3
 688 90 688 90 688 112 c 0,4,5
 688 122 688 122 677.5 141.5 c 128,-1,6
 667 161 667 161 655 178 c 2,7,-1
 446 456 l 1,8,-1
 446 217 l 2,9,10
 446 170 446 170 451 142 c 128,-1,11
 456 114 456 114 468 100 c 128,-1,12
 480 86 480 86 500.5 82 c 128,-1,13
 521 78 521 78 552 78 c 1,14,-1
 552 0 l 1,15,-1
 55 0 l 1,16,-1
 55 78 l 1,17,18
 90 78 90 78 112 84.5 c 128,-1,19
 134 91 134 91 145.5 106.5 c 128,-1,20
 157 122 157 122 161.5 148.5 c 128,-1,21
 166 175 166 175 166 217 c 2,22,-1
 166 1092 l 2,23,24
 166 1169 166 1169 151 1196.5 c 128,-1,25
 136 1224 136 1224 108 1224 c 0,26,27
 91 1224 91 1224 72 1220.5 c 128,-1,28
 53 1217 53 1217 38 1210 c 1,29,-1
 4 1276 l 1,30,-1
 368 1392 l 1,31,-1
 446 1392 l 1,32,-1
 446 516 l 1,33,-1
 659 703 l 2,34,35
 675 717 675 717 688 733.5 c 128,-1,36
 701 750 701 750 701 768 c 0,37,38
 701 781 701 781 694.5 790 c 128,-1,39
 688 799 688 799 677.5 805 c 128,-1,40
 667 811 667 811 654.5 814.5 c 128,-1,41
 642 818 642 818 630 819 c 1,42,-1
 630 897 l 1,43,-1
 1084 897 l 1,44,-1
 1084 819 l 1,45,46
 1042 816 1042 816 1011 810.5 c 128,-1,47
 980 805 980 805 953.5 792.5 c 128,-1,48
 927 780 927 780 902 760.5 c 128,-1,49
 877 741 877 741 847 712 c 2,50,-1
 694 564 l 1,51,-1
 968 192 l 2,52,53
 997 149 997 149 1019.5 126 c 128,-1,54
 1042 103 1042 103 1063 92.5 c 128,-1,55
 1084 82 1084 82 1104 80 c 128,-1,56
 1124 78 1124 78 1148 78 c 1,57,-1
 1148 0 l 1,58,-1
 617 0 l 1,0,-1
EndSplineSet
EndChar

StartChar: l
Encoding: 108 108 79
Width: 687
GlyphClass: 2
Flags: W
LayerCount: 2
Fore
SplineSet
118 0 m 1,0,-1
 118 78 l 1,1,2
 153 78 153 78 175.5 84.5 c 128,-1,3
 198 91 198 91 209.5 106.5 c 128,-1,4
 221 122 221 122 225.5 148.5 c 128,-1,5
 230 175 230 175 230 217 c 2,6,-1
 230 1092 l 2,7,8
 230 1169 230 1169 215 1196.5 c 128,-1,9
 200 1224 200 1224 172 1224 c 0,10,11
 154 1224 154 1224 136 1220.5 c 128,-1,12
 118 1217 118 1217 101 1210 c 1,13,-1
 71 1278 l 1,14,-1
 432 1392 l 1,15,-1
 510 1392 l 1,16,-1
 510 217 l 2,17,18
 510 172 510 172 515 144.5 c 128,-1,19
 520 117 520 117 532.5 102.5 c 128,-1,20
 545 88 545 88 565 83 c 128,-1,21
 585 78 585 78 616 78 c 1,22,-1
 616 0 l 1,23,-1
 118 0 l 1,0,-1
EndSplineSet
EndChar

StartChar: m
Encoding: 109 109 80
Width: 1718
GlyphClass: 2
Flags: W
LayerCount: 2
Fore
SplineSet
1217 0 m 1,0,-1
 1217 78 l 1,1,2
 1248 78 1248 78 1268.5 81 c 128,-1,3
 1289 84 1289 84 1301.5 98.5 c 128,-1,4
 1314 113 1314 113 1319.5 140.5 c 128,-1,5
 1325 168 1325 168 1325 217 c 2,6,-1
 1325 569 l 2,7,8
 1325 666 1325 666 1300 708.5 c 128,-1,9
 1275 751 1275 751 1213 751 c 0,10,11
 1171 751 1171 751 1122.5 724.5 c 128,-1,12
 1074 698 1074 698 1029 650 c 1,13,-1
 1029 216 l 2,14,15
 1029 173 1029 173 1034 145.5 c 128,-1,16
 1039 118 1039 118 1050.5 103 c 128,-1,17
 1062 88 1062 88 1081.5 83 c 128,-1,18
 1101 78 1101 78 1131 78 c 1,19,-1
 1131 0 l 1,20,-1
 642 0 l 1,21,-1
 642 78 l 1,22,23
 673 78 673 78 694 81 c 128,-1,24
 715 84 715 84 727.5 98.5 c 128,-1,25
 740 113 740 113 745 140.5 c 128,-1,26
 750 168 750 168 750 217 c 2,27,-1
 750 571 l 2,28,29
 750 668 750 668 725.5 709.5 c 128,-1,30
 701 751 701 751 638 751 c 0,31,32
 596 751 596 751 547.5 724.5 c 128,-1,33
 499 698 499 698 455 650 c 1,34,-1
 455 217 l 2,35,36
 455 174 455 174 460 147 c 128,-1,37
 465 120 465 120 477 105 c 128,-1,38
 489 90 489 90 509.5 84 c 128,-1,39
 530 78 530 78 562 78 c 1,40,-1
 562 0 l 1,41,-1
 65 0 l 1,42,-1
 65 78 l 1,43,44
 99 78 99 78 120.5 84 c 128,-1,45
 142 90 142 90 154 105 c 128,-1,46
 166 120 166 120 170.5 147 c 128,-1,47
 175 174 175 174 175 217 c 2,48,-1
 175 624 l 2,49,50
 175 702 175 702 163.5 729 c 128,-1,51
 152 756 152 756 121 756 c 0,52,53
 104 756 104 756 78 752.5 c 128,-1,54
 52 749 52 749 36 742 c 1,55,-1
 13 815 l 1,56,-1
 377 924 l 1,57,-1
 455 924 l 1,58,-1
 455 760 l 1,59,60
 498 789 498 789 533.5 818 c 128,-1,61
 569 847 569 847 607.5 870.5 c 128,-1,62
 646 894 646 894 689 909 c 128,-1,63
 732 924 732 924 788 924 c 0,64,65
 836 924 836 924 871.5 911 c 128,-1,66
 907 898 907 898 934 874.5 c 128,-1,67
 961 851 961 851 979 818.5 c 128,-1,68
 997 786 997 786 1009 747 c 1,69,70
 1040 783 1040 783 1078.5 815 c 128,-1,71
 1117 847 1117 847 1161 871.5 c 128,-1,72
 1205 896 1205 896 1255.5 910 c 128,-1,73
 1306 924 1306 924 1362 924 c 0,74,75
 1435 924 1435 924 1482 894 c 128,-1,76
 1529 864 1529 864 1556 816 c 128,-1,77
 1583 768 1583 768 1594 707.5 c 128,-1,78
 1605 647 1605 647 1605 586 c 2,79,-1
 1605 217 l 2,80,81
 1605 174 1605 174 1609.5 147 c 128,-1,82
 1614 120 1614 120 1626 104 c 128,-1,83
 1638 88 1638 88 1656.5 83 c 128,-1,84
 1675 78 1675 78 1705 78 c 1,85,-1
 1705 0 l 1,86,-1
 1217 0 l 1,0,-1
EndSplineSet
EndChar

StartChar: n
Encoding: 110 110 81
Width: 1130
GlyphClass: 2
Flags: W
LayerCount: 2
Fore
SplineSet
636 0 m 1,0,-1
 636 78 l 1,1,2
 667 78 667 78 687.5 81 c 128,-1,3
 708 84 708 84 720.5 98 c 128,-1,4
 733 112 733 112 738 140 c 128,-1,5
 743 168 743 168 743 216 c 2,6,-1
 743 569 l 2,7,8
 743 666 743 666 718.5 708.5 c 128,-1,9
 694 751 694 751 632 751 c 0,10,11
 590 751 590 751 541.5 724.5 c 128,-1,12
 493 698 493 698 448 650 c 1,13,-1
 448 216 l 2,14,15
 448 173 448 173 453.5 146.5 c 128,-1,16
 459 120 459 120 470.5 105 c 128,-1,17
 482 90 482 90 503 84 c 128,-1,18
 524 78 524 78 555 78 c 1,19,-1
 555 0 l 1,20,-1
 58 0 l 1,21,-1
 58 78 l 1,22,23
 93 78 93 78 114.5 83 c 128,-1,24
 136 88 136 88 148 104 c 128,-1,25
 160 120 160 120 164.5 146.5 c 128,-1,26
 169 173 169 173 169 216 c 2,27,-1
 169 624 l 2,28,29
 169 702 169 702 157.5 729 c 128,-1,30
 146 756 146 756 114 756 c 0,31,32
 97 756 97 756 72 752.5 c 128,-1,33
 47 749 47 749 30 742 c 1,34,-1
 6 815 l 1,35,-1
 370 924 l 1,36,-1
 448 924 l 1,37,-1
 448 760 l 1,38,39
 491 789 491 789 527 818 c 128,-1,40
 563 847 563 847 601.5 870.5 c 128,-1,41
 640 894 640 894 682.5 909 c 128,-1,42
 725 924 725 924 781 924 c 0,43,44
 854 924 854 924 901 894 c 128,-1,45
 948 864 948 864 975 815.5 c 128,-1,46
 1002 767 1002 767 1012.5 706.5 c 128,-1,47
 1023 646 1023 646 1023 586 c 2,48,-1
 1023 216 l 2,49,50
 1023 173 1023 173 1027.5 146.5 c 128,-1,51
 1032 120 1032 120 1043.5 104 c 128,-1,52
 1055 88 1055 88 1074.5 83 c 128,-1,53
 1094 78 1094 78 1124 78 c 1,54,-1
 1124 0 l 1,55,-1
 636 0 l 1,0,-1
EndSplineSet
EndChar

StartChar: o
Encoding: 111 111 82
Width: 1016
GlyphClass: 2
Flags: W
LayerCount: 2
Fore
SplineSet
961 467 m 0,0,1
 961 367 961 367 930 277 c 128,-1,2
 899 187 899 187 841.5 119 c 128,-1,3
 784 51 784 51 701.5 10.5 c 128,-1,4
 619 -30 619 -30 515 -30 c 0,5,6
 407 -30 407 -30 321 9 c 128,-1,7
 235 48 235 48 176 113.5 c 128,-1,8
 117 179 117 179 85 263.5 c 128,-1,9
 53 348 53 348 53 439 c 0,10,11
 53 533 53 533 84.5 620.5 c 128,-1,12
 116 708 116 708 174.5 776 c 128,-1,13
 233 844 233 844 316 884 c 128,-1,14
 399 924 399 924 504 924 c 0,15,16
 605 924 605 924 690 888.5 c 128,-1,17
 775 853 775 853 834.5 790.5 c 128,-1,18
 894 728 894 728 927.5 645 c 128,-1,19
 961 562 961 562 961 467 c 0,0,1
677 389 m 0,20,21
 677 468 677 468 663.5 546.5 c 128,-1,22
 650 625 650 625 622.5 687.5 c 128,-1,23
 595 750 595 750 555.5 788.5 c 128,-1,24
 516 827 516 827 464 827 c 0,25,26
 442 827 442 827 419 812 c 128,-1,27
 396 797 396 797 378.5 762 c 128,-1,28
 361 727 361 727 350 668.5 c 128,-1,29
 339 610 339 610 339 521 c 0,30,31
 339 429 339 429 358 347 c 128,-1,32
 377 265 377 265 408 203.5 c 128,-1,33
 439 142 439 142 479 105.5 c 128,-1,34
 519 69 519 69 560 69 c 0,35,36
 617 69 617 69 647 142.5 c 128,-1,37
 677 216 677 216 677 389 c 0,20,21
EndSplineSet
EndChar

StartChar: p
Encoding: 112 112 83
Width: 1120
GlyphClass: 2
Flags: W
LayerCount: 2
Fore
SplineSet
1059 524 m 0,0,1
 1059 407 1059 407 1032.5 305.5 c 128,-1,2
 1006 204 1006 204 950 130 c 128,-1,3
 894 56 894 56 809.5 13 c 128,-1,4
 725 -30 725 -30 610 -30 c 0,5,6
 566 -30 566 -30 515 -14.5 c 128,-1,7
 464 1 464 1 435 27 c 1,8,-1
 435 -214 l 2,9,10
 435 -259 435 -259 440.5 -287 c 128,-1,11
 446 -315 446 -315 457.5 -329 c 128,-1,12
 469 -343 469 -343 490 -348.5 c 128,-1,13
 511 -354 511 -354 542 -354 c 1,14,-1
 542 -432 l 1,15,-1
 44 -432 l 1,16,-1
 44 -354 l 1,17,18
 79 -354 79 -354 101 -347.5 c 128,-1,19
 123 -341 123 -341 135 -325 c 128,-1,20
 147 -309 147 -309 151.5 -282.5 c 128,-1,21
 156 -256 156 -256 156 -214 c 2,22,-1
 156 621 l 2,23,24
 156 698 156 698 141 726 c 128,-1,25
 126 754 126 754 97 754 c 0,26,27
 79 754 79 754 62 750 c 128,-1,28
 45 746 45 746 27 740 c 1,29,-1
 -6 806 l 1,30,-1
 357 922 l 1,31,-1
 435 922 l 1,32,-1
 435 742 l 1,33,34
 505 839 505 839 579 881.5 c 128,-1,35
 653 924 653 924 730 924 c 0,36,37
 794 924 794 924 853 896 c 128,-1,38
 912 868 912 868 958.5 816 c 128,-1,39
 1005 764 1005 764 1032 690 c 128,-1,40
 1059 616 1059 616 1059 524 c 0,0,1
771 425 m 0,41,42
 771 483 771 483 762 540 c 128,-1,43
 753 597 753 597 732.5 641.5 c 128,-1,44
 712 686 712 686 679.5 713.5 c 128,-1,45
 647 741 647 741 602 741 c 0,46,47
 567 741 567 741 525.5 718 c 128,-1,48
 484 695 484 695 435 645 c 1,49,-1
 435 233 l 2,50,51
 435 147 435 147 477 103.5 c 128,-1,52
 519 60 519 60 594 60 c 0,53,54
 628 60 628 60 659.5 77.5 c 128,-1,55
 691 95 691 95 716 136.5 c 128,-1,56
 741 178 741 178 756 249 c 128,-1,57
 771 320 771 320 771 425 c 0,41,42
EndSplineSet
EndChar

StartChar: q
Encoding: 113 113 84
Width: 1108
GlyphClass: 2
Flags: W
LayerCount: 2
Fore
SplineSet
568 -432 m 1,0,-1
 568 -354 l 1,1,2
 616 -354 616 -354 643.5 -346.5 c 128,-1,3
 671 -339 671 -339 683 -324 c 128,-1,4
 695 -309 695 -309 698 -286.5 c 128,-1,5
 701 -264 701 -264 701 -231 c 2,6,-1
 701 96 l 1,7,8
 637 30 637 30 575 0 c 128,-1,9
 513 -30 513 -30 435 -30 c 0,10,11
 370 -30 370 -30 304.5 -4 c 128,-1,12
 239 22 239 22 186 75.5 c 128,-1,13
 133 129 133 129 99 212 c 128,-1,14
 65 295 65 295 65 408 c 0,15,16
 65 513 65 513 100.5 607 c 128,-1,17
 136 701 136 701 198.5 771 c 128,-1,18
 261 841 261 841 347 882.5 c 128,-1,19
 433 924 433 924 534 924 c 0,20,21
 613 924 613 924 677.5 895.5 c 128,-1,22
 742 867 742 867 782 834 c 1,23,24
 798 840 798 840 815 853 c 128,-1,25
 832 866 832 866 849 879.5 c 128,-1,26
 866 893 866 893 882.5 905.5 c 128,-1,27
 899 918 899 918 915 924 c 1,28,-1
 975 924 l 1,29,-1
 975 -231 l 2,30,31
 975 -262 975 -262 979.5 -285 c 128,-1,32
 984 -308 984 -308 999.5 -323.5 c 128,-1,33
 1015 -339 1015 -339 1043.5 -346.5 c 128,-1,34
 1072 -354 1072 -354 1122 -354 c 1,35,-1
 1122 -432 l 1,36,-1
 568 -432 l 1,0,-1
701 666 m 2,37,38
 701 697 701 697 691 728 c 128,-1,39
 681 759 681 759 661 784.5 c 128,-1,40
 641 810 641 810 611 825.5 c 128,-1,41
 581 841 581 841 541 841 c 0,42,43
 497 841 497 841 459 823 c 128,-1,44
 421 805 421 805 394 764 c 128,-1,45
 367 723 367 723 352 656.5 c 128,-1,46
 337 590 337 590 337 494 c 0,47,48
 337 402 337 402 355.5 331.5 c 128,-1,49
 374 261 374 261 404 213.5 c 128,-1,50
 434 166 434 166 471 142 c 128,-1,51
 508 118 508 118 546 118 c 0,52,53
 589 118 589 118 626 141.5 c 128,-1,54
 663 165 663 165 701 203 c 1,55,-1
 701 666 l 2,37,38
EndSplineSet
EndChar

StartChar: r
Encoding: 114 114 85
Width: 877
GlyphClass: 2
Flags: W
LayerCount: 2
Fore
SplineSet
715 924 m 0,0,1
 746 924 746 924 774.5 914.5 c 128,-1,2
 803 905 803 905 824.5 887.5 c 128,-1,3
 846 870 846 870 858.5 844.5 c 128,-1,4
 871 819 871 819 871 788 c 0,5,6
 871 737 871 737 843 698 c 128,-1,7
 815 659 815 659 755 659 c 0,8,9
 716 659 716 659 691 672.5 c 128,-1,10
 666 686 666 686 647 701.5 c 128,-1,11
 628 717 628 717 612.5 731 c 128,-1,12
 597 745 597 745 578 745 c 0,13,14
 564 745 564 745 548 732 c 128,-1,15
 532 719 532 719 515 696 c 128,-1,16
 498 673 498 673 481 644.5 c 128,-1,17
 464 616 464 616 448 585 c 1,18,-1
 448 216 l 2,19,20
 448 173 448 173 453.5 146.5 c 128,-1,21
 459 120 459 120 470.5 105 c 128,-1,22
 482 90 482 90 503 84 c 128,-1,23
 524 78 524 78 555 78 c 1,24,-1
 555 0 l 1,25,-1
 58 0 l 1,26,-1
 58 78 l 1,27,28
 93 78 93 78 114.5 83 c 128,-1,29
 136 88 136 88 148 104 c 128,-1,30
 160 120 160 120 164.5 146.5 c 128,-1,31
 169 173 169 173 169 216 c 2,32,-1
 169 624 l 2,33,34
 169 702 169 702 157.5 729 c 128,-1,35
 146 756 146 756 114 756 c 0,36,37
 98 756 98 756 71 752.5 c 128,-1,38
 44 749 44 749 30 742 c 1,39,-1
 6 815 l 1,40,-1
 370 924 l 1,41,-1
 448 924 l 1,42,-1
 448 734 l 1,43,44
 470 769 470 769 500 803.5 c 128,-1,45
 530 838 530 838 564 865 c 128,-1,46
 598 892 598 892 636.5 908 c 128,-1,47
 675 924 675 924 715 924 c 0,0,1
EndSplineSet
EndChar

StartChar: s
Encoding: 115 115 86
Width: 870
GlyphClass: 2
Flags: W
LayerCount: 2
Fore
SplineSet
786 257 m 0,0,1
 786 189 786 189 761.5 136 c 128,-1,2
 737 83 737 83 693.5 46 c 128,-1,3
 650 9 650 9 591 -10.5 c 128,-1,4
 532 -30 532 -30 464 -30 c 0,5,6
 417 -30 417 -30 377 -20 c 128,-1,7
 337 -10 337 -10 303.5 1.5 c 128,-1,8
 270 13 270 13 246 22.5 c 128,-1,9
 222 32 222 32 209 32 c 0,10,11
 203 32 203 32 197.5 24.5 c 128,-1,12
 192 17 192 17 187.5 7 c 128,-1,13
 183 -3 183 -3 180 -12.5 c 128,-1,14
 177 -22 177 -22 174 -26 c 1,15,-1
 99 -26 l 1,16,-1
 99 346 l 1,17,-1
 174 346 l 1,18,19
 184 293 184 293 207 241.5 c 128,-1,20
 230 190 230 190 263 149 c 128,-1,21
 296 108 296 108 340.5 83 c 128,-1,22
 385 58 385 58 438 58 c 0,23,24
 502 58 502 58 528 89 c 128,-1,25
 554 120 554 120 554 165 c 0,26,27
 554 212 554 212 520 244.5 c 128,-1,28
 486 277 486 277 436 305.5 c 128,-1,29
 386 334 386 334 327.5 364 c 128,-1,30
 269 394 269 394 219 433 c 128,-1,31
 169 472 169 472 135 526 c 128,-1,32
 101 580 101 580 101 658 c 0,33,34
 101 720 101 720 125 769.5 c 128,-1,35
 149 819 149 819 189.5 853.5 c 128,-1,36
 230 888 230 888 282 906 c 128,-1,37
 334 924 334 924 391 924 c 0,38,39
 431 924 431 924 465.5 919 c 128,-1,40
 500 914 500 914 530 906.5 c 128,-1,41
 560 899 560 899 586 894 c 128,-1,42
 612 889 612 889 637 889 c 0,43,44
 655 889 655 889 666 906 c 128,-1,45
 677 923 677 923 684 937 c 1,46,-1
 749 937 l 1,47,-1
 749 591 l 1,48,-1
 673 591 l 1,49,50
 657 643 657 643 630.5 689.5 c 128,-1,51
 604 736 604 736 570 769.5 c 128,-1,52
 536 803 536 803 495 822.5 c 128,-1,53
 454 842 454 842 408 842 c 0,54,55
 355 842 355 842 326.5 816 c 128,-1,56
 298 790 298 790 298 750 c 0,57,58
 298 703 298 703 334 669.5 c 128,-1,59
 370 636 370 636 424 606 c 128,-1,60
 478 576 478 576 542 546 c 128,-1,61
 606 516 606 516 660 477 c 128,-1,62
 714 438 714 438 750 385 c 128,-1,63
 786 332 786 332 786 257 c 0,0,1
EndSplineSet
EndChar

StartChar: t
Encoding: 116 116 87
Width: 707
GlyphClass: 2
Flags: W
LayerCount: 2
Fore
SplineSet
694 256 m 1,0,1
 688 218 688 218 668.5 169.5 c 128,-1,2
 649 121 649 121 612 76 c 128,-1,3
 575 31 575 31 518 0.5 c 128,-1,4
 461 -30 461 -30 382 -30 c 0,5,6
 277 -30 277 -30 221 48.5 c 128,-1,7
 165 127 165 127 165 273 c 2,8,-1
 165 801 l 1,9,-1
 10 801 l 1,10,-1
 10 860 l 1,11,12
 63 869 63 869 116 900 c 128,-1,13
 169 931 169 931 217 976.5 c 128,-1,14
 265 1022 265 1022 306.5 1077.5 c 128,-1,15
 348 1133 348 1133 380 1193 c 1,16,-1
 445 1193 l 1,17,-1
 445 897 l 1,18,-1
 681 897 l 1,19,-1
 681 801 l 1,20,-1
 445 801 l 1,21,-1
 445 309 l 2,22,23
 445 221 445 221 464.5 184.5 c 128,-1,24
 484 148 484 148 523 148 c 0,25,26
 555 148 555 148 583 177.5 c 128,-1,27
 611 207 611 207 630 256 c 1,28,-1
 694 256 l 1,0,1
EndSplineSet
EndChar

StartChar: u
Encoding: 117 117 88
Width: 1130
GlyphClass: 2
Flags: W
LayerCount: 2
Fore
SplineSet
767 -30 m 1,0,-1
 689 -30 l 1,1,-1
 689 147 l 1,2,3
 664 120 664 120 629.5 88.5 c 128,-1,4
 595 57 595 57 553.5 31 c 128,-1,5
 512 5 512 5 462 -12.5 c 128,-1,6
 412 -30 412 -30 356 -30 c 0,7,8
 283 -30 283 -30 236.5 -2.5 c 128,-1,9
 190 25 190 25 162.5 71 c 128,-1,10
 135 117 135 117 124.5 178 c 128,-1,11
 114 239 114 239 114 308 c 2,12,-1
 114 678 l 2,13,14
 114 721 114 721 109 748 c 128,-1,15
 104 775 104 775 89.5 790.5 c 128,-1,16
 75 806 75 806 50.5 811 c 128,-1,17
 26 816 26 816 -13 816 c 1,18,-1
 -13 897 l 1,19,-1
 394 897 l 1,20,-1
 394 325 l 2,21,22
 394 228 394 228 418.5 185.5 c 128,-1,23
 443 143 443 143 506 143 c 0,24,25
 548 143 548 143 596.5 175 c 128,-1,26
 645 207 645 207 689 257 c 1,27,-1
 689 678 l 2,28,29
 689 721 689 721 683.5 748 c 128,-1,30
 678 775 678 775 663.5 790.5 c 128,-1,31
 649 806 649 806 623 811 c 128,-1,32
 597 816 597 816 556 816 c 1,33,-1
 556 897 l 1,34,-1
 968 897 l 1,35,-1
 968 270 l 2,36,37
 968 192 968 192 980 165 c 128,-1,38
 992 138 992 138 1023 138 c 0,39,40
 1040 138 1040 138 1065.5 142 c 128,-1,41
 1091 146 1091 146 1107 152 c 1,42,-1
 1131 79 l 1,43,-1
 767 -30 l 1,0,-1
EndSplineSet
EndChar

StartChar: v
Encoding: 118 118 89
Width: 1020
GlyphClass: 2
Flags: W
LayerCount: 2
Fore
SplineSet
1018 819 m 1,0,1
 956 816 956 816 924 785.5 c 128,-1,2
 892 755 892 755 868 701 c 2,3,-1
 555 -30 l 1,4,-1
 477 -30 l 1,5,-1
 162 690 l 2,6,7
 145 729 145 729 129.5 752 c 128,-1,8
 114 775 114 775 96 788 c 128,-1,9
 78 801 78 801 54 807.5 c 128,-1,10
 30 814 30 814 -3 819 c 1,11,-1
 -3 897 l 1,12,-1
 541 897 l 1,13,-1
 541 819 l 1,14,15
 485 819 485 819 462 801.5 c 128,-1,16
 439 784 439 784 439 749 c 0,17,18
 439 732 439 732 444 710 c 0,19,20
 450 690 450 690 460 666 c 2,21,-1
 602 341 l 1,22,-1
 750 690 l 2,23,24
 766 725 766 725 766 751 c 0,25,26
 766 783 766 783 740.5 801 c 128,-1,27
 715 819 715 819 659 819 c 1,28,-1
 659 897 l 1,29,-1
 1018 897 l 1,30,-1
 1018 819 l 1,0,1
EndSplineSet
EndChar

StartChar: w
Encoding: 119 119 90
Width: 1488
GlyphClass: 2
Flags: W
LayerCount: 2
Fore
SplineSet
1486 819 m 1,0,1
 1463 815 1463 815 1442 810 c 128,-1,2
 1421 805 1421 805 1403.5 793 c 128,-1,3
 1386 781 1386 781 1371 761 c 128,-1,4
 1356 741 1356 741 1341 706 c 2,5,-1
 1042 -30 l 1,6,-1
 966 -30 l 1,7,-1
 762 465 l 1,8,-1
 520 -30 l 1,9,-1
 445 -30 l 1,10,-1
 144 685 l 2,11,12
 130 717 130 717 116.5 740 c 128,-1,13
 103 763 103 763 86.5 779 c 128,-1,14
 70 795 70 795 48 804.5 c 128,-1,15
 26 814 26 814 -3 819 c 1,16,-1
 -3 897 l 1,17,-1
 478 897 l 1,18,-1
 478 819 l 1,19,20
 436 819 436 819 419.5 804.5 c 128,-1,21
 403 790 403 790 403 759 c 0,22,23
 403 745 403 745 410 723.5 c 128,-1,24
 417 702 417 702 424 685 c 2,25,-1
 577 324 l 1,26,-1
 711 598 l 1,27,28
 689 656 689 656 673.5 697 c 128,-1,29
 658 738 658 738 641.5 765 c 128,-1,30
 625 792 625 792 603 805 c 128,-1,31
 581 818 581 818 545 819 c 1,32,-1
 545 897 l 1,33,-1
 1039 897 l 1,34,-1
 1039 819 l 1,35,36
 936 819 936 819 936 759 c 0,37,38
 936 749 936 749 945 719.5 c 128,-1,39
 954 690 954 690 968.5 652 c 128,-1,40
 983 614 983 614 1000.5 569.5 c 128,-1,41
 1018 525 1018 525 1035 484 c 128,-1,42
 1052 443 1052 443 1066 410 c 128,-1,43
 1080 377 1080 377 1088 360 c 1,44,-1
 1219 685 l 2,45,46
 1227 703 1227 703 1232 721.5 c 128,-1,47
 1237 740 1237 740 1237 755 c 0,48,49
 1237 784 1237 784 1214 801.5 c 128,-1,50
 1191 819 1191 819 1139 819 c 1,51,-1
 1139 897 l 1,52,-1
 1486 897 l 1,53,-1
 1486 819 l 1,0,1
EndSplineSet
EndChar

StartChar: x
Encoding: 120 120 91
Width: 1042
GlyphClass: 2
Flags: W
LayerCount: 2
Fore
SplineSet
484 776 m 0,0,1
 484 770 484 770 498.5 747.5 c 128,-1,2
 513 725 513 725 532 699 c 0,3,4
 554 669 554 669 581 634 c 1,5,6
 587 642 587 642 604 663.5 c 128,-1,7
 621 685 621 685 639.5 709.5 c 128,-1,8
 658 734 658 734 672 755 c 128,-1,9
 686 776 686 776 686 784 c 0,10,11
 686 800 686 800 668.5 809.5 c 128,-1,12
 651 819 651 819 632 819 c 1,13,-1
 632 897 l 1,14,-1
 962 897 l 1,15,-1
 962 819 l 1,16,17
 911 818 911 818 869.5 792.5 c 128,-1,18
 828 767 828 767 790.5 727.5 c 128,-1,19
 753 688 753 688 717.5 639.5 c 128,-1,20
 682 591 682 591 643 545 c 1,21,-1
 881 198 l 2,22,23
 906 163 906 163 923 139.5 c 128,-1,24
 940 116 940 116 955.5 102 c 128,-1,25
 971 88 971 88 988.5 83 c 128,-1,26
 1006 78 1006 78 1032 78 c 1,27,-1
 1032 0 l 1,28,-1
 504 0 l 1,29,-1
 504 78 l 1,30,31
 543 78 543 78 566.5 88.5 c 128,-1,32
 590 99 590 99 590 125 c 0,33,34
 590 130 590 130 574.5 156 c 128,-1,35
 559 182 559 182 539 214.5 c 128,-1,36
 519 247 519 247 498 277.5 c 128,-1,37
 477 308 477 308 467 324 c 1,38,39
 409 254 409 254 374 200 c 128,-1,40
 339 146 339 146 339 121 c 0,41,42
 339 103 339 103 358 90.5 c 128,-1,43
 377 78 377 78 406 78 c 1,44,-1
 406 0 l 1,45,-1
 35 0 l 1,46,-1
 35 78 l 1,47,48
 90 78 90 78 136.5 107 c 128,-1,49
 183 136 183 136 243 205 c 1,50,-1
 403 419 l 1,51,-1
 181 719 l 2,52,53
 156 753 156 753 135 772.5 c 128,-1,54
 114 792 114 792 94.5 802 c 128,-1,55
 75 812 75 812 55.5 815.5 c 128,-1,56
 36 819 36 819 13 819 c 1,57,-1
 13 897 l 1,58,-1
 541 897 l 1,59,-1
 541 819 l 1,60,-1
 530 819 l 2,61,62
 504 819 504 819 494 806.5 c 128,-1,63
 484 794 484 794 484 776 c 0,0,1
EndSplineSet
EndChar

StartChar: y
Encoding: 121 121 92
Width: 1041
GlyphClass: 2
Flags: W
LayerCount: 2
Fore
SplineSet
1039 819 m 1,0,1
 977 816 977 816 944.5 786 c 128,-1,2
 912 756 912 756 889 701 c 2,3,-1
 539 -133 l 2,4,5
 505 -214 505 -214 464.5 -271 c 128,-1,6
 424 -328 424 -328 378.5 -364 c 128,-1,7
 333 -400 333 -400 285.5 -417 c 128,-1,8
 238 -434 238 -434 191 -434 c 0,9,10
 157 -434 157 -434 123.5 -425 c 128,-1,11
 90 -416 90 -416 61 -397 c 128,-1,12
 32 -378 32 -378 14.5 -349.5 c 128,-1,13
 -3 -321 -3 -321 -3 -282 c 0,14,15
 -3 -246 -3 -246 8 -221 c 128,-1,16
 19 -196 19 -196 37 -180.5 c 128,-1,17
 55 -165 55 -165 77 -158 c 128,-1,18
 99 -151 99 -151 121 -151 c 0,19,20
 163 -151 163 -151 188 -166.5 c 128,-1,21
 213 -182 213 -182 233 -201 c 128,-1,22
 253 -220 253 -220 272 -235.5 c 128,-1,23
 291 -251 291 -251 318 -251 c 0,24,25
 343 -251 343 -251 366.5 -223.5 c 128,-1,26
 390 -196 390 -196 411.5 -156 c 128,-1,27
 433 -116 433 -116 451 -71.5 c 128,-1,28
 469 -27 469 -27 482 6 c 1,29,-1
 183 690 l 2,30,31
 166 729 166 729 150.5 752 c 128,-1,32
 135 775 135 775 117 788 c 128,-1,33
 99 801 99 801 75 807.5 c 128,-1,34
 51 814 51 814 18 819 c 1,35,-1
 18 897 l 1,36,-1
 562 897 l 1,37,-1
 562 819 l 1,38,39
 506 819 506 819 483 801.5 c 128,-1,40
 460 784 460 784 460 750 c 0,41,42
 460 712 460 712 481 666 c 2,43,-1
 624 338 l 1,44,-1
 771 690 l 2,45,46
 779 708 779 708 782.5 720.5 c 128,-1,47
 786 733 786 733 786 751 c 0,48,49
 786 783 786 783 761 801 c 128,-1,50
 736 819 736 819 680 819 c 1,51,-1
 680 897 l 1,52,-1
 1039 897 l 1,53,-1
 1039 819 l 1,0,1
EndSplineSet
EndChar

StartChar: z
Encoding: 122 122 93
Width: 981
GlyphClass: 2
Flags: W
LayerCount: 2
Fore
SplineSet
463 107 m 1,0,-1
 637 107 l 2,1,2
 692 107 692 107 730 119 c 128,-1,3
 768 131 768 131 794 161.5 c 128,-1,4
 820 192 820 192 836.5 242 c 128,-1,5
 853 292 853 292 860 367 c 1,6,-1
 933 367 l 1,7,-1
 920 0 l 1,8,-1
 104 0 l 1,9,-1
 104 78 l 1,10,-1
 590 789 l 1,11,-1
 443 789 l 2,12,13
 387 789 387 789 351 774 c 128,-1,14
 315 759 315 759 292 730 c 128,-1,15
 269 701 269 701 258 657.5 c 128,-1,16
 247 614 247 614 240 556 c 1,17,-1
 165 556 l 1,18,-1
 170 897 l 1,19,-1
 950 897 l 1,20,-1
 950 819 l 1,21,-1
 463 107 l 1,0,-1
EndSplineSet
EndChar

StartChar: braceleft
Encoding: 123 123 94
Width: 855
GlyphClass: 2
Flags: W
LayerCount: 2
Fore
SplineSet
706 -403 m 1,0,1
 674 -403 674 -403 631 -398.5 c 128,-1,2
 588 -394 588 -394 543 -381 c 128,-1,3
 498 -368 498 -368 454.5 -346 c 128,-1,4
 411 -324 411 -324 376.5 -290 c 128,-1,5
 342 -256 342 -256 321 -208.5 c 128,-1,6
 300 -161 300 -161 300 -96 c 0,7,8
 300 -47 300 -47 308.5 -7.5 c 128,-1,9
 317 32 317 32 327 70 c 128,-1,10
 337 108 337 108 345.5 148 c 128,-1,11
 354 188 354 188 354 238 c 0,12,13
 354 278 354 278 339 315 c 128,-1,14
 324 352 324 352 297 380.5 c 128,-1,15
 270 409 270 409 235.5 427 c 128,-1,16
 201 445 201 445 162 445 c 1,17,-1
 162 507 l 1,18,19
 201 507 201 507 235.5 524.5 c 128,-1,20
 270 542 270 542 297 571.5 c 128,-1,21
 324 601 324 601 339 638.5 c 128,-1,22
 354 676 354 676 354 716 c 0,23,24
 354 767 354 767 345.5 806.5 c 128,-1,25
 337 846 337 846 327 884 c 128,-1,26
 317 922 317 922 308.5 961.5 c 128,-1,27
 300 1001 300 1001 300 1050 c 0,28,29
 300 1115 300 1115 321 1163 c 128,-1,30
 342 1211 342 1211 376.5 1245.5 c 128,-1,31
 411 1280 411 1280 454.5 1301.5 c 128,-1,32
 498 1323 498 1323 543 1335.5 c 128,-1,33
 588 1348 588 1348 630.5 1352.5 c 128,-1,34
 673 1357 673 1357 706 1357 c 1,35,-1
 706 1312 l 1,36,37
 674 1312 674 1312 640 1297.5 c 128,-1,38
 606 1283 606 1283 578.5 1257.5 c 128,-1,39
 551 1232 551 1232 533.5 1199 c 128,-1,40
 516 1166 516 1166 516 1128 c 0,41,42
 516 1079 516 1079 524 1038.5 c 128,-1,43
 532 998 532 998 540.5 960 c 128,-1,44
 549 922 549 922 556.5 883.5 c 128,-1,45
 564 845 564 845 564 798 c 0,46,47
 564 733 564 733 538.5 679 c 128,-1,48
 513 625 513 625 471.5 584 c 128,-1,49
 430 543 430 543 377 515 c 128,-1,50
 324 487 324 487 266 476 c 1,51,52
 323 464 323 464 376.5 436.5 c 128,-1,53
 430 409 430 409 471.5 368.5 c 128,-1,54
 513 328 513 328 538.5 274 c 128,-1,55
 564 220 564 220 564 156 c 0,56,57
 564 109 564 109 556.5 70.5 c 128,-1,58
 549 32 549 32 540.5 -6 c 128,-1,59
 532 -44 532 -44 524 -84.5 c 128,-1,60
 516 -125 516 -125 516 -173 c 0,61,62
 516 -211 516 -211 533.5 -244.5 c 128,-1,63
 551 -278 551 -278 578.5 -303.5 c 128,-1,64
 606 -329 606 -329 639.5 -343 c 128,-1,65
 673 -357 673 -357 706 -357 c 1,66,-1
 706 -403 l 1,67,-1
 706 -403 l 1,0,1
EndSplineSet
EndChar

StartChar: bar
Encoding: 124 124 95
Width: 441
GlyphClass: 2
Flags: W
LayerCount: 2
Fore
SplineSet
156 -430 m 1,0,-1
 156 1357 l 1,1,-1
 286 1357 l 1,2,-1
 286 -430 l 1,3,-1
 156 -430 l 1,0,-1
EndSplineSet
EndChar

StartChar: braceright
Encoding: 125 125 96
Width: 855
GlyphClass: 2
Flags: W
LayerCount: 2
Fore
SplineSet
693 445 m 1,0,1
 654 445 654 445 619.5 427 c 128,-1,2
 585 409 585 409 558.5 380.5 c 128,-1,3
 532 352 532 352 517 315 c 128,-1,4
 502 278 502 278 502 238 c 0,5,6
 502 189 502 189 509.5 148.5 c 128,-1,7
 517 108 517 108 527 70 c 128,-1,8
 537 32 537 32 545.5 -7.5 c 128,-1,9
 554 -47 554 -47 554 -96 c 0,10,11
 554 -160 554 -160 533 -208 c 128,-1,12
 512 -256 512 -256 477.5 -290 c 128,-1,13
 443 -324 443 -324 400 -346 c 128,-1,14
 357 -368 357 -368 312.5 -381 c 128,-1,15
 268 -394 268 -394 225 -398.5 c 128,-1,16
 182 -403 182 -403 149 -403 c 1,17,-1
 149 -357 l 1,18,19
 181 -357 181 -357 215.5 -343 c 128,-1,20
 250 -329 250 -329 277 -303.5 c 128,-1,21
 304 -278 304 -278 321.5 -244.5 c 128,-1,22
 339 -211 339 -211 339 -173 c 0,23,24
 339 -125 339 -125 331.5 -84.5 c 128,-1,25
 324 -44 324 -44 315.5 -6 c 128,-1,26
 307 32 307 32 299 70.5 c 128,-1,27
 291 109 291 109 291 156 c 0,28,29
 291 220 291 220 316 274 c 128,-1,30
 341 328 341 328 382.5 368.5 c 128,-1,31
 424 409 424 409 478 436.5 c 128,-1,32
 532 464 532 464 589 476 c 1,33,34
 532 488 532 488 478 515.5 c 128,-1,35
 424 543 424 543 382.5 584 c 128,-1,36
 341 625 341 625 316 679 c 128,-1,37
 291 733 291 733 291 798 c 0,38,39
 291 845 291 845 299 883.5 c 128,-1,40
 307 922 307 922 315.5 960 c 128,-1,41
 324 998 324 998 331.5 1038.5 c 128,-1,42
 339 1079 339 1079 339 1128 c 0,43,44
 339 1166 339 1166 321.5 1199 c 128,-1,45
 304 1232 304 1232 277 1257.5 c 128,-1,46
 250 1283 250 1283 216 1297.5 c 128,-1,47
 182 1312 182 1312 149 1312 c 1,48,-1
 149 1357 l 1,49,50
 181 1357 181 1357 224.5 1352.5 c 128,-1,51
 268 1348 268 1348 312.5 1335.5 c 128,-1,52
 357 1323 357 1323 400 1301.5 c 128,-1,53
 443 1280 443 1280 477.5 1245.5 c 128,-1,54
 512 1211 512 1211 533 1163 c 128,-1,55
 554 1115 554 1115 554 1050 c 0,56,57
 554 1001 554 1001 545.5 961.5 c 128,-1,58
 537 922 537 922 527 884 c 128,-1,59
 517 846 517 846 509.5 806.5 c 128,-1,60
 502 767 502 767 502 716 c 0,61,62
 502 676 502 676 517 638.5 c 128,-1,63
 532 601 532 601 558.5 571.5 c 128,-1,64
 585 542 585 542 619.5 524.5 c 128,-1,65
 654 507 654 507 693 507 c 1,66,-1
 693 445 l 1,67,-1
 693 445 l 1,0,1
EndSplineSet
EndChar

StartChar: asciitilde
Encoding: 126 126 97
Width: 1102
GlyphClass: 2
Flags: W
LayerCount: 2
Fore
SplineSet
1072 647 m 1,0,1
 1054 600 1054 600 1024 552 c 128,-1,2
 994 504 994 504 956 466 c 128,-1,3
 918 428 918 428 872.5 403 c 128,-1,4
 827 378 827 378 777 378 c 0,5,6
 716 378 716 378 657.5 405 c 128,-1,7
 599 432 599 432 540.5 463.5 c 128,-1,8
 482 495 482 495 424.5 522 c 128,-1,9
 367 549 367 549 307 549 c 0,10,11
 267 549 267 549 235.5 531 c 128,-1,12
 204 513 204 513 178.5 486 c 128,-1,13
 153 459 153 459 132.5 426.5 c 128,-1,14
 112 394 112 394 94 363 c 1,15,-1
 23 451 l 1,16,17
 45 493 45 493 73 541.5 c 128,-1,18
 101 590 101 590 137.5 632.5 c 128,-1,19
 174 675 174 675 218.5 702.5 c 128,-1,20
 263 730 263 730 317 730 c 0,21,22
 382 730 382 730 446 703 c 128,-1,23
 510 676 510 676 569.5 643 c 128,-1,24
 629 610 629 610 684.5 582.5 c 128,-1,25
 740 555 740 555 788 555 c 0,26,27
 826 555 826 555 857.5 570.5 c 128,-1,28
 889 586 889 586 915 611 c 128,-1,29
 941 636 941 636 962 667.5 c 128,-1,30
 983 699 983 699 998 730 c 1,31,-1
 1072 647 l 1,0,1
EndSplineSet
EndChar

StartChar: exclamdown
Encoding: 161 161 99
Width: 668
GlyphClass: 2
Flags: W
LayerCount: 2
Fore
SplineSet
473 794 m 256,0,1
 473 765 473 765 462 740 c 128,-1,2
 451 715 451 715 433 696 c 128,-1,3
 415 677 415 677 389 666 c 128,-1,4
 363 655 363 655 334 655 c 0,5,6
 304 655 304 655 278.5 666 c 128,-1,7
 253 677 253 677 233.5 696 c 128,-1,8
 214 715 214 715 203 740.5 c 128,-1,9
 192 766 192 766 192 794 c 0,10,11
 192 823 192 823 203 848 c 128,-1,12
 214 873 214 873 233.5 892.5 c 128,-1,13
 253 912 253 912 278.5 923.5 c 128,-1,14
 304 935 304 935 334 935 c 0,15,16
 363 935 363 935 389 923.5 c 128,-1,17
 415 912 415 912 433 892.5 c 128,-1,18
 451 873 451 873 462 848 c 128,-1,19
 473 823 473 823 473 794 c 256,0,1
485 -248 m 0,20,21
 485 -282 485 -282 476 -314.5 c 128,-1,22
 467 -347 467 -347 447.5 -373.5 c 128,-1,23
 428 -400 428 -400 399 -416.5 c 128,-1,24
 370 -433 370 -433 331 -433 c 0,25,26
 299 -433 299 -433 271.5 -418 c 128,-1,27
 244 -403 244 -403 224.5 -376.5 c 128,-1,28
 205 -350 205 -350 194 -314.5 c 128,-1,29
 183 -279 183 -279 183 -239 c 0,30,31
 183 -234 183 -234 184.5 -220.5 c 128,-1,32
 186 -207 186 -207 188 -191 c 128,-1,33
 190 -175 190 -175 192 -159.5 c 128,-1,34
 194 -144 194 -144 195 -134 c 2,35,-1
 295 575 l 1,36,-1
 373 575 l 1,37,-1
 472 -134 l 2,38,39
 478 -169 478 -169 481.5 -195.5 c 128,-1,40
 485 -222 485 -222 485 -248 c 0,20,21
EndSplineSet
EndChar

StartChar: cent
Encoding: 162 162 100
Width: 1022
GlyphClass: 2
Flags: W
LayerCount: 2
Fore
SplineSet
905 331 m 1,0,1
 891 263 891 263 861.5 198.5 c 128,-1,2
 832 134 832 134 784.5 83 c 128,-1,3
 737 32 737 32 671.5 1 c 128,-1,4
 606 -30 606 -30 520 -30 c 0,5,6
 477 -30 477 -30 438 -22 c 128,-1,7
 399 -14 399 -14 364 0 c 1,8,-1
 229 -370 l 1,9,-1
 134 -370 l 1,10,-1
 285 45 l 1,11,12
 206 105 206 105 162 200.5 c 128,-1,13
 118 296 118 296 118 413 c 256,14,15
 118 530 118 530 153 624.5 c 128,-1,16
 188 719 188 719 246 785 c 128,-1,17
 304 851 304 851 379 887.5 c 128,-1,18
 454 924 454 924 534 924 c 0,19,20
 569 924 569 924 603 920 c 1,21,-1
 741 1299 l 1,22,-1
 836 1299 l 1,23,-1
 690 901 l 1,24,25
 742 884 742 884 778.5 858 c 128,-1,26
 815 832 815 832 838.5 802.5 c 128,-1,27
 862 773 862 773 873 742.5 c 128,-1,28
 884 712 884 712 884 686 c 0,29,30
 884 631 884 631 854.5 597.5 c 128,-1,31
 825 564 825 564 766 564 c 0,32,33
 724 564 724 564 698.5 577.5 c 128,-1,34
 673 591 673 591 658 613.5 c 128,-1,35
 643 636 643 636 636 662.5 c 128,-1,36
 629 689 629 689 624 716 c 1,37,-1
 458 260 l 1,38,39
 496 222 496 222 540.5 200.5 c 128,-1,40
 585 179 585 179 638 179 c 0,41,42
 661 179 661 179 688.5 185 c 128,-1,43
 716 191 716 191 743.5 210 c 128,-1,44
 771 229 771 229 797.5 264 c 128,-1,45
 824 299 824 299 847 356 c 1,46,-1
 905 331 l 1,0,1
563 811 m 1,47,48
 536 828 536 828 493 828 c 0,49,50
 422 828 422 828 382 771 c 128,-1,51
 342 714 342 714 342 603 c 0,52,53
 342 530 342 530 355.5 466.5 c 128,-1,54
 369 403 369 403 395 350 c 1,55,-1
 563 811 l 1,47,48
EndSplineSet
EndChar

StartChar: sterling
Encoding: 163 163 101
Width: 1022
GlyphClass: 2
Flags: W
LayerCount: 2
Fore
SplineSet
1011 441 m 1,0,1
 998 354 998 354 972 270.5 c 128,-1,2
 946 187 946 187 904 121.5 c 128,-1,3
 862 56 862 56 802 16.5 c 128,-1,4
 742 -23 742 -23 660 -23 c 0,5,6
 612 -23 612 -23 574.5 -12 c 128,-1,7
 537 -1 537 -1 505.5 17.5 c 128,-1,8
 474 36 474 36 448 59.5 c 128,-1,9
 422 83 422 83 398 108 c 1,10,11
 360 50 360 50 305.5 13.5 c 128,-1,12
 251 -23 251 -23 175 -23 c 0,13,14
 132 -23 132 -23 101 -8.5 c 128,-1,15
 70 6 70 6 50 31 c 128,-1,16
 30 56 30 56 20 88 c 128,-1,17
 10 120 10 120 10 153 c 0,18,19
 10 188 10 188 21 223.5 c 128,-1,20
 32 259 32 259 56.5 286 c 128,-1,21
 81 313 81 313 118.5 330 c 128,-1,22
 156 347 156 347 209 347 c 0,23,24
 219 347 219 347 231.5 346.5 c 128,-1,25
 244 346 244 346 256 344 c 1,26,27
 257 350 257 350 257 359 c 128,-1,28
 257 368 257 368 257 376 c 0,29,30
 257 424 257 424 249.5 483.5 c 128,-1,31
 242 543 242 543 235 608 c 1,32,-1
 32 608 l 1,33,-1
 32 740 l 1,34,-1
 221 740 l 1,35,36
 218 788 218 788 213 836.5 c 128,-1,37
 208 885 208 885 208 935 c 0,38,39
 208 1016 208 1016 227.5 1091.5 c 128,-1,40
 247 1167 247 1167 292.5 1226.5 c 128,-1,41
 338 1286 338 1286 412.5 1321.5 c 128,-1,42
 487 1357 487 1357 598 1357 c 0,43,44
 664 1357 664 1357 721.5 1341 c 128,-1,45
 779 1325 779 1325 821 1295 c 128,-1,46
 863 1265 863 1265 887 1223.5 c 128,-1,47
 911 1182 911 1182 911 1130 c 0,48,49
 911 1108 911 1108 905 1084.5 c 128,-1,50
 899 1061 899 1061 885 1041.5 c 128,-1,51
 871 1022 871 1022 846 1009.5 c 128,-1,52
 821 997 821 997 785 997 c 0,53,54
 737 997 737 997 713.5 1017 c 128,-1,55
 690 1037 690 1037 679.5 1068.5 c 128,-1,56
 669 1100 669 1100 666 1135 c 128,-1,57
 663 1170 663 1170 656 1201 c 128,-1,58
 649 1232 649 1232 631.5 1252.5 c 128,-1,59
 614 1273 614 1273 575 1273 c 0,60,61
 544 1273 544 1273 526 1251.5 c 128,-1,62
 508 1230 508 1230 499.5 1195.5 c 128,-1,63
 491 1161 491 1161 489 1116.5 c 128,-1,64
 487 1072 487 1072 487 1028 c 0,65,66
 487 955 487 955 494.5 882.5 c 128,-1,67
 502 810 502 810 508 740 c 1,68,-1
 736 740 l 1,69,-1
 736 608 l 1,70,-1
 508 608 l 1,71,72
 508 543 508 543 501 462.5 c 128,-1,73
 494 382 494 382 474 300 c 1,74,75
 544 282 544 282 593.5 266 c 128,-1,76
 643 250 643 250 689 250 c 0,77,78
 732 250 732 250 772 260 c 128,-1,79
 812 270 812 270 846.5 294 c 128,-1,80
 881 318 881 318 907 357 c 128,-1,81
 933 396 933 396 949 455 c 1,82,-1
 1011 441 l 1,0,1
169 74 m 0,83,84
 190 74 190 74 205 87 c 128,-1,85
 220 100 220 100 229.5 121 c 128,-1,86
 239 142 239 142 244.5 168 c 128,-1,87
 250 194 250 194 252 221 c 1,88,89
 222 234 222 234 196 234 c 0,90,91
 147 234 147 234 128.5 208 c 128,-1,92
 110 182 110 182 110 151 c 0,93,94
 110 121 110 121 123.5 97.5 c 128,-1,95
 137 74 137 74 169 74 c 0,83,84
EndSplineSet
EndChar

StartChar: currency
Encoding: 164 164 102
Width: 1158
GlyphClass: 2
Flags: W
LayerCount: 2
Fore
SplineSet
1013 291 m 1,0,-1
 812 490 l 1,1,2
 760 454 760 454 701 436.5 c 128,-1,3
 642 419 642 419 581 419 c 0,4,5
 519 419 519 419 459 437.5 c 128,-1,6
 399 456 399 456 347 493 c 1,7,-1
 144 291 l 1,8,-1
 39 396 l 1,9,-1
 242 599 l 1,10,11
 208 643 208 643 190.5 701 c 128,-1,12
 173 759 173 759 173 821 c 256,13,14
 173 883 173 883 190.5 944.5 c 128,-1,15
 208 1006 208 1006 246 1057 c 1,16,-1
 40 1263 l 1,17,-1
 144 1370 l 1,18,-1
 351 1163 l 1,19,20
 396 1198 396 1198 455.5 1215 c 128,-1,21
 515 1232 515 1232 577 1232 c 0,22,23
 642 1232 642 1232 702.5 1214.5 c 128,-1,24
 763 1197 763 1197 806 1163 c 1,25,-1
 1013 1370 l 1,26,-1
 1117 1263 l 1,27,-1
 912 1059 l 1,28,29
 951 1010 951 1010 969.5 949 c 128,-1,30
 988 888 988 888 988 825 c 0,31,32
 988 761 988 761 969.5 701.5 c 128,-1,33
 951 642 951 642 918 597 c 1,34,-1
 1117 395 l 1,35,-1
 1013 291 l 1,0,-1
827 827 m 0,36,37
 827 876 827 876 807.5 921 c 128,-1,38
 788 966 788 966 754.5 999.5 c 128,-1,39
 721 1033 721 1033 677 1053.5 c 128,-1,40
 633 1074 633 1074 582 1074 c 0,41,42
 529 1074 529 1074 483.5 1054.5 c 128,-1,43
 438 1035 438 1035 404 1001.5 c 128,-1,44
 370 968 370 968 350.5 922 c 128,-1,45
 331 876 331 876 331 824 c 256,46,47
 331 772 331 772 350.5 727 c 128,-1,48
 370 682 370 682 404.5 648.5 c 128,-1,49
 439 615 439 615 484.5 595.5 c 128,-1,50
 530 576 530 576 582 576 c 0,51,52
 633 576 633 576 678 596 c 128,-1,53
 723 616 723 616 756 650.5 c 128,-1,54
 789 685 789 685 808 730.5 c 128,-1,55
 827 776 827 776 827 827 c 0,36,37
EndSplineSet
EndChar

StartChar: yen
Encoding: 165 165 103
Width: 1022
GlyphClass: 2
Flags: W
LayerCount: 2
Fore
SplineSet
654 311 m 1,0,-1
 654 239 l 2,1,2
 654 197 654 197 657 166.5 c 128,-1,3
 660 136 660 136 675.5 116.5 c 128,-1,4
 691 97 691 97 725 87.5 c 128,-1,5
 759 78 759 78 821 78 c 1,6,-1
 821 0 l 1,7,-1
 208 0 l 1,8,-1
 208 78 l 1,9,10
 272 78 272 78 307 88.5 c 128,-1,11
 342 99 342 99 358 119 c 128,-1,12
 374 139 374 139 377 169.5 c 128,-1,13
 380 200 380 200 380 239 c 2,14,-1
 380 311 l 1,15,-1
 16 311 l 1,16,-1
 16 419 l 1,17,-1
 380 419 l 1,18,-1
 380 520 l 1,19,-1
 364 555 l 1,20,-1
 16 555 l 1,21,-1
 16 659 l 1,22,-1
 326 659 l 1,23,-1
 160 1107 l 2,24,25
 148 1138 148 1138 135.5 1163 c 128,-1,26
 123 1188 123 1188 105 1206 c 128,-1,27
 87 1224 87 1224 61.5 1235.5 c 128,-1,28
 36 1247 36 1247 0 1250 c 1,29,-1
 0 1328 l 1,30,-1
 525 1328 l 1,31,-1
 525 1250 l 1,32,33
 512 1249 512 1249 495 1246 c 128,-1,34
 478 1243 478 1243 464 1236.5 c 128,-1,35
 450 1230 450 1230 439.5 1218 c 128,-1,36
 429 1206 429 1206 429 1189 c 0,37,38
 429 1184 429 1184 440.5 1149 c 128,-1,39
 452 1114 452 1114 469 1063.5 c 128,-1,40
 486 1013 486 1013 507.5 953.5 c 128,-1,41
 529 894 529 894 547 841.5 c 128,-1,42
 565 789 565 789 579.5 750 c 128,-1,43
 594 711 594 711 598 701 c 1,44,-1
 741 1115 l 1,45,46
 759 1149 759 1149 759 1189 c 0,47,48
 759 1208 759 1208 752 1220 c 128,-1,49
 745 1232 745 1232 733 1238.5 c 128,-1,50
 721 1245 721 1245 706 1247 c 128,-1,51
 691 1249 691 1249 676 1250 c 1,52,-1
 676 1328 l 1,53,-1
 1023 1328 l 1,54,-1
 1023 1250 l 1,55,56
 985 1250 985 1250 959 1237 c 128,-1,57
 933 1224 933 1224 913.5 1203 c 128,-1,58
 894 1182 894 1182 879 1154 c 128,-1,59
 864 1126 864 1126 850 1097 c 2,60,-1
 699 659 l 1,61,-1
 1007 659 l 1,62,-1
 1007 555 l 1,63,-1
 660 555 l 1,64,-1
 654 536 l 1,65,-1
 654 419 l 1,66,-1
 1007 419 l 1,67,-1
 1007 311 l 1,68,-1
 654 311 l 1,0,-1
EndSplineSet
EndChar

StartChar: brokenbar
Encoding: 166 166 104
Width: 441
GlyphClass: 2
Flags: W
LayerCount: 2
Fore
SplineSet
172 649 m 1,0,-1
 172 1421 l 1,1,-1
 270 1421 l 1,2,-1
 270 649 l 1,3,-1
 172 649 l 1,0,-1
172 -382 m 1,4,-1
 172 390 l 1,5,-1
 270 390 l 1,6,-1
 270 -382 l 1,7,-1
 172 -382 l 1,4,-1
EndSplineSet
EndChar

StartChar: section
Encoding: 167 167 105
Width: 1002
GlyphClass: 2
Flags: W
LayerCount: 2
Fore
SplineSet
914 445 m 0,0,1
 914 390 914 390 895.5 345 c 128,-1,2
 877 300 877 300 847.5 262.5 c 128,-1,3
 818 225 818 225 779.5 193.5 c 128,-1,4
 741 162 741 162 702 136 c 1,5,6
 729 106 729 106 755.5 77.5 c 128,-1,7
 782 49 782 49 803.5 16.5 c 128,-1,8
 825 -16 825 -16 838 -55.5 c 128,-1,9
 851 -95 851 -95 851 -147 c 0,10,11
 851 -209 851 -209 824.5 -262 c 128,-1,12
 798 -315 798 -315 750 -353 c 128,-1,13
 702 -391 702 -391 635 -412.5 c 128,-1,14
 568 -434 568 -434 489 -434 c 0,15,16
 424 -434 424 -434 366 -418.5 c 128,-1,17
 308 -403 308 -403 264.5 -372 c 128,-1,18
 221 -341 221 -341 195.5 -295.5 c 128,-1,19
 170 -250 170 -250 170 -191 c 0,20,21
 170 -144 170 -144 202.5 -110.5 c 128,-1,22
 235 -77 235 -77 282 -77 c 0,23,24
 331 -77 331 -77 363.5 -106.5 c 128,-1,25
 396 -136 396 -136 396 -179 c 0,26,27
 396 -193 396 -193 392.5 -207.5 c 128,-1,28
 389 -222 389 -222 383.5 -236 c 128,-1,29
 378 -250 378 -250 374 -264 c 128,-1,30
 370 -278 370 -278 370 -294 c 0,31,32
 370 -323 370 -323 400 -344 c 128,-1,33
 430 -365 430 -365 494 -365 c 0,34,35
 575 -365 575 -365 625 -322 c 128,-1,36
 675 -279 675 -279 675 -204 c 0,37,38
 675 -153 675 -153 631.5 -106.5 c 128,-1,39
 588 -60 588 -60 523.5 -13 c 128,-1,40
 459 34 459 34 383 83.5 c 128,-1,41
 307 133 307 133 242.5 188.5 c 128,-1,42
 178 244 178 244 134.5 309 c 128,-1,43
 91 374 91 374 91 454 c 0,44,45
 91 512 91 512 110 562 c 128,-1,46
 129 612 129 612 158.5 653.5 c 128,-1,47
 188 695 188 695 224.5 729.5 c 128,-1,48
 261 764 261 764 296 790 c 1,49,50
 271 816 271 816 246 843.5 c 128,-1,51
 221 871 221 871 200 903 c 128,-1,52
 179 935 179 935 166 973 c 128,-1,53
 153 1011 153 1011 153 1059 c 0,54,55
 153 1128 153 1128 183 1184.5 c 128,-1,56
 213 1241 213 1241 263 1281 c 128,-1,57
 313 1321 313 1321 378 1342 c 128,-1,58
 443 1363 443 1363 512 1363 c 0,59,60
 572 1363 572 1363 630.5 1345 c 128,-1,61
 689 1327 689 1327 735.5 1294.5 c 128,-1,62
 782 1262 782 1262 811 1216.5 c 128,-1,63
 840 1171 840 1171 840 1117 c 0,64,65
 840 1068 840 1068 809.5 1035.5 c 128,-1,66
 779 1003 779 1003 724 1003 c 0,67,68
 681 1003 681 1003 649 1032 c 128,-1,69
 617 1061 617 1061 617 1104 c 0,70,71
 617 1130 617 1130 624.5 1151 c 128,-1,72
 632 1172 632 1172 632 1197 c 0,73,74
 632 1218 632 1218 621.5 1237 c 128,-1,75
 611 1256 611 1256 594 1269.5 c 128,-1,76
 577 1283 577 1283 554.5 1291.5 c 128,-1,77
 532 1300 532 1300 507 1300 c 0,78,79
 475 1300 475 1300 444 1287.5 c 128,-1,80
 413 1275 413 1275 390 1253.5 c 128,-1,81
 367 1232 367 1232 352.5 1201.5 c 128,-1,82
 338 1171 338 1171 338 1135 c 0,83,84
 338 1095 338 1095 362.5 1057.5 c 128,-1,85
 387 1020 387 1020 427.5 985 c 128,-1,86
 468 950 468 950 520 914.5 c 128,-1,87
 572 879 572 879 626 841 c 128,-1,88
 680 803 680 803 732 761 c 128,-1,89
 784 719 784 719 824 671 c 128,-1,90
 864 623 864 623 889 567 c 128,-1,91
 914 511 914 511 914 445 c 0,0,1
747 344 m 0,92,93
 747 396 747 396 724.5 437 c 128,-1,94
 702 478 702 478 654.5 521.5 c 128,-1,95
 607 565 607 565 532.5 618 c 128,-1,96
 458 671 458 671 354 747 c 1,97,98
 310 709 310 709 285 668.5 c 128,-1,99
 260 628 260 628 260 569 c 0,100,101
 260 526 260 526 279.5 490.5 c 128,-1,102
 299 455 299 455 344.5 413.5 c 128,-1,103
 390 372 390 372 465.5 316 c 128,-1,104
 541 260 541 260 653 177 c 1,105,106
 693 213 693 213 720 251 c 128,-1,107
 747 289 747 289 747 344 c 0,92,93
EndSplineSet
EndChar

StartChar: dieresis
Encoding: 168 168 106
Width: 633
GlyphClass: 2
Flags: W
LayerCount: 2
Fore
SplineSet
633 1234 m 256,0,1
 633 1207 633 1207 622.5 1182.5 c 128,-1,2
 612 1158 612 1158 594.5 1140.5 c 128,-1,3
 577 1123 577 1123 553 1112.5 c 128,-1,4
 529 1102 529 1102 502 1102 c 256,5,6
 475 1102 475 1102 450.5 1112.5 c 128,-1,7
 426 1123 426 1123 408.5 1140.5 c 128,-1,8
 391 1158 391 1158 380.5 1182 c 128,-1,9
 370 1206 370 1206 370 1234 c 0,10,11
 370 1261 370 1261 380.5 1285 c 128,-1,12
 391 1309 391 1309 408.5 1326.5 c 128,-1,13
 426 1344 426 1344 450 1354.5 c 128,-1,14
 474 1365 474 1365 502 1365 c 0,15,16
 529 1365 529 1365 553 1354.5 c 128,-1,17
 577 1344 577 1344 594.5 1326.5 c 128,-1,18
 612 1309 612 1309 622.5 1285 c 128,-1,19
 633 1261 633 1261 633 1234 c 256,0,1
263 1234 m 256,20,21
 263 1207 263 1207 252.5 1182.5 c 128,-1,22
 242 1158 242 1158 224.5 1140.5 c 128,-1,23
 207 1123 207 1123 183 1112.5 c 128,-1,24
 159 1102 159 1102 131 1102 c 0,25,26
 104 1102 104 1102 80 1112.5 c 128,-1,27
 56 1123 56 1123 38.5 1140.5 c 128,-1,28
 21 1158 21 1158 10.5 1182 c 128,-1,29
 0 1206 0 1206 0 1234 c 0,30,31
 0 1261 0 1261 10.5 1285 c 128,-1,32
 21 1309 21 1309 38.5 1326.5 c 128,-1,33
 56 1344 56 1344 80 1354.5 c 128,-1,34
 104 1365 104 1365 131 1365 c 256,35,36
 158 1365 158 1365 182.5 1354.5 c 128,-1,37
 207 1344 207 1344 224.5 1326.5 c 128,-1,38
 242 1309 242 1309 252.5 1285 c 128,-1,39
 263 1261 263 1261 263 1234 c 256,20,21
EndSplineSet
EndChar

StartChar: copyright
Encoding: 169 169 107
Width: 1498
GlyphClass: 2
Flags: W
LayerCount: 2
Fore
SplineSet
1458 663 m 0,0,1
 1458 517 1458 517 1404 390.5 c 128,-1,2
 1350 264 1350 264 1256.5 169.5 c 128,-1,3
 1163 75 1163 75 1036 21.5 c 128,-1,4
 909 -32 909 -32 762 -32 c 256,5,6
 615 -32 615 -32 488 21.5 c 128,-1,7
 361 75 361 75 267.5 169 c 128,-1,8
 174 263 174 263 120 389.5 c 128,-1,9
 66 516 66 516 66 663 c 0,10,11
 66 811 66 811 120 938 c 128,-1,12
 174 1065 174 1065 267.5 1157.5 c 128,-1,13
 361 1250 361 1250 488 1303.5 c 128,-1,14
 615 1357 615 1357 762 1357 c 0,15,16
 910 1357 910 1357 1037.5 1303.5 c 128,-1,17
 1165 1250 1165 1250 1258.5 1157.5 c 128,-1,18
 1352 1065 1352 1065 1405 938 c 128,-1,19
 1458 811 1458 811 1458 663 c 0,0,1
1363 663 m 0,20,21
 1363 789 1363 789 1316.5 899 c 128,-1,22
 1270 1009 1270 1009 1188.5 1089.5 c 128,-1,23
 1107 1170 1107 1170 997.5 1216.5 c 128,-1,24
 888 1263 888 1263 762 1263 c 256,25,26
 636 1263 636 1263 526.5 1216.5 c 128,-1,27
 417 1170 417 1170 336.5 1088.5 c 128,-1,28
 256 1007 256 1007 210 898 c 128,-1,29
 164 789 164 789 164 663 c 0,30,31
 164 538 164 538 210 429 c 128,-1,32
 256 320 256 320 336.5 239.5 c 128,-1,33
 417 159 417 159 526.5 112.5 c 128,-1,34
 636 66 636 66 762 66 c 256,35,36
 888 66 888 66 997.5 112.5 c 128,-1,37
 1107 159 1107 159 1188.5 239.5 c 128,-1,38
 1270 320 1270 320 1316.5 429 c 128,-1,39
 1363 538 1363 538 1363 663 c 0,20,21
1131 454 m 1,40,41
 1113 423 1113 423 1085 385.5 c 128,-1,42
 1057 348 1057 348 1015.5 316.5 c 128,-1,43
 974 285 974 285 917 263.5 c 128,-1,44
 860 242 860 242 785 242 c 0,45,46
 677 242 677 242 598 275 c 128,-1,47
 519 308 519 308 467 364 c 128,-1,48
 415 420 415 420 389 492 c 128,-1,49
 363 564 363 564 363 642 c 256,50,51
 363 720 363 720 389 798 c 128,-1,52
 415 876 415 876 466 937 c 128,-1,53
 517 998 517 998 594.5 1036.5 c 128,-1,54
 672 1075 672 1075 773 1075 c 0,55,56
 818 1075 818 1075 856 1066 c 128,-1,57
 894 1057 894 1057 922 1046.5 c 128,-1,58
 950 1036 950 1036 969 1027 c 128,-1,59
 988 1018 988 1018 997 1018 c 0,60,61
 1022 1018 1022 1018 1028.5 1035 c 128,-1,62
 1035 1052 1035 1052 1042 1076 c 1,63,-1
 1087 1076 l 1,64,-1
 1106 768 l 1,65,-1
 1058 768 l 1,66,67
 1045 824 1045 824 1018.5 869 c 128,-1,68
 992 914 992 914 957.5 944.5 c 128,-1,69
 923 975 923 975 882.5 991 c 128,-1,70
 842 1007 842 1007 802 1007 c 0,71,72
 741 1007 741 1007 697 978.5 c 128,-1,73
 653 950 653 950 623.5 900.5 c 128,-1,74
 594 851 594 851 580.5 785 c 128,-1,75
 567 719 567 719 567 642 c 0,76,77
 567 567 567 567 585.5 506 c 128,-1,78
 604 445 604 445 638 402 c 128,-1,79
 672 359 672 359 719.5 335.5 c 128,-1,80
 767 312 767 312 824 312 c 0,81,82
 871 312 871 312 910.5 327.5 c 128,-1,83
 950 343 950 343 983 368 c 128,-1,84
 1016 393 1016 393 1042 424 c 128,-1,85
 1068 455 1068 455 1089 486 c 1,86,-1
 1131 454 l 1,40,41
EndSplineSet
EndChar

StartChar: ordfeminine
Encoding: 170 170 108
Width: 716
GlyphClass: 2
Flags: W
LayerCount: 2
Fore
SplineSet
716 872 m 1,0,1
 707 863 707 863 687 848 c 128,-1,2
 667 833 667 833 639 819 c 128,-1,3
 611 805 611 805 577 794.5 c 128,-1,4
 543 784 543 784 508 784 c 0,5,6
 463 784 463 784 431.5 808 c 128,-1,7
 400 832 400 832 400 864 c 1,8,9
 355 830 355 830 307.5 807 c 128,-1,10
 260 784 260 784 199 784 c 0,11,12
 128 784 128 784 88.5 820.5 c 128,-1,13
 49 857 49 857 49 922 c 0,14,15
 49 966 49 966 86 1001.5 c 128,-1,16
 123 1037 123 1037 177 1065 c 128,-1,17
 231 1093 231 1093 291.5 1114 c 128,-1,18
 352 1135 352 1135 400 1149 c 1,19,-1
 400 1171 l 2,20,21
 400 1226 400 1226 380 1261 c 128,-1,22
 360 1296 360 1296 315 1296 c 0,23,24
 285 1296 285 1296 264.5 1286 c 128,-1,25
 244 1276 244 1276 239 1247 c 1,26,27
 242 1238 242 1238 244 1230 c 128,-1,28
 246 1222 246 1222 246 1211 c 0,29,30
 246 1198 246 1198 241.5 1184 c 128,-1,31
 237 1170 237 1170 226.5 1158 c 128,-1,32
 216 1146 216 1146 197.5 1138.5 c 128,-1,33
 179 1131 179 1131 152 1131 c 0,34,35
 113 1131 113 1131 89 1150.5 c 128,-1,36
 65 1170 65 1170 65 1204 c 256,37,38
 65 1238 65 1238 91 1264.5 c 128,-1,39
 117 1291 117 1291 156 1309 c 128,-1,40
 195 1327 195 1327 242 1336 c 128,-1,41
 289 1345 289 1345 330 1345 c 0,42,43
 405 1345 405 1345 457.5 1335.5 c 128,-1,44
 510 1326 510 1326 542.5 1304.5 c 128,-1,45
 575 1283 575 1283 589.5 1248 c 128,-1,46
 604 1213 604 1213 604 1163 c 2,47,-1
 604 1003 l 2,48,49
 604 981 604 981 605 956.5 c 128,-1,50
 606 932 606 932 608 918 c 0,51,52
 611 908 611 908 617.5 898.5 c 128,-1,53
 624 889 624 889 640 889 c 0,54,55
 648 889 648 889 658.5 893.5 c 128,-1,56
 669 898 669 898 680 904 c 128,-1,57
 691 910 691 910 701 917 c 128,-1,58
 711 924 711 924 716 928 c 1,59,-1
 716 872 l 1,0,1
57 606 m 1,60,-1
 57 684 l 1,61,-1
 708 684 l 1,62,-1
 708 606 l 1,63,-1
 57 606 l 1,60,-1
400 1093 m 1,64,65
 310 1059 310 1059 279 1023.5 c 128,-1,66
 248 988 248 988 248 949 c 0,67,68
 248 923 248 923 263 904.5 c 128,-1,69
 278 886 278 886 307 886 c 0,70,71
 329 886 329 886 353.5 900.5 c 128,-1,72
 378 915 378 915 400 933 c 1,73,-1
 400 1093 l 1,64,65
EndSplineSet
EndChar

StartChar: guillemotleft
Encoding: 171 171 109
Width: 849
GlyphClass: 2
Flags: W
LayerCount: 2
Fore
SplineSet
399 682 m 0,0,1
 229 544 229 544 229 344 c 0,2,3
 229 145 229 145 399 -2 c 0,4,5
 434 -29 434 -29 412 -74 c 0,6,7
 391 -117 391 -117 340 -92 c 0,8,9
 209 -25 209 -25 141 88 c 0,10,11
 70 206 70 206 70 342 c 128,-1,12
 70 478 70 478 143 594 c 128,-1,13
 216 710 216 710 340 772 c 0,14,15
 393 797 393 797 414 756 c 0,16,17
 437 712 437 712 399 682 c 0,0,1
758 682 m 0,18,19
 588 544 588 544 588 344 c 0,20,21
 588 145 588 145 758 -2 c 0,22,23
 792 -29 792 -29 770 -74 c 0,24,25
 749 -117 749 -117 698 -92 c 0,26,27
 569 -26 569 -26 500 88 c 0,28,29
 428 207 428 207 428 342 c 0,30,31
 428 476 428 476 502 594 c 0,32,33
 575 711 575 711 698 772 c 0,34,35
 749 797 749 797 770 756 c 0,36,37
 794 710 794 710 758 682 c 0,18,19
EndSplineSet
EndChar

StartChar: logicalnot
Encoding: 172 172 110
Width: 1197
GlyphClass: 2
Flags: W
LayerCount: 2
Fore
SplineSet
977 365 m 1,0,-1
 977 669 l 1,1,-1
 77 669 l 1,2,-1
 77 811 l 1,3,-1
 1120 811 l 1,4,-1
 1120 365 l 1,5,-1
 977 365 l 1,0,-1
EndSplineSet
EndChar

StartChar: sfthyphen
Encoding: 173 173 111
Width: 687
GlyphClass: 2
Flags: W
LayerCount: 2
Fore
SplineSet
39 363 m 1,0,-1
 39 558 l 1,1,-1
 649 558 l 1,2,-1
 649 363 l 1,3,-1
 39 363 l 1,0,-1
EndSplineSet
EndChar

StartChar: registered
Encoding: 174 174 112
Width: 1498
GlyphClass: 2
Flags: W
LayerCount: 2
Fore
SplineSet
1458 663 m 0,0,1
 1458 517 1458 517 1404 390.5 c 128,-1,2
 1350 264 1350 264 1256.5 169.5 c 128,-1,3
 1163 75 1163 75 1036 21.5 c 128,-1,4
 909 -32 909 -32 762 -32 c 256,5,6
 615 -32 615 -32 488 21.5 c 128,-1,7
 361 75 361 75 267.5 169 c 128,-1,8
 174 263 174 263 120 389.5 c 128,-1,9
 66 516 66 516 66 663 c 0,10,11
 66 811 66 811 120 938 c 128,-1,12
 174 1065 174 1065 267.5 1157.5 c 128,-1,13
 361 1250 361 1250 488 1303.5 c 128,-1,14
 615 1357 615 1357 762 1357 c 0,15,16
 910 1357 910 1357 1037.5 1303.5 c 128,-1,17
 1165 1250 1165 1250 1258.5 1157.5 c 128,-1,18
 1352 1065 1352 1065 1405 938 c 128,-1,19
 1458 811 1458 811 1458 663 c 0,0,1
1363 663 m 0,20,21
 1363 789 1363 789 1316.5 899 c 128,-1,22
 1270 1009 1270 1009 1188.5 1089.5 c 128,-1,23
 1107 1170 1107 1170 997.5 1216.5 c 128,-1,24
 888 1263 888 1263 762 1263 c 256,25,26
 636 1263 636 1263 526.5 1216.5 c 128,-1,27
 417 1170 417 1170 336.5 1088.5 c 128,-1,28
 256 1007 256 1007 210 898 c 128,-1,29
 164 789 164 789 164 663 c 0,30,31
 164 538 164 538 210 429 c 128,-1,32
 256 320 256 320 336.5 239.5 c 128,-1,33
 417 159 417 159 526.5 112.5 c 128,-1,34
 636 66 636 66 762 66 c 256,35,36
 888 66 888 66 997.5 112.5 c 128,-1,37
 1107 159 1107 159 1188.5 239.5 c 128,-1,38
 1270 320 1270 320 1316.5 429 c 128,-1,39
 1363 538 1363 538 1363 663 c 0,20,21
910 274 m 1,40,-1
 654 625 l 1,41,-1
 632 625 l 1,42,-1
 632 422 l 2,43,44
 632 365 632 365 656 343 c 128,-1,45
 680 321 680 321 729 321 c 1,46,-1
 729 274 l 1,47,-1
 354 274 l 1,48,-1
 354 321 l 1,49,50
 407 321 407 321 427.5 344 c 128,-1,51
 448 367 448 367 448 428 c 2,52,-1
 448 920 l 2,53,54
 448 975 448 975 427.5 994 c 128,-1,55
 407 1013 407 1013 354 1013 c 1,56,-1
 354 1059 l 1,57,-1
 668 1059 l 2,58,59
 736 1059 736 1059 804.5 1053.5 c 128,-1,60
 873 1048 873 1048 928.5 1027 c 128,-1,61
 984 1006 984 1006 1018.5 965.5 c 128,-1,62
 1053 925 1053 925 1053 857 c 0,63,64
 1053 810 1053 810 1036 773 c 128,-1,65
 1019 736 1019 736 991.5 710 c 128,-1,66
 964 684 964 684 930.5 667 c 128,-1,67
 897 650 897 650 864 643 c 1,68,-1
 1002 447 l 2,69,70
 1014 433 1014 433 1034 411.5 c 128,-1,71
 1054 390 1054 390 1078 370.5 c 128,-1,72
 1102 351 1102 351 1129 336 c 128,-1,73
 1156 321 1156 321 1183 321 c 1,74,-1
 1183 274 l 1,75,-1
 910 274 l 1,40,-1
860 845 m 0,76,77
 860 872 860 872 850 898.5 c 128,-1,78
 840 925 840 925 818.5 946.5 c 128,-1,79
 797 968 797 968 765 981 c 128,-1,80
 733 994 733 994 689 994 c 0,81,82
 675 994 675 994 664 993 c 128,-1,83
 653 992 653 992 646 990 c 0,84,85
 638 989 638 989 632 988 c 1,86,-1
 632 694 l 1,87,88
 675 694 675 694 715.5 700 c 128,-1,89
 756 706 756 706 788.5 723 c 128,-1,90
 821 740 821 740 840.5 769 c 128,-1,91
 860 798 860 798 860 845 c 0,76,77
EndSplineSet
EndChar

StartChar: macron
Encoding: 175 175 113
Width: 633
GlyphClass: 2
Flags: W
LayerCount: 2
Fore
SplineSet
0 1102 m 1,0,-1
 0 1276 l 1,1,-1
 633 1276 l 1,2,-1
 633 1102 l 1,3,-1
 0 1102 l 1,0,-1
EndSplineSet
EndChar

StartChar: degree
Encoding: 176 176 114
Width: 617
GlyphClass: 2
Flags: W
LayerCount: 2
Fore
SplineSet
530 1178 m 256,0,1
 530 1131 530 1131 513.5 1090.5 c 128,-1,2
 497 1050 497 1050 467 1020 c 128,-1,3
 437 990 437 990 396.5 973.5 c 128,-1,4
 356 957 356 957 309 957 c 256,5,6
 262 957 262 957 222 973.5 c 128,-1,7
 182 990 182 990 152 1020 c 128,-1,8
 122 1050 122 1050 104.5 1090.5 c 128,-1,9
 87 1131 87 1131 87 1178 c 256,10,11
 87 1225 87 1225 104.5 1265 c 128,-1,12
 122 1305 122 1305 152 1335 c 128,-1,13
 182 1365 182 1365 222.5 1382.5 c 128,-1,14
 263 1400 263 1400 309 1400 c 0,15,16
 356 1400 356 1400 396.5 1382.5 c 128,-1,17
 437 1365 437 1365 467 1335 c 128,-1,18
 497 1305 497 1305 513.5 1265 c 128,-1,19
 530 1225 530 1225 530 1178 c 256,0,1
433 1178 m 256,20,21
 433 1230 433 1230 397 1265.5 c 128,-1,22
 361 1301 361 1301 309 1301 c 256,23,24
 257 1301 257 1301 221 1265.5 c 128,-1,25
 185 1230 185 1230 185 1178 c 256,26,27
 185 1126 185 1126 221 1090 c 128,-1,28
 257 1054 257 1054 309 1054 c 256,29,30
 361 1054 361 1054 397 1090 c 128,-1,31
 433 1126 433 1126 433 1178 c 256,20,21
EndSplineSet
EndChar

StartChar: plusminus
Encoding: 177 177 115
Width: 1930
GlyphClass: 2
Flags: W
LayerCount: 2
Fore
SplineSet
1024 691 m 1,0,-1
 1024 344 l 1,1,-1
 906 344 l 1,2,-1
 906 691 l 1,3,-1
 386 691 l 1,4,-1
 386 811 l 1,5,-1
 906 811 l 1,6,-1
 906 1158 l 1,7,-1
 1024 1158 l 1,8,-1
 1024 811 l 1,9,-1
 1544 811 l 1,10,-1
 1544 691 l 1,11,-1
 1024 691 l 1,0,-1
386 0 m 1,12,-1
 386 120 l 1,13,-1
 1544 120 l 1,14,-1
 1544 0 l 1,15,-1
 386 0 l 1,12,-1
EndSplineSet
EndChar

StartChar: twosuperior
Encoding: 178 178 116
Width: 681
GlyphClass: 2
Flags: W
LayerCount: 2
Fore
SplineSet
575 503 m 1,0,-1
 30 503 l 1,1,-1
 30 550 l 1,2,3
 124 637 124 637 194 706.5 c 128,-1,4
 264 776 264 776 312 834.5 c 128,-1,5
 360 893 360 893 384 945.5 c 128,-1,6
 408 998 408 998 408 1053 c 0,7,8
 408 1115 408 1115 366 1151 c 128,-1,9
 324 1187 324 1187 261 1187 c 0,10,11
 217 1187 217 1187 174 1159.5 c 128,-1,12
 131 1132 131 1132 109 1071 c 1,13,-1
 52 1071 l 1,14,15
 64 1120 64 1120 87 1165 c 128,-1,16
 110 1210 110 1210 145.5 1244 c 128,-1,17
 181 1278 181 1278 227.5 1298 c 128,-1,18
 274 1318 274 1318 331 1318 c 0,19,20
 393 1318 393 1318 443.5 1301 c 128,-1,21
 494 1284 494 1284 529 1255 c 128,-1,22
 564 1226 564 1226 583 1188 c 128,-1,23
 602 1150 602 1150 602 1109 c 0,24,25
 602 1056 602 1056 584.5 1009.5 c 128,-1,26
 567 963 567 963 538.5 922 c 128,-1,27
 510 881 510 881 472 845.5 c 128,-1,28
 434 810 434 810 394 778 c 128,-1,29
 354 746 354 746 313.5 715.5 c 128,-1,30
 273 685 273 685 239 656 c 1,31,-1
 413 656 l 2,32,33
 482 656 482 656 536 670 c 128,-1,34
 590 684 590 684 617 734 c 1,35,-1
 675 734 l 1,36,-1
 575 503 l 1,0,-1
EndSplineSet
EndChar

StartChar: threesuperior
Encoding: 179 179 117
Width: 670
GlyphClass: 2
Flags: W
LayerCount: 2
Fore
SplineSet
606 776 m 0,0,1
 606 711 606 711 576 659.5 c 128,-1,2
 546 608 546 608 494 572 c 128,-1,3
 442 536 442 536 370 516.5 c 128,-1,4
 298 497 298 497 214 497 c 0,5,6
 178 497 178 497 144 500.5 c 128,-1,7
 110 504 110 504 85 514.5 c 128,-1,8
 60 525 60 525 45 542.5 c 128,-1,9
 30 560 30 560 30 588 c 0,10,11
 30 615 30 615 49 635.5 c 128,-1,12
 68 656 68 656 108 656 c 0,13,14
 130 656 130 656 151.5 643 c 128,-1,15
 173 630 173 630 195.5 614.5 c 128,-1,16
 218 599 218 599 244 586 c 128,-1,17
 270 573 270 573 302 573 c 0,18,19
 329 573 329 573 352.5 584 c 128,-1,20
 376 595 376 595 392.5 612.5 c 128,-1,21
 409 630 409 630 418.5 653 c 128,-1,22
 428 676 428 676 428 699 c 0,23,24
 428 785 428 785 351 833 c 128,-1,25
 274 881 274 881 143 890 c 1,26,-1
 143 937 l 1,27,28
 187 940 187 940 228 955.5 c 128,-1,29
 269 971 269 971 300 995.5 c 128,-1,30
 331 1020 331 1020 349.5 1050.5 c 128,-1,31
 368 1081 368 1081 368 1115 c 0,32,33
 368 1157 368 1157 336 1183 c 128,-1,34
 304 1209 304 1209 253 1209 c 256,35,36
 202 1209 202 1209 157 1179.5 c 128,-1,37
 112 1150 112 1150 74 1096 c 1,38,-1
 30 1111 l 1,39,40
 49 1149 49 1149 74 1186.5 c 128,-1,41
 99 1224 99 1224 133.5 1255 c 128,-1,42
 168 1286 168 1286 214 1304.5 c 128,-1,43
 260 1323 260 1323 324 1323 c 0,44,45
 433 1323 433 1323 496 1281 c 128,-1,46
 559 1239 559 1239 559 1161 c 0,47,48
 559 1116 559 1116 522.5 1067 c 128,-1,49
 486 1018 486 1018 435 984 c 1,50,51
 469 972 469 972 499.5 954 c 128,-1,52
 530 936 530 936 553.5 910.5 c 128,-1,53
 577 885 577 885 591.5 852 c 128,-1,54
 606 819 606 819 606 776 c 0,0,1
EndSplineSet
EndChar

StartChar: acute
Encoding: 180 180 118
Width: 687
GlyphClass: 2
Flags: W
LayerCount: 2
Fore
SplineSet
688 1323 m 0,0,1
 688 1301 688 1301 681.5 1280.5 c 128,-1,2
 675 1260 675 1260 656 1249 c 2,3,-1
 321 1041 l 1,4,-1
 220 1041 l 1,5,-1
 510 1396 l 2,6,7
 522 1410 522 1410 541 1418 c 128,-1,8
 560 1426 560 1426 582 1426 c 0,9,10
 626 1426 626 1426 657 1396 c 128,-1,11
 688 1366 688 1366 688 1323 c 0,0,1
EndSplineSet
EndChar

StartChar: mu
Encoding: 181 181 119
Width: 1155
GlyphClass: 2
Flags: W
LayerCount: 2
Fore
SplineSet
1140 281 m 1,0,1
 1137 211 1137 211 1124 153 c 128,-1,2
 1111 95 1111 95 1082.5 54.5 c 128,-1,3
 1054 14 1054 14 1008.5 -8 c 128,-1,4
 963 -30 963 -30 897 -30 c 0,5,6
 849 -30 849 -30 812 -15 c 128,-1,7
 775 0 775 0 749.5 25.5 c 128,-1,8
 724 51 724 51 709 82 c 128,-1,9
 694 113 694 113 690 147 c 1,10,11
 665 120 665 120 634 88.5 c 128,-1,12
 603 57 603 57 563.5 31 c 128,-1,13
 524 5 524 5 473 -12.5 c 128,-1,14
 422 -30 422 -30 357 -30 c 0,15,16
 309 -30 309 -30 273 -17.5 c 128,-1,17
 237 -5 237 -5 214 13 c 1,18,-1
 214 -32 l 2,19,20
 214 -75 214 -75 227 -105.5 c 128,-1,21
 240 -136 240 -136 256.5 -165 c 128,-1,22
 273 -194 273 -194 286 -225.5 c 128,-1,23
 299 -257 299 -257 299 -304 c 0,24,25
 299 -366 299 -366 262.5 -400 c 128,-1,26
 226 -434 226 -434 179 -434 c 0,27,28
 153 -434 153 -434 131.5 -424.5 c 128,-1,29
 110 -415 110 -415 94.5 -398 c 128,-1,30
 79 -381 79 -381 70 -359 c 128,-1,31
 61 -337 61 -337 61 -313 c 0,32,33
 61 -275 61 -275 70 -234.5 c 128,-1,34
 79 -194 79 -194 86 -160 c 0,35,36
 100 -73 100 -73 108.5 12 c 128,-1,37
 117 97 117 97 117 186 c 2,38,-1
 117 894 l 1,39,-1
 395 894 l 1,40,-1
 395 325 l 2,41,42
 395 228 395 228 420 185.5 c 128,-1,43
 445 143 445 143 507 143 c 0,44,45
 549 143 549 143 597.5 175 c 128,-1,46
 646 207 646 207 690 257 c 1,47,-1
 690 894 l 1,48,-1
 954 894 l 1,49,-1
 954 325 l 2,50,51
 954 298 954 298 955.5 268.5 c 128,-1,52
 957 239 957 239 962.5 214.5 c 128,-1,53
 968 190 968 190 978.5 173.5 c 128,-1,54
 989 157 989 157 1007 157 c 0,55,56
 1023 157 1023 157 1033.5 169 c 128,-1,57
 1044 181 1044 181 1051 199 c 128,-1,58
 1058 217 1058 217 1062 239 c 128,-1,59
 1066 261 1066 261 1068 281 c 1,60,-1
 1140 281 l 1,0,1
EndSplineSet
EndChar

StartChar: paragraph
Encoding: 182 182 120
Width: 1050
GlyphClass: 2
Flags: W
LayerCount: 2
Fore
SplineSet
870 1250 m 1,0,-1
 870 -430 l 1,1,-1
 773 -430 l 1,2,-1
 773 1247 l 1,3,-1
 594 1247 l 1,4,-1
 594 -430 l 1,5,-1
 497 -430 l 1,6,-1
 497 473 l 1,7,8
 371 473 371 473 276 504.5 c 128,-1,9
 181 536 181 536 116.5 591 c 128,-1,10
 52 646 52 646 19.5 721.5 c 128,-1,11
 -13 797 -13 797 -13 884 c 0,12,13
 -13 967 -13 967 19.5 1047 c 128,-1,14
 52 1127 52 1127 116.5 1189.5 c 128,-1,15
 181 1252 181 1252 275.5 1290 c 128,-1,16
 370 1328 370 1328 497 1328 c 2,17,-1
 1055 1328 l 1,18,-1
 1055 1250 l 1,19,-1
 870 1250 l 1,0,-1
EndSplineSet
EndChar

StartChar: periodcentered
Encoding: 183 183 121
Width: 560
GlyphClass: 2
Flags: W
LayerCount: 2
Fore
SplineSet
446 667 m 0,0,1
 446 632 446 632 433 601.5 c 128,-1,2
 420 571 420 571 397 548 c 128,-1,3
 374 525 374 525 343.5 512 c 128,-1,4
 313 499 313 499 279 499 c 256,5,6
 245 499 245 499 215.5 512 c 128,-1,7
 186 525 186 525 163 548 c 128,-1,8
 140 571 140 571 127 601.5 c 128,-1,9
 114 632 114 632 114 667 c 0,10,11
 114 701 114 701 127 730.5 c 128,-1,12
 140 760 140 760 163 783 c 128,-1,13
 186 806 186 806 216 819 c 128,-1,14
 246 832 246 832 279 832 c 0,15,16
 313 832 313 832 343.5 819 c 128,-1,17
 374 806 374 806 397 783 c 128,-1,18
 420 760 420 760 433 730.5 c 128,-1,19
 446 701 446 701 446 667 c 0,0,1
EndSplineSet
EndChar

StartChar: cedilla
Encoding: 184 184 122
Width: 482
GlyphClass: 2
Flags: W
LayerCount: 2
Fore
SplineSet
477 -260 m 0,0,1
 477 -303 477 -303 449.5 -336.5 c 128,-1,2
 422 -370 422 -370 380.5 -393.5 c 128,-1,3
 339 -417 339 -417 288.5 -429.5 c 128,-1,4
 238 -442 238 -442 190 -442 c 0,5,6
 146 -442 146 -442 100.5 -433.5 c 128,-1,7
 55 -425 55 -425 0 -407 c 1,8,-1
 47 -328 l 1,9,10
 85 -342 85 -342 121 -349.5 c 128,-1,11
 157 -357 157 -357 179 -357 c 0,12,13
 205 -357 205 -357 222 -350 c 128,-1,14
 239 -343 239 -343 249.5 -331.5 c 128,-1,15
 260 -320 260 -320 264.5 -306 c 128,-1,16
 269 -292 269 -292 269 -278 c 0,17,18
 269 -244 269 -244 247.5 -232 c 128,-1,19
 226 -220 226 -220 200 -220 c 0,20,21
 182 -220 182 -220 167.5 -223 c 128,-1,22
 153 -226 153 -226 139 -230 c 1,23,-1
 105 -207 l 1,24,-1
 199 0 l 1,25,-1
 283 0 l 1,26,-1
 229 -127 l 1,27,-1
 274 -127 l 2,28,29
 308 -127 308 -127 344.5 -133.5 c 128,-1,30
 381 -140 381 -140 410 -156 c 128,-1,31
 439 -172 439 -172 458 -197 c 128,-1,32
 477 -222 477 -222 477 -260 c 0,0,1
EndSplineSet
EndChar

StartChar: onesuperior
Encoding: 185 185 123
Width: 826
GlyphClass: 2
Flags: W
LayerCount: 2
Fore
SplineSet
169 543 m 1,0,-1
 169 590 l 1,1,2
 212 590 212 590 242 594.5 c 128,-1,3
 272 599 272 599 290.5 611 c 128,-1,4
 309 623 309 623 317 642.5 c 128,-1,5
 325 662 325 662 325 693 c 2,6,-1
 325 1105 l 2,7,8
 325 1124 325 1124 323.5 1141.5 c 128,-1,9
 322 1159 322 1159 315.5 1171.5 c 128,-1,10
 309 1184 309 1184 295 1192 c 128,-1,11
 281 1200 281 1200 255 1200 c 0,12,13
 239 1200 239 1200 217.5 1195.5 c 128,-1,14
 196 1191 196 1191 169 1180 c 1,15,-1
 147 1224 l 1,16,-1
 476 1358 l 1,17,-1
 532 1358 l 1,18,-1
 532 693 l 2,19,20
 532 662 532 662 537.5 642.5 c 128,-1,21
 543 623 543 623 559 611 c 128,-1,22
 575 599 575 599 602 594.5 c 128,-1,23
 629 590 629 590 672 590 c 1,24,-1
 672 543 l 1,25,-1
 169 543 l 1,0,-1
EndSplineSet
EndChar

StartChar: ordmasculine
Encoding: 186 186 124
Width: 753
GlyphClass: 2
Flags: W
LayerCount: 2
Fore
SplineSet
706 1068 m 0,0,1
 706 1010 706 1010 684 956 c 128,-1,2
 662 902 662 902 620 861 c 128,-1,3
 578 820 578 820 518.5 796 c 128,-1,4
 459 772 459 772 383 772 c 0,5,6
 305 772 305 772 243.5 795.5 c 128,-1,7
 182 819 182 819 139 858 c 128,-1,8
 96 897 96 897 73.5 947.5 c 128,-1,9
 51 998 51 998 51 1053 c 0,10,11
 51 1109 51 1109 73.5 1161 c 128,-1,12
 96 1213 96 1213 137.5 1253 c 128,-1,13
 179 1293 179 1293 239.5 1317 c 128,-1,14
 300 1341 300 1341 376 1341 c 0,15,16
 450 1341 450 1341 510.5 1320 c 128,-1,17
 571 1299 571 1299 614.5 1261.5 c 128,-1,18
 658 1224 658 1224 682 1174 c 128,-1,19
 706 1124 706 1124 706 1068 c 0,0,1
500 1023 m 0,20,21
 500 1070 500 1070 490.5 1116.5 c 128,-1,22
 481 1163 481 1163 461.5 1200 c 128,-1,23
 442 1237 442 1237 413.5 1260.5 c 128,-1,24
 385 1284 385 1284 347 1284 c 0,25,26
 331 1284 331 1284 315 1275 c 128,-1,27
 299 1266 299 1266 286 1245 c 128,-1,28
 273 1224 273 1224 264.5 1188.5 c 128,-1,29
 256 1153 256 1153 256 1101 c 0,30,31
 256 1046 256 1046 269.5 997.5 c 128,-1,32
 283 949 283 949 306 912 c 128,-1,33
 329 875 329 875 357.5 853.5 c 128,-1,34
 386 832 386 832 416 832 c 0,35,36
 458 832 458 832 479 875.5 c 128,-1,37
 500 919 500 919 500 1023 c 0,20,21
62 606 m 1,38,-1
 62 684 l 1,39,-1
 701 684 l 1,40,-1
 701 606 l 1,41,-1
 62 606 l 1,38,-1
EndSplineSet
EndChar

StartChar: guillemotright
Encoding: 187 187 125
Width: 849
GlyphClass: 2
Flags: W
LayerCount: 2
Fore
SplineSet
451 -2 m 0,0,1
 621 143 621 143 621 346 c 0,2,3
 621 547 621 547 451 682 c 0,4,5
 414 709 414 709 436 754 c 0,6,7
 456 796 456 796 510 772 c 0,8,9
 631 713 631 713 707 592 c 0,10,11
 780 476 780 476 780 340 c 0,12,13
 780 209 780 209 707 88 c 0,14,15
 638 -26 638 -26 510 -92 c 0,16,17
 461 -116 461 -116 438 -76 c 0,18,19
 412 -33 412 -33 451 -2 c 0,0,1
92 -2 m 0,20,21
 262 143 262 143 262 346 c 0,22,23
 262 547 262 547 92 682 c 0,24,25
 56 708 56 708 78 754 c 0,26,27
 98 796 98 796 152 772 c 0,28,29
 274 712 274 712 350 592 c 0,30,31
 422 477 422 477 422 340 c 0,32,33
 422 207 422 207 350 88 c 0,34,35
 281 -26 281 -26 152 -92 c 0,36,37
 103 -116 103 -116 80 -76 c 0,38,39
 54 -32 54 -32 92 -2 c 0,20,21
EndSplineSet
EndChar

StartChar: onequarter
Encoding: 188 188 126
Width: 1705
GlyphClass: 2
Flags: W
LayerCount: 2
Fore
SplineSet
1432 172 m 1,0,-1
 1432 -8 l 1,1,-1
 1239 -8 l 1,2,-1
 1239 172 l 1,3,-1
 854 172 l 1,4,-1
 854 294 l 1,5,-1
 1283 807 l 1,6,-1
 1432 807 l 1,7,-1
 1432 294 l 1,8,-1
 1536 294 l 1,9,-1
 1536 172 l 1,10,-1
 1432 172 l 1,0,-1
497 -16 m 1,11,-1
 370 -16 l 1,12,-1
 1326 1352 l 1,13,-1
 1452 1352 l 1,14,-1
 497 -16 l 1,11,-1
191 513 m 1,15,-1
 191 560 l 1,16,17
 234 560 234 560 264 564.5 c 128,-1,18
 294 569 294 569 312.5 581 c 128,-1,19
 331 593 331 593 339 612.5 c 128,-1,20
 347 632 347 632 347 663 c 2,21,-1
 347 1075 l 2,22,23
 347 1094 347 1094 345.5 1112.5 c 128,-1,24
 344 1131 344 1131 337.5 1146 c 128,-1,25
 331 1161 331 1161 317 1169.5 c 128,-1,26
 303 1178 303 1178 277 1178 c 0,27,28
 261 1178 261 1178 239.5 1173.5 c 128,-1,29
 218 1169 218 1169 191 1158 c 1,30,-1
 169 1202 l 1,31,-1
 498 1336 l 1,32,-1
 554 1336 l 1,33,-1
 554 663 l 2,34,35
 554 632 554 632 559.5 612.5 c 128,-1,36
 565 593 565 593 581 581 c 128,-1,37
 597 569 597 569 624 564.5 c 128,-1,38
 651 560 651 560 694 560 c 1,39,-1
 694 513 l 1,40,-1
 191 513 l 1,15,-1
1239 624 m 1,41,-1
 959 294 l 1,42,-1
 1239 294 l 1,43,-1
 1239 624 l 1,41,-1
EndSplineSet
EndChar

StartChar: onehalf
Encoding: 189 189 127
Width: 1705
GlyphClass: 2
Flags: W
LayerCount: 2
Fore
SplineSet
1503 -8 m 1,0,-1
 958 -8 l 1,1,-1
 958 39 l 1,2,3
 1052 126 1052 126 1122 194.5 c 128,-1,4
 1192 263 1192 263 1240 321.5 c 128,-1,5
 1288 380 1288 380 1312 434.5 c 128,-1,6
 1336 489 1336 489 1336 549 c 0,7,8
 1336 611 1336 611 1292 643.5 c 128,-1,9
 1248 676 1248 676 1185 676 c 0,10,11
 1141 676 1141 676 1100 648.5 c 128,-1,12
 1059 621 1059 621 1037 560 c 1,13,-1
 980 560 l 1,14,15
 992 609 992 609 1014 655.5 c 128,-1,16
 1036 702 1036 702 1070 737 c 128,-1,17
 1104 772 1104 772 1149.5 793.5 c 128,-1,18
 1195 815 1195 815 1252 815 c 0,19,20
 1314 815 1314 815 1365.5 797 c 128,-1,21
 1417 779 1417 779 1453.5 748 c 128,-1,22
 1490 717 1490 717 1510 678.5 c 128,-1,23
 1530 640 1530 640 1530 598 c 0,24,25
 1530 517 1530 517 1493 453 c 128,-1,26
 1456 389 1456 389 1400.5 335.5 c 128,-1,27
 1345 282 1345 282 1282 236 c 128,-1,28
 1219 190 1219 190 1167 146 c 1,29,-1
 1341 146 l 2,30,31
 1410 146 1410 146 1464 159.5 c 128,-1,32
 1518 173 1518 173 1545 224 c 1,33,-1
 1603 224 l 1,34,-1
 1503 -8 l 1,0,-1
432 -16 m 1,35,-1
 305 -16 l 1,36,-1
 1261 1352 l 1,37,-1
 1387 1352 l 1,38,-1
 432 -16 l 1,35,-1
126 513 m 1,39,-1
 126 560 l 1,40,41
 169 560 169 560 199 564.5 c 128,-1,42
 229 569 229 569 247.5 581 c 128,-1,43
 266 593 266 593 274 612.5 c 128,-1,44
 282 632 282 632 282 663 c 2,45,-1
 282 1075 l 2,46,47
 282 1094 282 1094 280.5 1112.5 c 128,-1,48
 279 1131 279 1131 272.5 1146 c 128,-1,49
 266 1161 266 1161 252 1169.5 c 128,-1,50
 238 1178 238 1178 212 1178 c 0,51,52
 196 1178 196 1178 174.5 1173.5 c 128,-1,53
 153 1169 153 1169 126 1158 c 1,54,-1
 104 1202 l 1,55,-1
 433 1336 l 1,56,-1
 489 1336 l 1,57,-1
 489 663 l 2,58,59
 489 632 489 632 494.5 612.5 c 128,-1,60
 500 593 500 593 516 581 c 128,-1,61
 532 569 532 569 559 564.5 c 128,-1,62
 586 560 586 560 629 560 c 1,63,-1
 629 513 l 1,64,-1
 126 513 l 1,39,-1
EndSplineSet
EndChar

StartChar: threequarters
Encoding: 190 190 128
Width: 1705
GlyphClass: 2
Flags: W
LayerCount: 2
Fore
SplineSet
1432 172 m 1,0,-1
 1432 -8 l 1,1,-1
 1239 -8 l 1,2,-1
 1239 172 l 1,3,-1
 854 172 l 1,4,-1
 854 294 l 1,5,-1
 1283 807 l 1,6,-1
 1432 807 l 1,7,-1
 1432 294 l 1,8,-1
 1536 294 l 1,9,-1
 1536 172 l 1,10,-1
 1432 172 l 1,0,-1
497 -16 m 1,11,-1
 370 -16 l 1,12,-1
 1326 1352 l 1,13,-1
 1452 1352 l 1,14,-1
 497 -16 l 1,11,-1
738 794 m 0,15,16
 738 729 738 729 708 675 c 128,-1,17
 678 621 678 621 626.5 581.5 c 128,-1,18
 575 542 575 542 502.5 520 c 128,-1,19
 430 498 430 498 347 498 c 0,20,21
 311 498 311 498 277 502 c 128,-1,22
 243 506 243 506 217.5 516 c 128,-1,23
 192 526 192 526 177 544 c 128,-1,24
 162 562 162 562 162 589 c 256,25,26
 162 616 162 616 181 637 c 128,-1,27
 200 658 200 658 240 658 c 0,28,29
 262 658 262 658 283.5 645 c 128,-1,30
 305 632 305 632 328 616.5 c 128,-1,31
 351 601 351 601 377 588 c 128,-1,32
 403 575 403 575 434 575 c 0,33,34
 461 575 461 575 484.5 584.5 c 128,-1,35
 508 594 508 594 525 611 c 128,-1,36
 542 628 542 628 551 649.5 c 128,-1,37
 560 671 560 671 560 694 c 0,38,39
 560 780 560 780 483.5 838 c 128,-1,40
 407 896 407 896 276 905 c 1,41,-1
 276 951 l 1,42,43
 320 954 320 954 361 967 c 128,-1,44
 402 980 402 980 433 1001.5 c 128,-1,45
 464 1023 464 1023 482 1051.5 c 128,-1,46
 500 1080 500 1080 500 1114 c 0,47,48
 500 1165 500 1165 468.5 1193.5 c 128,-1,49
 437 1222 437 1222 386 1222 c 256,50,51
 335 1222 335 1222 289.5 1192.5 c 128,-1,52
 244 1163 244 1163 207 1109 c 1,53,-1
 162 1124 l 1,54,55
 181 1162 181 1162 205.5 1199.5 c 128,-1,56
 230 1237 230 1237 263 1268 c 128,-1,57
 296 1299 296 1299 341.5 1317.5 c 128,-1,58
 387 1336 387 1336 451 1336 c 0,59,60
 560 1336 560 1336 625.5 1292.5 c 128,-1,61
 691 1249 691 1249 691 1171 c 0,62,63
 691 1149 691 1149 679.5 1123.5 c 128,-1,64
 668 1098 668 1098 650 1075 c 128,-1,65
 632 1052 632 1052 610.5 1032.5 c 128,-1,66
 589 1013 589 1013 568 1002 c 1,67,68
 602 990 602 990 632.5 972 c 128,-1,69
 663 954 663 954 686.5 928.5 c 128,-1,70
 710 903 710 903 724 870 c 128,-1,71
 738 837 738 837 738 794 c 0,15,16
1239 624 m 1,72,-1
 959 294 l 1,73,-1
 1239 294 l 1,74,-1
 1239 624 l 1,72,-1
EndSplineSet
EndChar

StartChar: questiondown
Encoding: 191 191 129
Width: 937
GlyphClass: 2
Flags: W
LayerCount: 2
Fore
SplineSet
338 807 m 0,0,1
 338 837 338 837 350.5 864.5 c 128,-1,2
 363 892 363 892 383 912 c 128,-1,3
 403 932 403 932 430.5 943.5 c 128,-1,4
 458 955 458 955 489 955 c 256,5,6
 520 955 520 955 546.5 943.5 c 128,-1,7
 573 932 573 932 593.5 912 c 128,-1,8
 614 892 614 892 625.5 864.5 c 128,-1,9
 637 837 637 837 637 807 c 0,10,11
 637 776 637 776 625.5 748.5 c 128,-1,12
 614 721 614 721 593.5 700.5 c 128,-1,13
 573 680 573 680 546.5 668 c 128,-1,14
 520 656 520 656 489 656 c 256,15,16
 458 656 458 656 430.5 668 c 128,-1,17
 403 680 403 680 383 700.5 c 128,-1,18
 363 721 363 721 350.5 748.5 c 128,-1,19
 338 776 338 776 338 807 c 0,0,1
75 -120 m 0,20,21
 75 -77 75 -77 91 -35.5 c 128,-1,22
 107 6 107 6 133 46 c 128,-1,23
 159 86 159 86 191.5 125 c 128,-1,24
 224 164 224 164 259 203 c 256,25,26
 294 242 294 242 327.5 281.5 c 128,-1,27
 361 321 361 321 388 362 c 128,-1,28
 415 403 415 403 431 445 c 128,-1,29
 447 487 447 487 447 532 c 1,30,-1
 525 532 l 1,31,32
 525 485 525 485 519 442.5 c 128,-1,33
 513 400 513 400 501 358.5 c 128,-1,34
 489 317 489 317 470 272 c 128,-1,35
 451 227 451 227 425 175 c 0,36,37
 385 93 385 93 370 25.5 c 128,-1,38
 355 -42 355 -42 355 -109 c 0,39,40
 355 -340 355 -340 519 -341 c 0,41,42
 542 -341 542 -341 564 -335 c 128,-1,43
 586 -329 586 -329 603.5 -319 c 128,-1,44
 621 -309 621 -309 632 -295.5 c 128,-1,45
 643 -282 643 -282 643 -265 c 0,46,47
 643 -251 643 -251 634 -229.5 c 128,-1,48
 625 -208 625 -208 613.5 -182.5 c 128,-1,49
 602 -157 602 -157 593 -130 c 128,-1,50
 584 -103 584 -103 584 -77 c 0,51,52
 584 -32 584 -32 612.5 1.5 c 128,-1,53
 641 35 641 35 690 35 c 0,54,55
 758 35 758 35 799.5 -6.5 c 128,-1,56
 841 -48 841 -48 841 -113 c 0,57,58
 841 -165 841 -165 821 -221 c 128,-1,59
 801 -277 801 -277 754.5 -323.5 c 128,-1,60
 708 -370 708 -370 633 -400 c 128,-1,61
 558 -430 558 -430 448 -430 c 0,62,63
 371 -430 371 -430 303 -412 c 128,-1,64
 235 -394 235 -394 184.5 -355.5 c 128,-1,65
 134 -317 134 -317 104.5 -259 c 128,-1,66
 75 -201 75 -201 75 -120 c 0,20,21
EndSplineSet
EndChar

StartChar: AE
Encoding: 198 198 136
Width: 2012
GlyphClass: 2
Flags: W
LayerCount: 2
Fore
SplineSet
1795 4 m 1,0,-1
 746 0 l 1,1,-1
 746 78 l 1,2,-1
 784 78 l 2,3,4
 866 78 866 78 906 126 c 0,5,6
 918 142 918 142 926.5 179 c 128,-1,7
 935 216 935 216 935 277 c 2,8,-1
 935 474 l 1,9,-1
 558 474 l 1,10,-1
 458 286 l 2,11,12
 441 255 441 255 430 233.5 c 128,-1,13
 419 212 419 212 413 197.5 c 128,-1,14
 407 183 407 183 405 174 c 128,-1,15
 403 165 403 165 403 157 c 0,16,17
 403 117 403 117 446 100.5 c 128,-1,18
 489 84 489 84 558 78 c 1,19,-1
 558 0 l 1,20,-1
 92 0 l 1,21,-1
 92 78 l 1,22,23
 135 78 135 78 165 95 c 0,24,25
 179 104 179 104 196 113.5 c 128,-1,26
 213 123 213 123 232.5 141 c 128,-1,27
 252 159 252 159 275 189.5 c 128,-1,28
 298 220 298 220 324 269 c 2,29,-1
 714 1023 l 2,30,31
 744 1080 744 1080 758 1113 c 128,-1,32
 772 1146 772 1146 772 1170 c 0,33,34
 772 1187 772 1187 767.5 1200.5 c 128,-1,35
 763 1214 763 1214 748.5 1224 c 128,-1,36
 734 1234 734 1234 707 1241 c 128,-1,37
 680 1248 680 1248 636 1250 c 1,38,-1
 636 1328 l 1,39,-1
 1807 1328 l 1,40,-1
 1822 971 l 1,41,-1
 1747 971 l 1,42,43
 1730 1035 1730 1035 1715 1081 c 128,-1,44
 1700 1127 1700 1127 1674.5 1156 c 128,-1,45
 1649 1185 1649 1185 1605.5 1199 c 128,-1,46
 1562 1213 1562 1213 1488 1213 c 2,47,-1
 1240 1213 l 1,48,-1
 1240 733 l 1,49,-1
 1360 733 l 2,50,51
 1421 733 1421 733 1458 747.5 c 128,-1,52
 1495 762 1495 762 1517.5 790.5 c 128,-1,53
 1540 819 1540 819 1551 862 c 128,-1,54
 1562 905 1562 905 1570 963 c 1,55,-1
 1648 963 l 1,56,-1
 1648 408 l 1,57,-1
 1570 408 l 1,58,59
 1562 466 1562 466 1551 506.5 c 128,-1,60
 1540 547 1540 547 1518 572.5 c 128,-1,61
 1496 598 1496 598 1459 609 c 128,-1,62
 1422 620 1422 620 1360 620 c 2,63,-1
 1240 620 l 1,64,-1
 1240 260 l 2,65,66
 1240 221 1240 221 1244 193 c 128,-1,67
 1248 165 1248 165 1254 156 c 0,68,69
 1258 150 1258 150 1264 142 c 128,-1,70
 1270 134 1270 134 1280.5 127.5 c 128,-1,71
 1291 121 1291 121 1308 116.5 c 128,-1,72
 1325 112 1325 112 1353 112 c 2,73,-1
 1457 112 l 2,74,75
 1544 112 1544 112 1601.5 128 c 128,-1,76
 1659 144 1659 144 1700.5 177.5 c 128,-1,77
 1742 211 1742 211 1775.5 263 c 128,-1,78
 1809 315 1809 315 1850 385 c 1,79,-1
 1930 385 l 1,80,-1
 1795 4 l 1,0,-1
935 1214 m 1,81,-1
 616 588 l 1,82,-1
 935 588 l 1,83,-1
 935 1214 l 1,81,-1
EndSplineSet
EndChar

StartChar: Ccedilla
Encoding: 199 199 137
Width: 1450
GlyphClass: 2
Flags: W
LayerCount: 2
Fore
SplineSet
996 -274 m 0,0,1
 996 -317 996 -317 968.5 -351 c 128,-1,2
 941 -385 941 -385 899.5 -408.5 c 128,-1,3
 858 -432 858 -432 807 -444 c 128,-1,4
 756 -456 756 -456 708 -456 c 0,5,6
 664 -456 664 -456 618.5 -447.5 c 128,-1,7
 573 -439 573 -439 519 -421 c 1,8,-1
 565 -342 l 1,9,10
 603 -356 603 -356 639.5 -364 c 128,-1,11
 676 -372 676 -372 698 -372 c 0,12,13
 724 -372 724 -372 741 -364.5 c 128,-1,14
 758 -357 758 -357 768.5 -345.5 c 128,-1,15
 779 -334 779 -334 783.5 -320.5 c 128,-1,16
 788 -307 788 -307 788 -292 c 0,17,18
 788 -258 788 -258 766.5 -246 c 128,-1,19
 745 -234 745 -234 719 -234 c 0,20,21
 701 -234 701 -234 686.5 -237 c 128,-1,22
 672 -240 672 -240 658 -244 c 1,23,-1
 624 -221 l 1,24,-1
 712 -25 l 1,25,26
 555 -12 555 -12 438.5 47.5 c 128,-1,27
 322 107 322 107 245 197 c 128,-1,28
 168 287 168 287 130 401 c 128,-1,29
 92 515 92 515 92 638 c 0,30,31
 92 725 92 725 111.5 812 c 128,-1,32
 131 899 131 899 169 978.5 c 128,-1,33
 207 1058 207 1058 264.5 1127.5 c 128,-1,34
 322 1197 322 1197 397.5 1248 c 128,-1,35
 473 1299 473 1299 568 1328 c 128,-1,36
 663 1357 663 1357 776 1357 c 0,37,38
 851 1357 851 1357 913.5 1342 c 128,-1,39
 976 1327 976 1327 1023.5 1309 c 128,-1,40
 1071 1291 1071 1291 1103 1276 c 128,-1,41
 1135 1261 1135 1261 1149 1261 c 0,42,43
 1170 1261 1170 1261 1181.5 1268.5 c 128,-1,44
 1193 1276 1193 1276 1200.5 1290 c 128,-1,45
 1208 1304 1208 1304 1212.5 1322 c 128,-1,46
 1217 1340 1217 1340 1223 1360 c 1,47,-1
 1299 1360 l 1,48,-1
 1328 847 l 1,49,-1
 1250 847 l 1,50,51
 1228 941 1228 941 1184 1015 c 128,-1,52
 1140 1089 1140 1089 1082 1140 c 128,-1,53
 1024 1191 1024 1191 956.5 1218 c 128,-1,54
 889 1245 889 1245 823 1245 c 0,55,56
 722 1245 722 1245 647.5 1197.5 c 128,-1,57
 573 1150 573 1150 525 1067.5 c 128,-1,58
 477 985 477 985 453.5 874.5 c 128,-1,59
 430 764 430 764 430 638 c 256,60,61
 430 512 430 512 461.5 410 c 128,-1,62
 493 308 493 308 549.5 236.5 c 128,-1,63
 606 165 606 165 684.5 126.5 c 128,-1,64
 763 88 763 88 859 88 c 0,65,66
 937 88 937 88 1003.5 114 c 128,-1,67
 1070 140 1070 140 1125 181 c 128,-1,68
 1180 222 1180 222 1223.5 274 c 128,-1,69
 1267 326 1267 326 1301 378 c 1,70,-1
 1373 322 l 1,71,72
 1342 270 1342 270 1295 209 c 128,-1,73
 1248 148 1248 148 1178.5 95.5 c 128,-1,74
 1109 43 1109 43 1014.5 7 c 128,-1,75
 920 -29 920 -29 795 -29 c 1,76,-1
 747 -142 l 1,77,-1
 793 -142 l 2,78,79
 827 -142 827 -142 863 -148.5 c 128,-1,80
 899 -155 899 -155 928.5 -170.5 c 128,-1,81
 958 -186 958 -186 977 -211 c 128,-1,82
 996 -236 996 -236 996 -274 c 0,0,1
EndSplineSet
EndChar

StartChar: Eth
Encoding: 208 208 146
Width: 1436
GlyphClass: 2
Flags: W
LayerCount: 2
Fore
SplineSet
1354 664 m 0,0,1
 1354 522 1354 522 1309.5 400.5 c 128,-1,2
 1265 279 1265 279 1179.5 190 c 128,-1,3
 1094 101 1094 101 970.5 50.5 c 128,-1,4
 847 0 847 0 691 0 c 2,5,-1
 27 0 l 1,6,-1
 27 78 l 1,7,-1
 81 78 l 2,8,9
 125 78 125 78 151 89.5 c 128,-1,10
 177 101 177 101 191 124.5 c 128,-1,11
 205 148 205 148 209.5 182.5 c 128,-1,12
 214 217 214 217 214 263 c 2,13,-1
 214 636 l 1,14,-1
 27 636 l 1,15,-1
 27 771 l 1,16,-1
 214 771 l 1,17,-1
 214 1066 l 2,18,19
 214 1111 214 1111 209 1147.5 c 128,-1,20
 204 1184 204 1184 188 1208 c 0,21,22
 161 1251 161 1251 90 1250 c 2,23,-1
 27 1250 l 1,24,-1
 27 1328 l 1,25,-1
 691 1328 l 2,26,27
 788 1328 788 1328 873 1307.5 c 128,-1,28
 958 1287 958 1287 1028 1249 c 0,29,30
 1106 1206 1106 1206 1167 1145 c 128,-1,31
 1228 1084 1228 1084 1270 1008.5 c 128,-1,32
 1312 933 1312 933 1333 846 c 128,-1,33
 1354 759 1354 759 1354 664 c 0,0,1
1001 664 m 0,34,35
 1001 759 1001 759 982.5 856.5 c 128,-1,36
 964 954 964 954 918 1033.5 c 128,-1,37
 872 1113 872 1113 794.5 1163 c 128,-1,38
 717 1213 717 1213 601 1213 c 0,39,40
 583 1213 583 1213 569 1212 c 128,-1,41
 555 1211 555 1211 545 1210 c 0,42,43
 533 1209 533 1209 524 1208 c 1,44,-1
 524 771 l 1,45,-1
 825 771 l 1,46,-1
 825 636 l 1,47,-1
 524 636 l 1,48,-1
 524 133 l 1,49,50
 541 123 541 123 574 118 c 128,-1,51
 607 113 607 113 649 113 c 0,52,53
 752 113 752 113 819 162 c 128,-1,54
 886 211 886 211 926.5 289.5 c 128,-1,55
 967 368 967 368 984 466.5 c 128,-1,56
 1001 565 1001 565 1001 664 c 0,34,35
EndSplineSet
EndChar

StartChar: multiply
Encoding: 215 215 153
Width: 1380
GlyphClass: 2
Flags: W
LayerCount: 2
Fore
SplineSet
1109 57 m 1,0,-1
 686 485 l 1,1,-1
 264 57 l 1,2,-1
 165 156 l 1,3,-1
 585 578 l 1,4,-1
 166 998 l 1,5,-1
 265 1097 l 1,6,-1
 686 675 l 1,7,-1
 1109 1098 l 1,8,-1
 1208 1000 l 1,9,-1
 786 578 l 1,10,-1
 1208 156 l 1,11,-1
 1109 57 l 1,0,-1
EndSplineSet
EndChar

StartChar: Oslash
Encoding: 216 216 154
Width: 1562
GlyphClass: 2
Flags: W
LayerCount: 2
Fore
SplineSet
1487 664 m 256,0,1
 1487 520 1487 520 1431 393 c 128,-1,2
 1375 266 1375 266 1278.5 172.5 c 128,-1,3
 1182 79 1182 79 1053 25 c 128,-1,4
 924 -29 924 -29 780 -29 c 0,5,6
 666 -29 666 -29 562 5 c 128,-1,7
 458 39 458 39 370 100 c 1,8,-1
 246 -47 l 1,9,-1
 169 22 l 1,10,-1
 291 166 l 1,11,12
 191 260 191 260 133 388 c 128,-1,13
 75 516 75 516 75 664 c 0,14,15
 75 808 75 808 131 935 c 128,-1,16
 187 1062 187 1062 282.5 1155.5 c 128,-1,17
 378 1249 378 1249 507 1303 c 128,-1,18
 636 1357 636 1357 780 1357 c 0,19,20
 898 1357 898 1357 1006 1321.5 c 128,-1,21
 1114 1286 1114 1286 1204 1221 c 1,22,-1
 1334 1371 l 1,23,-1
 1412 1301 l 1,24,-1
 1282 1153 l 1,25,26
 1378 1059 1378 1059 1432.5 933.5 c 128,-1,27
 1487 808 1487 808 1487 664 c 256,0,1
1068 1063 m 1,28,29
 1049 1111 1049 1111 1021.5 1152 c 128,-1,30
 994 1193 994 1193 958.5 1222.5 c 128,-1,31
 923 1252 923 1252 878.5 1268 c 128,-1,32
 834 1284 834 1284 780 1284 c 0,33,34
 710 1284 710 1284 657 1257.5 c 128,-1,35
 604 1231 604 1231 565 1185.5 c 128,-1,36
 526 1140 526 1140 500 1079 c 128,-1,37
 474 1018 474 1018 458 949 c 128,-1,38
 442 880 442 880 435.5 806.5 c 128,-1,39
 429 733 429 733 429 664 c 0,40,41
 429 590 429 590 436 512.5 c 128,-1,42
 443 435 443 435 461 363 c 1,43,-1
 1068 1063 l 1,28,29
1133 664 m 256,44,45
 1133 734 1133 734 1126.5 805.5 c 128,-1,46
 1120 877 1120 877 1104 946 c 1,47,-1
 499 248 l 1,48,49
 539 158 539 158 607.5 101 c 128,-1,50
 676 44 676 44 780 44 c 0,51,52
 849 44 849 44 902 70.5 c 128,-1,53
 955 97 955 97 995 142.5 c 128,-1,54
 1035 188 1035 188 1061.5 249.5 c 128,-1,55
 1088 311 1088 311 1103.5 379.5 c 128,-1,56
 1119 448 1119 448 1126 521 c 128,-1,57
 1133 594 1133 594 1133 664 c 256,44,45
EndSplineSet
EndChar

StartChar: Thorn
Encoding: 222 222 160
Width: 1198
GlyphClass: 2
Flags: W
LayerCount: 2
Fore
SplineSet
1123 667 m 0,0,1
 1123 577 1123 577 1092 508 c 128,-1,2
 1061 439 1061 439 1002.5 393 c 128,-1,3
 944 347 944 347 861.5 323 c 128,-1,4
 779 299 779 299 676 299 c 2,5,-1
 476 299 l 1,6,-1
 476 239 l 2,7,8
 476 204 476 204 480.5 175 c 128,-1,9
 485 146 485 146 500.5 124.5 c 128,-1,10
 516 103 516 103 546 90.5 c 128,-1,11
 576 78 576 78 627 78 c 2,12,-1
 668 78 l 1,13,-1
 668 0 l 1,14,-1
 36 0 l 1,15,-1
 36 78 l 1,16,-1
 71 78 l 2,17,18
 141 78 141 78 168.5 117 c 128,-1,19
 196 156 196 156 196 235 c 2,20,-1
 196 1093 l 2,21,22
 196 1127 196 1127 190.5 1156 c 128,-1,23
 185 1185 185 1185 170.5 1206 c 128,-1,24
 156 1227 156 1227 132.5 1238.5 c 128,-1,25
 109 1250 109 1250 74 1250 c 2,26,-1
 36 1250 l 1,27,-1
 36 1328 l 1,28,-1
 668 1328 l 1,29,-1
 668 1250 l 1,30,-1
 627 1250 l 2,31,32
 580 1250 580 1250 550.5 1238.5 c 128,-1,33
 521 1227 521 1227 505 1206 c 128,-1,34
 489 1185 489 1185 482.5 1156 c 128,-1,35
 476 1127 476 1127 476 1093 c 2,36,-1
 476 1028 l 1,37,-1
 680 1028 l 2,38,39
 780 1028 780 1028 862 1004 c 128,-1,40
 944 980 944 980 1001.5 934.5 c 128,-1,41
 1059 889 1059 889 1091 821.5 c 128,-1,42
 1123 754 1123 754 1123 667 c 0,0,1
825 664 m 0,43,44
 825 719 825 719 806.5 766.5 c 128,-1,45
 788 814 788 814 754.5 849 c 128,-1,46
 721 884 721 884 675 904 c 128,-1,47
 629 924 629 924 575 924 c 2,48,-1
 476 924 l 1,49,-1
 476 403 l 1,50,-1
 533 403 l 2,51,52
 611 403 611 403 667 424 c 128,-1,53
 723 445 723 445 758 480.5 c 128,-1,54
 793 516 793 516 809 563.5 c 128,-1,55
 825 611 825 611 825 664 c 0,43,44
EndSplineSet
EndChar

